<svg xmlns="http://www.w3.org/2000/svg" xmlns:xlink="http://www.w3.org/1999/xlink" width="16" height="16" viewBox="0 0 16 16">
    <defs>
        <linearGradient id="c" x1="50%" x2="50%" y1="0%" y2="100%">
            <stop offset="0%" stop-color="#0B8CFF"/>
            <stop offset="100%" stop-color="#0AA1FF"/>
        </linearGradient>
        <path id="b" d="M9.364 1H2.337A2.342 2.342 0 0 0 0 3.343v9.314A2.345 2.345 0 0 0 2.343 15h9.314A2.339 2.339 0 0 0 14 12.669V5.66"/>
        <filter id="a" width="128.6%" height="128.6%" x="-14.3%" y="-7.1%" filterUnits="objectBoundingBox">
            <feOffset dy="1" in="SourceAlpha" result="shadowOffsetOuter1"/>
            <feGaussianBlur in="shadowOffsetOuter1" result="shadowBlurOuter1" stdDeviation=".5"/>
            <feComposite in="shadowBlurOuter1" in2="SourceAlpha" operator="out" result="shadowBlurOuter1"/>
            <feColorMatrix in="shadowBlurOuter1" values="0 0 0 0 0 0 0 0 0 0 0 0 0 0 0 0 0 0 0.05 0"/>
        </filter>
    </defs>
    <g fill="none" fill-rule="evenodd">
        <g transform="translate(1)">
            <use fill="#000" filter="url(#a)" xlink:href="#b"/>
            <use fill="url(#c)" xlink:href="#b"/>
            <path stroke="#1D82FF" stroke-opacity=".3" d="M9.156 1.5H2.337A1.842 1.842 0 0 0 .5 3.343v9.314c0 1.017.827 1.843 1.843 1.843h9.314a1.839 1.839 0 0 0 1.843-1.831V5.868L9.156 1.5z"/>
        </g>
        <path stroke="#FFF" stroke-width="1.5" d="M3.884 8.015L7.125 11l7.722-9.888"/>
        <path fill="#0B96FF" fill-rule="nonzero" d="M15.438 1.574L14.256.651l-1.858 2.394 1.074 1.04z"/>
    </g>
</svg>
