<?xml version="1.0" encoding="UTF-8"?>
<svg width="10px" height="9px" viewBox="0 0 10 9" version="1.1" xmlns="http://www.w3.org/2000/svg" xmlns:xlink="http://www.w3.org/1999/xlink">
    <!-- Generator: Sketch 50.2 (55047) - http://www.bohemiancoding.com/sketch -->
    <title>随机_hover</title>
    <desc>Created with Sketch.</desc>
    <defs></defs>
    <g id="浅色" stroke="none" stroke-width="1" fill="none" fill-rule="evenodd">
        <g id="王勇定的方案" transform="translate(-1986.000000, -1902.000000)" fill="#303030" fill-rule="nonzero">
            <g id="Group-20" transform="translate(1639.000000, 1850.000000)">
                <g id="输入框" transform="translate(68.000000, 45.000000)">
                    <g id="刷新-(1)" transform="translate(268.000000, 3.000000)">
                        <path d="M17.833249,10.9059738 C17.2776262,11.300312 16.6272566,11.4980189 15.9622008,11.4889744 C15.8742984,11.4880455 15.786885,11.4833522 15.7004787,11.4757744 C15.665308,11.4724011 15.6301764,11.4664855 15.5944875,11.4621344 C15.5266296,11.4528944 15.4587718,11.4436055 15.3928499,11.4306499 C15.3518321,11.4227788 15.3117725,11.4123165 15.271752,11.4028321 C15.2068079,11.3874321 15.1423723,11.3717876 15.0788656,11.3527209 C15.0486033,11.3432365 15.0188299,11.3322365 14.9885481,11.3219698 C14.9158014,11.2973298 14.8430351,11.2717608 14.7722439,11.2416941 C14.7561399,11.2350941 14.740515,11.2275652 14.7248705,11.220183 C14.6418864,11.1833207 14.5603397,11.1447963 14.481208,11.1012851 C14.4773262,11.0993784 14.4743831,11.0976673 14.470472,11.0957118 C14.2028833,10.9469916 13.9582626,10.7612625 13.743425,10.5441956 C13.7400223,10.5407245 13.7365805,10.5368623 13.7331779,10.5329511 C13.6662782,10.4653377 13.6028204,10.3943021 13.5422665,10.3205287 C13.529575,10.3046887 13.5173625,10.2878709 13.504671,10.2717864 C13.0676331,9.71826581 12.8039751,9.01783393 12.8039751,8.25597799 L13.5451803,8.25597799 C13.564247,8.25597799 13.5827759,8.24574064 13.592583,8.22767129 C13.6023315,8.20980727 13.6008942,8.18858947 13.5901093,8.17272012 L12.3445168,6.28094294 C12.3347683,6.26627626 12.3182341,6.25649847 12.2994412,6.25649847 C12.2809123,6.25649847 12.2643194,6.26627626 12.2545611,6.28094294 L11.00891,8.17245612 C10.9983989,8.18856014 10.9966878,8.20956282 11.0064656,8.22765173 C11.016214,8.24569175 11.0347918,8.25595843 11.0538389,8.25595843 L11.7950638,8.25595843 C11.7950638,9.15165274 12.0709147,9.98198254 12.5393197,10.6684713 C12.5451863,10.6779557 12.5490681,10.6882224 12.5554335,10.6977558 C12.6042442,10.768107 12.6579536,10.8327381 12.7102159,10.8991782 C12.7292532,10.9243071 12.7478115,10.9501205 12.7678266,10.9748583 C12.8444845,11.0690673 12.9260312,11.1574585 13.0095335,11.2441386 C13.0178153,11.2526453 13.0251487,11.2612008 13.0329513,11.2687786 C13.314229,11.5538989 13.6321049,11.7941392 13.9782875,11.9859794 C13.9870875,11.9916994 13.9958582,11.9970283 14.0056164,12.0021616 C14.1052325,12.0563795 14.2077722,12.1054151 14.3117785,12.1517618 C14.3376408,12.1630063 14.3625448,12.1754729 14.3888959,12.1866685 C14.477776,12.2238241 14.5690712,12.2565308 14.6608847,12.287722 C14.7043274,12.302682 14.7473203,12.3178375 14.7912715,12.3314776 C14.8718111,12.3556776 14.9538761,12.3756243 15.0363517,12.3957176 C15.0915474,12.4086732 15.1457652,12.4225577 15.2019093,12.4333132 C15.2248088,12.4381532 15.2467893,12.4452421 15.2697378,12.4489088 C15.3478819,12.462891 15.4260064,12.4706644 15.5041309,12.4803933 C15.5324376,12.4835711 15.560275,12.4884111 15.5880928,12.4916377 C15.7287463,12.5055222 15.8683731,12.51486 16.0080195,12.51486 C16.8630577,12.51486 17.6970053,12.2501264 18.4123972,11.7426102 C18.6404152,11.5804945 18.6960509,11.2624719 18.5363307,11.0312272 C18.3763074,10.799787 18.061267,10.743858 17.833249,10.9059738 Z M20.2053894,8.25597799 C20.2049494,7.36292368 19.9309758,6.53435388 19.464673,5.84930247 C19.4577797,5.83756912 19.4529886,5.82562066 19.4456063,5.81488465 C19.3874774,5.73113789 19.3244595,5.65301336 19.2615395,5.57464439 C19.2542061,5.56511104 19.2473617,5.55511814 19.2395883,5.5458488 C18.8127879,5.02171045 18.2771117,4.6166949 17.6697155,4.35202972 C17.6530933,4.34469638 17.636471,4.33641459 17.6198488,4.32908125 C17.5227065,4.28882609 17.4236575,4.25318605 17.3240218,4.2192278 C17.2878929,4.20726956 17.2522039,4.19407932 17.2155861,4.18309887 C17.1287105,4.15648373 17.0403682,4.13477704 16.9514392,4.11401879 C16.9021591,4.10252989 16.8532702,4.0898481 16.8035501,4.08007031 C16.7785679,4.07518142 16.7556878,4.06787741 16.7312434,4.06349696 C16.6648522,4.05174406 16.5979232,4.04660094 16.531532,4.03807471 C16.4855764,4.03223737 16.4401586,4.02490403 16.393763,4.02001513 C16.2820029,4.00953334 16.1711228,4.00513334 16.0602915,4.00317778 C16.0402959,4.00317778 16.0202515,4 16.0002363,4 C15.9968337,4 15.9933919,4.00097778 15.9895297,4.00122222 C15.136007,4.00195556 14.3034772,4.26292473 13.5890924,4.7697564 C13.3605855,4.93135391 13.3049303,5.24994359 13.4646211,5.4811394 C13.6242631,5.71233521 13.9396945,5.7685086 14.1677419,5.60639287 C14.7195025,5.21503688 15.3635361,5.01703667 16.0236835,5.02293267 C16.1189191,5.02363667 16.2121992,5.0282909 16.3044527,5.03706158 C16.3332972,5.04046425 16.361115,5.04463936 16.3894217,5.04830604 C16.4656395,5.05759493 16.5408307,5.06856561 16.6149952,5.08345718 C16.6477508,5.08978341 16.6804086,5.09836831 16.7121376,5.10567232 C16.7849332,5.12224567 16.8577777,5.14009014 16.9290578,5.16181638 C16.9514489,5.16912039 16.973449,5.17718706 16.9958401,5.1847453 C17.0773869,5.21163421 17.1570269,5.24064491 17.2355915,5.27362539 C17.2435115,5.27702806 17.2517737,5.28117385 17.2595471,5.28435163 C17.7297609,5.48919629 18.1423836,5.80459842 18.4642195,6.19886818 C18.4660773,6.20134196 18.4680817,6.20449041 18.4699884,6.20669041 C18.92314,6.76502169 19.196087,7.47884914 19.196087,8.25590954 L18.4548328,8.25590954 C18.4358639,8.25590954 18.4172372,8.26615666 18.4075083,8.28421624 C18.3977305,8.30225626 18.3991483,8.32329806 18.4100016,8.33941186 L19.6559852,10.2309641 C19.6653719,10.2455819 19.6819942,10.2550664 19.7009631,10.2550664 C19.719492,10.2550664 19.7361142,10.2455819 19.745892,10.2309641 L20.9910445,8.33941186 C21.0017512,8.32329806 21.0032178,8.30225626 20.9934889,8.28421624 C20.9836622,8.26615666 20.9651822,8.25590954 20.9460666,8.25590954 L20.2053992,8.25590954 L20.2053992,8.25597799 L20.2053894,8.25597799 Z" id="随机_hover"></path>
                    </g>
                </g>
            </g>
        </g>
    </g>
</svg>