<svg xmlns="http://www.w3.org/2000/svg" width="14" height="14" viewBox="0 0 14 14">
  <g fill="none" fill-rule="evenodd">
    <path stroke="#2CA7F8" d="M9.6081111,1.55980423 C9.60655162,1.56037611 9.6051486,1.56092338 9.60390776,1.56144349 C9.60737666,1.55998947 9.61084956,1.55847044 9.61432208,1.55688095 Z M9.7613614,1.5265264 C9.56932264,2.72399813 9.24407118,3.47502903 8.39580392,4.22508594 C7.42142518,5.08635395 6.2252605,5.77577474 4.98879552,6.19041877 L4.57147252,6.33036653 L4.5,6.18266347 L4.5,11.3702744 L4.5340697,11.2857067 L4.91533551,11.3325977 C5.97689687,11.4631565 6.46197529,11.6253456 7.17548075,11.999076 C7.19667772,12.0101752 7.19667772,12.0101752 7.21760174,12.0211173 C7.90719851,12.3814971 8.39221176,12.5 9.69921975,12.5 C10.9726911,12.5 10.9726911,12.5 12.2461625,12.5 C12.5223049,12.5 12.7461625,12.2761424 12.7461625,12 L12.7461625,6 C12.7461625,5.72385763 12.5223049,5.5 12.2461625,5.5 L10.2581387,5.5 L10.6758551,4.75537463 C11.3499521,3.55372265 11.3439834,2.7700095 10.880026,1.96588577 C10.7075846,1.66740197 10.3718738,1.5 10.0615024,1.5 C9.99577064,1.5 9.86855761,1.51017008 9.7613614,1.5265264 Z"/>
    <rect width="3" height="1" x="10" y="8" fill="#2CA7F8"/>
    <rect width="3" height="1" x="10" y="10" fill="#2CA7F8"/>
    <path stroke="#2CA7F8" d="M1.5,12.5 L1.5,5.5 L4.5,5.5 L4.5,12.5 L1.5,12.5 Z"/>
  </g>
</svg>
