<svg xmlns="http://www.w3.org/2000/svg" xmlns:xlink="http://www.w3.org/1999/xlink" width="100" height="28" viewBox="0 0 100 28">
  <defs>
    <polygon id="支付宝-a" points="0 .101 14.905 .101 14.905 15.503 0 15.503"/>
  </defs>
  <g fill="none" fill-rule="evenodd">
    <g fill="#01A9EE" transform="translate(4 2)">
      <path d="M0.00747774481,11.9643418 C0.00754896142,9.32954065 0.0321186944,6.6944546 0.000284866469,4.06008071 C-0.028272997,1.69113116 1.94150742,-0.0112308605 4.04902077,0.000591097923 C9.3184095,0.0300747774 14.5882255,0.0327810089 19.8576142,9.25816024e-05 C22.1361899,-0.0140795252 23.9710148,1.81497685 23.9549199,4.10138635 C23.927003,8.05333887 23.9474421,12.0057187 23.9472285,15.9578849 C23.9472285,16.3815525 23.9451632,16.3850421 23.547632,16.260057 C21.1821721,15.5166267 18.8167122,14.7727691 16.4523917,14.0255644 C16.0525816,13.8992261 16.0567834,13.8926742 16.2588249,13.5281163 C17.0110148,12.1709412 17.5550386,10.7322944 17.951003,9.23396795 C18.0195846,8.9744546 17.9526409,8.90423501 17.6897092,8.90615786 C16.3130208,8.91619941 14.9360475,8.89939228 13.5595727,8.91968902 C13.2195846,8.92467418 13.1234421,8.81599763 13.1514303,8.49630623 C13.1762136,8.21357626 13.1804154,7.92457923 13.1507181,7.64284629 C13.1141128,7.2948819 13.2656617,7.23505994 13.5765223,7.23748131 C15.2854362,7.25087003 16.9945638,7.24396202 18.7036202,7.24417567 C19.1607596,7.24424688 19.1607596,7.24460297 19.1457329,6.80092344 C19.1267181,6.2401638 19.1267181,6.24030623 18.5802018,6.24030623 C16.9187181,6.24037745 15.2570208,6.22691751 13.5958932,6.25056142 C13.2149555,6.25597389 13.1370445,6.13212819 13.1499347,5.78594421 C13.1746469,5.12220534 13.1488665,4.45682849 13.1611157,3.79237745 C13.1654599,3.55864451 13.0867656,3.48372463 12.8546706,3.48842493 C12.2258991,3.50131513 11.5967003,3.48913709 10.9677151,3.49383739 C10.5228249,3.49718457 10.3820297,3.6438908 10.3788249,4.1037365 C10.3746944,4.69711335 10.3647953,5.29091751 10.3835964,5.88379585 C10.3923561,6.16032997 10.3152997,6.24977804 10.0270861,6.24728546 C8.42492582,6.233327 6.82248071,6.25269792 5.22053412,6.23097685 C4.85626113,6.22599169 4.71197626,6.31992641 4.7751454,6.68327359 C4.78710979,6.75235371 4.78582789,6.82684629 4.77493175,6.89635371 C4.72871217,7.1907632 4.87064688,7.25101246 5.13891988,7.24930326 C6.75297329,7.23904807 8.36716914,7.25122611 9.98115134,7.23762374 C10.2863858,7.23505994 10.4125816,7.30898279 10.3841662,7.63316083 C10.3562493,7.95114303 10.3640831,8.27432404 10.3826706,8.59373056 C10.3971988,8.84441306 10.3088902,8.91869199 10.0594896,8.91655549 C8.77780415,8.90530326 7.49583383,8.92011632 6.2142908,8.90423501 C5.90214837,8.9003181 5.77232047,8.96263264 5.79154896,9.30910148 C5.82530564,9.91900059 5.7330089,9.84479288 6.32289614,9.84514896 C9.10013056,9.84671573 11.877365,9.84586113 14.6545282,9.84600356 C15.0909436,9.84607478 15.0925104,9.84685816 14.9554184,10.2747988 C14.6797389,11.1355228 14.3267893,11.9635585 13.9261958,12.7737899 C13.8019228,13.0252558 13.6807834,13.0852914 13.4065994,12.9893626 C11.9727953,12.4875703 10.5303739,12.0126979 9.01374481,11.8166386 C7.57260534,11.6303359 6.13488427,11.4984427 4.70748961,11.9189056 C2.47741246,12.5758077 1.19116914,14.8649234 1.88930564,17.0405911 C2.3515727,18.481232 3.44403561,19.3411727 4.84849852,19.7310837 C7.675727,20.5158908 10.2478576,19.9264309 12.5369021,18.0984427 C13.2254955,17.548508 13.8320475,16.9127573 14.3955846,16.237695 C14.5449258,16.05887 14.6661365,16.0407098 14.8761543,16.140057 C17.7727478,17.5102647 20.7184807,18.7703715 23.6602255,20.0390243 C23.9134006,20.1482706 23.9592641,20.2737543 23.9148249,20.5246504 C23.5496261,22.587511 21.9532344,23.9403418 19.8510623,23.9415525 C14.5814599,23.9445436 9.31185757,23.9448285 4.04225519,23.9419086 C1.75128783,23.9406267 0.0143857567,22.2030125 0.00890207715,19.9043537 C0.00256379822,17.2576593 0.00740652819,14.6110362 0.00747774481,11.9643418"/>
      <path d="M6.57756691,13.1096414 C8.88156691,13.1377008 10.8970684,13.7998017 12.8431337,14.7253328 C12.9555135,14.7787453 13.1143978,14.8169886 12.9662672,14.9993031 C11.7291633,16.5212735 10.3056144,17.7857245 8.32322863,18.218223 C7.25013664,18.4523833 6.17355504,18.3941281 5.1327954,18.0147572 C4.00614851,17.6040509 3.26414258,16.6570836 3.27610697,15.6061399 C3.28785771,14.5742824 3.90943635,13.9299856 4.7629675,13.478045 C5.36531765,13.1589945 6.02435623,13.0799441 6.57756691,13.1096414"/>
    </g>
    <g transform="translate(33 2)">
      <g transform="translate(0 .064)">
        <mask id="支付宝-b" fill="#fff">
          <use xlink:href="#支付宝-a"/>
        </mask>
        <path fill="#DCDCDC" d="M9.2038961,11.6302962 C10.8148571,12.5877016 12.4931106,13.3855395 14.2425841,14.0393773 C14.7788292,14.23968 15.0377875,14.8067286 14.8373501,15.3105989 C14.7153334,15.61728 14.4963056,15.4285232 14.344963,15.3915503 C12.1355702,14.8499286 10.0163808,14.0675286 8.02758691,12.9659935 C7.66101309,12.7629665 7.39603259,12.7514205 7.02225822,12.9567827 C5.05022201,14.0398962 2.95446713,14.8217773 0.76235571,15.3401773 C0.551706685,15.3898638 0.21524429,15.7249557 0.0686147632,15.2565016 C-0.114803064,14.6707719 0.080397493,14.1899935 0.522249861,14.0552043 C2.15232507,13.5578205 3.70790724,12.8903611 5.19226936,12.0597016 C5.87291838,11.6788151 5.87959526,11.6636368 5.23913844,11.1836368 C4.06610223,10.3043286 3.12570947,9.20136649 2.18492396,8.09853405 C2.09118579,7.9887827 2.06775125,7.82272865 1.98710501,7.69844757 C1.82450334,7.44780973 1.81900474,7.31172324 2.18282925,7.31963676 C2.79330557,7.33299892 3.40456741,7.33286919 4.01517465,7.32067459 C4.29652006,7.31496649 4.43791281,7.46921514 4.58977911,7.67133405 C5.31062033,8.63055568 6.17390167,9.45291243 7.12358969,10.1864043 C7.29679582,10.3202854 7.44407994,10.5283719 7.72424708,10.2689124 C8.79935571,9.27323676 9.75781532,8.19609081 10.3926426,6.86285838 C10.6018515,6.42320432 10.5888905,6.22925838 9.99504095,6.23470703 C7.22465933,6.26052324 4.45375404,6.23328 1.6832415,6.25611243 C1.21036128,6.26000432 1.05430557,6.16413405 1.04396295,5.66532324 C1.0327039,5.12357189 1.31221643,5.15535568 1.68180139,5.15859892 C2.90340864,5.16936649 4.12553955,5.14679351 5.34675404,5.1711827 C5.75705487,5.17922595 5.85589889,5.04378811 5.85629164,4.65265297 C5.857339,3.4025773 5.87409666,3.40244757 4.59030279,3.40231784 C3.2812415,3.40231784 1.97191838,3.38441514 0.663511699,3.41360432 C0.246010306,3.42294486 0.139180223,3.29347459 0.163531198,2.9033773 C0.185132869,2.55544216 0.154235933,2.30013405 0.667177437,2.31193946 C2.1934337,2.34722595 3.72152284,2.30026378 5.24804095,2.32971243 C5.74985432,2.33931243 5.87920251,2.18156108 5.86192117,1.70182054 C5.79214123,-0.223498378 5.96809666,0.135334054 7.43701031,0.114707027 C8.92621643,0.0939502703 8.96038635,0.106144865 8.92438357,1.56962595 C8.90880418,2.20296649 9.10452841,2.35500973 9.72469276,2.33464216 C11.2064365,2.28586378 12.6915841,2.33905297 14.1743752,2.30895568 C14.6591691,2.29922595 14.6856148,2.52352865 14.6968738,2.89663135 C14.7087875,3.29126919 14.5850688,3.41853405 14.179612,3.41282595 C12.6309685,3.39129081 11.0812777,3.4239827 9.53302702,3.39064216 C9.02780975,3.37974486 8.91469554,3.54203676 8.92569276,4.01593946 C8.95240028,5.16249081 8.92778747,5.16288 10.106846,5.16288 C11.1976649,5.16275027 12.2892694,5.18662054 13.3790409,5.15172324 C13.8546705,5.13628541 13.8672387,5.27587459 13.7394616,5.66363676 C12.9758097,7.98086919 11.519988,9.79085838 9.60018858,11.2626422 C9.46154513,11.3690205 9.33219694,11.4722854 9.2038961,11.6302962" mask="url(#支付宝-b)"/>
      </g>
      <path fill="#DCDCDC" d="M46.9169448 14.9948757L46.2093265 14.9948757C41.9337666 14.994227 37.6582067 14.9874811 33.3827777 15.0020108 32.9354267 15.0034378 32.7387861 14.9560865 32.7387861 14.424973 32.738917 13.8760865 33.0203933 13.9151351 33.3830396 13.9166919 34.8444908 13.9233081 36.3062039 13.9054054 37.7672624 13.9296649 38.1678752 13.9362811 38.293034 13.8331459 38.2842624 13.4278703 38.2586022 12.2612108 38.2634462 11.0933838 38.2857025 9.92646486 38.293034 9.54454054 38.1483682 9.45269189 37.7899114 9.45697297 36.284995 9.47435676 34.7795549 9.45528649 33.2746384 9.47798919 32.8901287 9.48382703 32.7233376 9.41156757 32.7520089 8.98735135 32.7767526 8.62203243 32.7220284 8.33896216 33.2722819 8.35271351 34.7765437 8.39020541 36.2825075 8.34856216 37.7871621 8.37217297 38.1945827 8.37865946 38.2891064 8.26748108 38.2871426 7.86817297 38.2799421 6.28054054 38.296307 6.28054054 36.7022345 6.28054054 35.5678195 6.28041081 34.4326189 6.25290811 33.299644 6.29260541 32.7994017 6.31011892 32.7571148 6.10281081 32.7433682 5.69416216 32.729229 5.26903784 32.8825354 5.21208649 33.2645577 5.21325405 37.4963905 5.22726486 41.7282234 5.22583784 45.9600563 5.21571892 46.3576579 5.21481081 46.5921343 5.22856216 46.5859811 5.74488649 46.5799588 6.24252973 46.3791287 6.29429189 45.9626747 6.28819459 44.5014852 6.26717838 43.0395103 6.29403243 41.5784518 6.27042162 41.1545354 6.26354595 41.0247944 6.37952432 41.0232234 6.81087568 41.0175939 8.36555676 41.0004435 8.36581622 42.5569421 8.3652973 43.7130897 8.36503784 44.8702847 8.39189189 46.0249922 8.3496 46.5508947 8.3304 46.5507638 8.58233514 46.5710563 8.9700973 46.5930507 9.39094054 46.4428864 9.46877838 46.0501287 9.46345946 44.5670758 9.44348108 43.0832373 9.47941622 41.6004462 9.45476757 41.1322791 9.44685405 41.010917 9.60019459 41.022176 10.0434811 41.0504546 11.1668108 41.0450869 12.2914378 41.0246635 13.415027 41.0175939 13.8083676 41.1432763 13.9532757 41.5479476 13.9345946 42.1575075 13.9067027 42.7698167 13.9105946 43.3795075 13.9355027 43.7608752 13.9510703 43.8323571 13.8226378 43.7164936 13.4846919 43.5482624 12.9947027 43.4092262 12.4948541 43.2553961 11.9999351 43.1739643 11.7380108 43.2197861 11.5954378 43.5445967 11.6030919 44.1768056 11.6182703 44.8095382 11.6110054 45.4420089 11.6034811 45.782137 11.5995892 45.9549504 11.7727784 46.0454156 12.0804973 46.3242735 13.031027 46.6122958 13.9789622 46.9169448 14.9948757M24.123254 4.10150919C23.2297304 4.10150919 22.3355521 4.08230919 21.4429448 4.10994162 21.032644 4.12278486 20.9813237 3.93545514 20.9997833 3.60594162 21.0168028 3.30029838 20.948332 3.01787676 21.4439922 3.02501189 23.2089142 3.05004973 24.9748836 3.01074162 26.7394128 3.04745514 27.2780145 3.05874162 27.4141705 2.88710919 27.3779058 2.39219027 27.338761 1.85523892 27.3868084 1.31232 27.3648139.773422703 27.3529003.480233514 27.4696802.384622703 27.7398975.410438919 27.7614992.412384865 27.7834936.409271351 27.8052262.410179459 28.4993599.441184865 29.3858139.130222703 29.8339504.521357838 30.259307.892774054 29.9595019 1.7862227 29.9578 2.44836324 29.9568836 2.87478486 30.0400173 3.11543351 30.5240256 3.03318486 30.9932401 2.95340108 30.9856468 3.2502227 30.9941565 3.58103351 31.0033209 3.9344173 30.9598557 4.17610378 30.5111955 4.09930378 30.0343877 4.01770378 29.9509922 4.2560173 29.9540033 4.69087135 29.9749504 7.73588757 29.96919 10.7807741 29.9661788 13.82592 29.9652624 14.7831957 29.6274908 15.1223092 28.6851343 15.1289254 27.8134741 15.1350227 26.9406357 15.1062227 26.0702847 15.1421578 25.619268 15.1609686 25.632229 14.9182443 25.658151 14.6225903 25.6817164 14.3530119 25.5291955 14.028947 26.0651788 14.0209038 27.3735855 14.0009254 27.3725382 13.971347 27.3716217 12.6551092 27.3699198 10.0202984 27.3557805 7.38548757 27.3786914 4.75106595 27.3828808 4.25523892 27.2746106 4.06103351 26.7379727 4.08775784 25.8684072 4.13108757 24.9950451 4.09930378 24.123254 4.09930378L24.123254 4.10150919zM17.4746393 11.2476714C17.4743774 10.102547 17.4535613 8.95664432 17.4841964 7.81229838 17.4971574 7.32970378 17.4049903 7.08451459 16.8491072 7.15651459 16.4632883 7.20646054 16.0633301 7.13952 15.6734526 7.17130378 15.2444304 7.20620108 15.2542493 7.03962811 15.3894889 6.72710919 16.2645529 4.7046227 17.1345111 2.68006054 17.9956978.651736216 18.1130014.375671351 18.2729847.262806486 18.5815613.272665946 19.2132465.293163243 19.8466337.28979027 20.4783189.268644324 20.8943802.254763243 20.9002716.409271351 20.7542967.728147027 20.2592911 1.80918486 19.7933496 2.90345514 19.2916671 3.98137946 19.1396699 4.30803892 19.0688426 4.51975784 19.5541602 4.46112 19.9287201 4.41597405 19.9740181 4.61251459 19.9732326 4.9232173 19.9653774 8.25091459 19.9651156 11.5786119 19.9759819 14.9061795 19.9770292 15.2421795 19.8775306 15.3770984 19.5315111 15.3453146 18.8669652 15.2842119 18.0207033 15.6247524 17.5839568 15.2005362 17.2056003 14.8330119 17.4942772 14.0087092 17.4789596 13.3867849 17.4614164 12.6741795 17.4749011 11.9607957 17.4746393 11.2476714M35.466763 1.60117622C36.1420443 1.60117622 36.8205986 1.56070054 37.4916905 1.61363027 38.0626292 1.65851676 38.2287657 1.43979243 38.1487741.924376216 38.1291362.79788973 38.1562365.664527568 38.1419663.536484324 38.1064872.22176 38.2465708.124592432 38.5547546.132246486 39.2732393.14976 39.9934259.162732973 40.7108632.131078919 41.1112142.113305946 41.1719607.278581622 41.1751028.621327568 41.1837435 1.60234378 41.1976209 1.60195459 42.1590916 1.60208432 43.3137992 1.60208432 44.4682448 1.59845189 45.6226905 1.60480865 46.3272978 1.60883027 46.553788 1.83689514 46.5768298 2.53367351 46.6326014 4.21536 46.6326014 4.21536 44.923451 4.22470054 44.8798549 4.22496 44.8362588 4.22521946 44.7927936 4.22547892 43.7089134 4.23092757 43.6875735 4.23092757 43.685217 3.15923027 43.6844315 2.75226811 43.5561306 2.65795459 43.1615401 2.66080865 40.8309162 2.67715459 38.4998994 2.67339243 36.1691446 2.65678703 35.7871223 2.6540627 35.5890415 2.73540324 35.6427184 3.15339243 35.6672003 3.34448432 35.6236042 3.54452757 35.6503117 3.73497081 35.7083089 4.14738162 35.5292114 4.25531676 35.1361919 4.23754378 34.505685 4.2092627 33.8722978 4.21302486 33.2416599 4.23780324 32.894724 4.25142486 32.7297657 4.18837622 32.753724 3.79114378 32.7890721 3.21047351 32.7834426 2.62500324 32.7532003 2.04368432 32.7330387 1.65514378 32.8837267 1.57938162 33.2453256 1.59417081 33.9847574 1.62439784 34.7261529 1.60325189 35.466763 1.60325189L35.466763 1.60117622zM37.4915334 23.8812324C37.0104053 23.9974703 36.7875808 23.7844541 36.725656 23.3361081 36.6454025 22.7537514 36.3364331 22.4811892 35.717578 22.6071568 35.5298398 22.645427 35.3239039 22.6346595 35.1319763 22.6074162 34.4201685 22.5063568 33.9330181 22.6764324 33.8113942 23.4845189 33.7586337 23.8341405 32.9046476 24.0628541 32.6184582 23.8547676 32.4711741 23.7477405 32.5528677 23.6325405 32.5967256 23.5155243 33.3072242 21.620173 34.0250543 19.7274162 34.7195808 17.8264865 34.8397646 17.4977514 35.0700515 17.5727351 35.2965418 17.564173 35.5333747 17.5552216 35.7543663 17.5221405 35.8693134 17.8353081 36.5601741 19.7169081 37.2683162 21.5922811 37.9725306 23.4690811 38.1926058 24.0558486 37.7192019 23.8349189 37.4915334 23.8812324zM35.3203691 19.2250249C35.0377145 20.0299978 34.7965613 20.7188627 34.553837 21.4069492 34.5057897 21.5427762 34.3958175 21.7589059 34.5908872 21.7787546 35.0627201 21.8264951 35.5459429 21.8257168 36.0181685 21.7796627 36.2383747 21.7581276 36.1134777 21.5427762 36.0680487 21.4092843 35.8343579 20.7217168 35.5979178 20.0350573 35.3203691 19.2250249zM25.1014432 20.6595373C25.1014432 19.795667 25.1166298 18.9314076 25.0943735 18.0679265 25.0846855 17.6905427 25.1727942 17.522413 25.5974961 17.5440778 26.336666 17.5816995 27.0801563 17.536813 27.8193262 17.5750832 28.931485 17.632813 29.6731423 18.3774616 29.710978 19.4202292 29.7502538 20.4990616 29.038315 21.2991049 27.9145045 21.4318184 27.7420838 21.4520562 27.5666521 21.4512778 27.3923986 21.4530941 26.2638749 21.4661968 26.2638749 21.4655481 26.2590309 22.5543697 26.2579836 22.7703697 26.2263011 22.9914292 26.2613875 23.2014616 26.359446 23.7871914 26.1188164 23.9573968 25.5469613 23.9058941 25.2048694 23.8752778 25.0977774 23.7730508 25.1028833 23.445613 25.1175462 22.5170076 25.1079891 21.5881427 25.1079891 20.6595373L25.1014432 20.6595373zM26.2558758 19.5710141C26.4315694 19.8644627 25.8369343 20.6372627 26.8971181 20.5805708 28.0684524 20.5181708 28.5392379 20.2728519 28.5591376 19.5161384 28.5770735 18.8341492 28.0934579 18.4384735 27.2437922 18.4399005 26.2569231 18.4417168 26.2569231 18.4417168 26.2558758 19.5710141zM6.73746964 23.8736432C6.30321058 23.9884541 6.09583454 23.7859459 6.02500724 23.3710703 5.92275933 22.7715892 5.58996267 22.4828108 4.94937493 22.6069622 4.78166741 22.6393946 4.59628579 22.6409514 4.42910195 22.6072216 3.64947799 22.4497297 3.22032479 22.7514811 3.06963677 23.526227 3.00954485 23.8348541 2.09114652 24.0472216 1.87512981 23.8369297 1.74630529 23.7116108 1.85457549 23.5961514 1.8955532 23.4860108 2.58562841 21.6277622 3.28958106 19.774573 3.96368412 17.9107459 4.09421058 17.5500973 4.33379276 17.5734486 4.6215532 17.5504865 4.94112702 17.5249297 5.07623565 17.6479135 5.18188747 17.9388973 5.82875933 19.7204757 6.47824958 21.5017946 7.16832479 23.2671568 7.36548914 23.7719351 7.34925515 23.9913081 6.73746964 23.8736432zM4.67695822 19.4210205C4.63126741 19.4159611 4.5855766 19.4109016 4.54001671 19.4059719 4.30213649 20.0725232 4.06189972 20.7384259 3.82873259 21.4067935 3.78513649 21.5314638 3.63667409 21.74928 3.8505961 21.7736692 4.32138162 21.8269881 4.80277159 21.8115503 5.27827019 21.7896259 5.45959331 21.7810638 5.41508078 21.6126746 5.37253203 21.486707 5.14054318 20.7982314 4.90881616 20.1096259 4.67695822 19.4210205z"/>
      <path fill="#DCDCDC" d="M24.7065777 10.7744822C23.5445387 10.7744822 23.5415276 10.7753903 23.1846418 9.68137946 22.7899203 8.47087135 22.4157532 7.2536173 22.0021794 6.04959568 21.864976 5.65015784 21.972068 5.54157405 22.3618145 5.58490378 22.5126334 5.60163892 22.6665944 5.58827676 22.8191153 5.59087135 24.5934635 5.62044973 24.3249482 5.30689297 24.9007309 7.09884973 25.2174245 8.08453622 25.5314997 9.07100108 25.847146 10.0570768 26.0752072 10.7687741 26.0754691 10.7690335 25.2950596 10.7743524 25.0989426 10.7756497 24.9028256 10.7744822 24.7065777 10.7744822M40.7913655 17.6205146C41.9558919 17.4610768 41.9506552 17.4634119 42.391722 18.3996714 42.6653432 18.9807308 42.9575549 19.5534876 43.2826273 20.2138119 43.5876691 19.5551741 43.8488529 18.9918876 44.109644 18.4286011 44.5547694 17.4669146 44.5546384 17.4669146 45.7474435 17.6124714 45.4035187 18.2823957 45.1169365 18.9588065 44.7275827 19.5713903 44.0177387 20.6881038 43.6379421 21.8708497 43.8372011 23.1883849 43.9377471 23.8537686 43.6108418 23.9277146 43.0688362 23.8964497 42.7251733 23.8767308 42.6581426 23.7287092 42.6992513 23.4506984 42.9368696 21.8468497 42.4167276 20.4464173 41.5599922 19.1195416 41.2592708 18.6539416 41.0495382 18.1308714 40.7913655 17.6205146M12.3336903 20.3271049C12.3327738 21.0394508 12.3628852 21.753613 12.3223003 22.4637535 12.2950691 22.9376562 12.4705008 23.0527265 12.9149716 23.0224995 13.4789716 22.9843589 14.0478156 23.0245751 14.6135175 23.0034292 14.9456596 22.9909751 15.0684618 23.0909968 15.0767097 23.4394508 15.0848267 23.7855697 14.9816624 23.8937643 14.638654 23.8892238 13.6151276 23.8754724 12.5910774 23.8811805 11.5672891 23.8940238 11.2583198 23.8979157 11.1573811 23.7889427 11.1593448 23.4778508 11.1711276 21.6429535 11.1759716 19.807667 11.1538462 17.9728995 11.147693 17.4692886 11.4634702 17.5623049 11.758693 17.5546508 12.0740774 17.5464778 12.3644563 17.5117103 12.3436401 17.9958616 12.3099939 18.7717751 12.3346067 19.5498941 12.3336903 20.3271049M19.2758652 20.6927222C19.2765198 19.8092627 19.3097733 18.9242465 19.2638206 18.0431222 19.237244 17.5332843 19.5132217 17.5635114 19.8606813 17.5489816 20.2394306 17.5330249 20.4664446 17.5746681 20.460815 18.0494789 20.4390825 19.8590789 20.4403916 21.6693276 20.4634334 23.4790573 20.4699794 23.9844843 20.153024 23.8957492 19.8610741 23.8928951 19.5713499 23.8900411 19.2462774 23.9812411 19.2652607 23.4719222 19.2999543 22.5466897 19.2752106 21.6192519 19.2758652 20.6927222"/>
    </g>
  </g>
</svg>
