<svg xmlns="http://www.w3.org/2000/svg" width="16" height="16" viewBox="0 0 16 16">
  <g fill="none" fill-rule="evenodd" transform="translate(0 1)">
    <path stroke="#DDD" stroke-linecap="round" stroke-linejoin="round" d="M3.21660934,11.6310882 L2.29875102,14.397 L5.2242188,12.6673799 C6.08121554,12.9634632 7.01799029,13.127954 8,13.127954 C12.0884173,13.127954 15.4020832,10.3020031 15.4020832,6.81479943 C15.4020832,3.32677333 12.0884173,0.5 8,0.5 C3.91240516,0.5 0.59791679,3.32677333 0.59791679,6.81479943 C0.59791679,8.74509824 1.615292,10.4730734 3.21660934,11.6310882 Z"/>
    <path fill="#DDD" d="M4.7455,6.4148 C4.7455,7.1048 4.1855,7.6648 3.4955,7.6648 C2.8055,7.6648 2.2455,7.1048 2.2455,6.4148 C2.2455,5.7248 2.8055,5.1648 3.4955,5.1648 C4.1855,5.1648 4.7455,5.7248 4.7455,6.4148 Z M9.2504,6.4148 C9.2504,7.1048 8.6904,7.6648 8.0004,7.6648 C7.3104,7.6648 6.7504,7.1048 6.7504,6.4148 C6.7504,5.7248 7.3104,5.1648 8.0004,5.1648 C8.6904,5.1648 9.2504,5.7248 9.2504,6.4148 Z M13.766,6.4148 C13.766,7.1048 13.206,7.6648 12.516,7.6648 C11.826,7.6648 11.266,7.1048 11.266,6.4148 C11.266,5.7248 11.826,5.1648 12.516,5.1648 C13.206,5.1648 13.766,5.7248 13.766,6.4148 Z"/>
  </g>
</svg>
