<svg xmlns="http://www.w3.org/2000/svg" width="16" height="16" viewBox="0 0 16 16">
  <g fill="none" fill-rule="evenodd">
    <path fill="#DDD" d="M2.5,2 L13.5,2 C14.327,2 15,2.673 15,3.5 L15,12.5 C15,13.327 14.327,14 13.5,14 L2.5,14 C1.673,14 1,13.327 1,12.5 L1,3.5 C1,2.673 1.673,2 2.5,2 Z M14,12.5 L14,3.5 C14,3.225 13.776,3 13.5,3 L2.5,3 C2.224,3 2,3.225 2,3.5 L2,12.5 C2,12.775 2.224,13 2.5,13 L13.5,13 C13.776,13 14,12.775 14,12.5 Z"/>
    <polyline stroke="#DDD" stroke-linecap="round" stroke-linejoin="round" points="4.121 5 6.743 7.621 4.121 10.243"/>
    <path stroke="#DDD" stroke-linecap="round" stroke-linejoin="round" d="M6.41666667,11.5 L10.5833333,11.5"/>
  </g>
</svg>
