<svg xmlns="http://www.w3.org/2000/svg" width="16" height="16" viewBox="0 0 16 16">
  <g fill="none" fill-rule="evenodd" transform="translate(0 3)">
    <path stroke="#DDD" stroke-linecap="round" stroke-linejoin="round" d="M11.304163,0 C10.2312598,0 9.44414833,1.14857143 8.0112423,1.14857143 C6.53807281,1.14857143 5.76280354,0 4.71911111,0 C0.860133352,0 -0.967512621,9.15428571 1.90461526,9.38857143 C4.19963334,9.575 4.66147908,6.715 7.99703167,6.715 C10.6946845,6.715 12.0486425,9.35357143 14.0799743,9.35357143 C16.9639444,9.35357143 15.1623513,0 11.304163,0 Z"/>
    <path stroke="#DDD" stroke-linecap="round" stroke-linejoin="round" d="M5.06631129,6.107 C3.84536392,6.107 2.85578497,5.14771429 2.85578497,3.96414286 C2.85578497,2.78057143 3.84536392,1.82128571 5.06631129,1.82128571 C6.28504813,1.82128571 7.2768376,2.78057143 7.2768376,3.96414286 C7.2768376,5.14771429 6.28504813,6.107 5.06631129,6.107 Z"/>
    <path fill="#DDD" d="M9.64681655 4.88564286C9.13765866 4.88564286 8.72502708 4.4835 8.72502708 3.99135714 8.72502708 3.49135714 9.13765866 3.08992857 9.64681655 3.08992857 10.1545008 3.08992857 10.5671323 3.49135714 10.5671323 3.99135714 10.5671323 4.4835 10.1545008 4.88564286 9.64681655 4.88564286M5.03256392 4.87864286C4.52340603 4.87864286 4.11077445 4.47792857 4.11077445 3.98935714 4.11077445 3.49292857 4.52340603 3.09364286 5.03256392 3.09364286 5.54024813 3.09364286 5.95287971 3.49292857 5.95287971 3.98935714 5.95287971 4.47792857 5.54024813 4.87864286 5.03256392 4.87864286M11.321585 6.49071429C10.8124271 6.49071429 10.3997955 6.08928571 10.3997955 5.59214286 10.3997955 5.09571429 10.8124271 4.69357143 11.321585 4.69357143 11.8292692 4.69357143 12.2419008 5.09571429 12.2419008 5.59214286 12.2419008 6.08928571 11.8292692 6.49071429 11.321585 6.49071429M11.3208481 3.27357143C10.8102166 3.27357143 10.3997955 2.87142857 10.3997955 2.37357143 10.3997955 1.87714286 10.8102166 1.47428571 11.3208481 1.47428571 11.830006 1.47428571 12.2419008 1.87714286 12.2419008 2.37357143 12.2419008 2.87142857 11.830006 3.27357143 11.3208481 3.27357143M12.9658481 4.88421429C12.4603744 4.88421429 12.0477429 4.48135714 12.0477429 3.98921429 12.0477429 3.48992857 12.4603744 3.0885 12.9658481 3.0885 13.4779534 3.0885 13.8898481 3.48992857 13.8898481 3.98921429 13.8898481 4.48135714 13.4779534 4.88421429 12.9658481 4.88421429"/>
  </g>
</svg>
