<svg xmlns="http://www.w3.org/2000/svg" width="16" height="16" viewBox="0 0 16 16">
  <g fill="none" fill-rule="evenodd" transform="translate(0 .5)">
    <path stroke="#DDD" stroke-linecap="round" stroke-linejoin="round" d="M15.125 2.9839L.875 2.9839C.668 2.9839.5 2.7599.5 2.4839L.5 1.4839C.5 1.2079.668.9839.875.9839L15.125.9839C15.332.9839 15.5 1.2079 15.5 1.4839L15.5 2.4839C15.5 2.7599 15.332 2.9839 15.125 2.9839zM12.8125 10.9839L3.1875 10.9839C2.808 10.9839 2.5 10.6859 2.5 10.3172333L2.5 2.9839 13.5 2.9839 13.5 10.3172333C13.5 10.6859 13.192 10.9839 12.8125 10.9839zM8.5 11L8.5 15M7.9141 11.0699L5.0861 13.8979M9.0859 11.0699L11.9139 13.8979"/>
    <path fill="#DDD" d="M8,5.5 L8,7.5 L10,7.5 C10,8.6045695 9.1045695,9.5 8,9.5 C6.8954305,9.5 6,8.6045695 6,7.5 C6,6.3954305 6.8954305,5.5 8,5.5 Z"/>
    <path fill="#DDD" d="M9,4.5 L9,4.5 C10.1045695,4.5 11,5.3954305 11,6.5 L9,6.5 L9,4.5 Z"/>
  </g>
</svg>
