<svg xmlns="http://www.w3.org/2000/svg" width="16" height="16" viewBox="0 0 16 16">
  <g fill="none" fill-rule="evenodd">
    <path stroke="#DDD" stroke-linecap="round" stroke-linejoin="round" d="M8.00036727,0.5 C3.86458381,0.5 0.500078707,3.86371808 0.500078707,7.99950155 C0.500078707,12.135285 3.86458381,15.4990031 8.00036727,15.4990031 C12.1353637,15.4990031 15.4998688,12.135285 15.4998688,7.99950155 C15.4998688,3.86371808 12.1353637,0.5 8.00036727,0.5"/>
    <path fill="#DDD" d="M12.5 9.5C11.671 9.5 11 8.828 11 8 11 7.171 11.671 6.5 12.5 6.5 13.329 6.5 14 7.171 14 8 14 8.828 13.329 9.5 12.5 9.5M8 9.5C7.172 9.5 6.5 8.828 6.5 8 6.5 7.171 7.172 6.5 8 6.5 8.829 6.5 9.5 7.171 9.5 8 9.5 8.828 8.829 9.5 8 9.5M3.5 9.5C2.672 9.5 2 8.828 2 8 2 7.171 2.672 6.5 3.5 6.5 4.329 6.5 5 7.171 5 8 5 8.828 4.329 9.5 3.5 9.5"/>
  </g>
</svg>
