<svg xmlns="http://www.w3.org/2000/svg" width="16" height="16" viewBox="0 0 16 16">
  <g fill="none" fill-rule="evenodd">
    <path stroke="#DDD" stroke-linecap="round" stroke-linejoin="round" d="M8.00036727,0.5 C3.86458381,0.5 0.500078707,3.86371808 0.500078707,7.99950155 C0.500078707,12.135285 3.86458381,15.4990031 8.00036727,15.4990031 C12.1353637,15.4990031 15.4998688,12.135285 15.4998688,7.99950155 C15.4998688,3.86371808 12.1353637,0.5 8.00036727,0.5"/>
    <path fill="#DDD" d="M12.1584035,9.626 L9.00640348,12.88 L9.00640348,2.5 C9.00640348,2.224 8.78440348,2 8.50640348,2 C8.22840348,2 8.00640348,2.224 8.00640348,2.5 L8.00640348,12.883 L4.83940348,9.625 C4.63440348,9.443 4.31640348,9.459 4.12740348,9.665 C3.94340348,9.87 3.96040348,10.187 4.16740348,10.37 L8.17140348,14.373 C8.26640348,14.458 8.38740348,14.5 8.50640348,14.5 C8.62640348,14.5 8.74740348,14.457 8.84340348,14.372 L12.8324035,10.369 C13.0384035,10.186 13.0554035,9.869 12.8694035,9.664 C12.6834035,9.458 12.3654035,9.441 12.1584035,9.626" transform="matrix(1 0 0 -1 0 16.5)"/>
  </g>
</svg>
