<?xml version="1.0" encoding="UTF-8"?>
<svg width="48px" height="48px" viewBox="0 0 48 48" version="1.1" xmlns="http://www.w3.org/2000/svg" xmlns:xlink="http://www.w3.org/1999/xlink">
    <!-- Generator: Sketch 50.2 (55047) - http://www.bohemiancoding.com/sketch -->
    <title>appstore_icon_unkown_48</title>
    <desc>Created with Sketch.</desc>
    <defs>
        <linearGradient x1="50%" y1="92.4095403%" x2="50%" y2="0%" id="linearGradient-1">
            <stop stop-color="#8E8E8E" offset="0%"></stop>
            <stop stop-color="#C2C2C2" offset="100%"></stop>
        </linearGradient>
        <circle id="path-2" cx="24" cy="24" r="21"></circle>
        <filter x="-8.3%" y="-6.0%" width="116.7%" height="116.7%" filterUnits="objectBoundingBox" id="filter-3">
            <feOffset dx="0" dy="1" in="SourceAlpha" result="shadowOffsetOuter1"></feOffset>
            <feGaussianBlur stdDeviation="1" in="shadowOffsetOuter1" result="shadowBlurOuter1"></feGaussianBlur>
            <feColorMatrix values="0 0 0 0 0   0 0 0 0 0   0 0 0 0 0  0 0 0 0.2 0" type="matrix" in="shadowBlurOuter1"></feColorMatrix>
        </filter>
    </defs>
    <g id="appstore_icon_unkown_48" stroke="none" stroke-width="1" fill="none" fill-rule="evenodd">
        <g id="Oval">
            <use fill="black" fill-opacity="1" filter="url(#filter-3)" xlink:href="#path-2"></use>
            <use fill="url(#linearGradient-1)" fill-rule="evenodd" xlink:href="#path-2"></use>
        </g>
        <path d="M28.8632706,22.1804273 C28.1233139,21.8701229 27.6019523,21.1464981 27.6019523,20.2947313 C27.6019523,19.4417083 28.1245702,18.7180834 28.8645269,18.4090353 C28.9625177,18.3675776 29.0228198,18.2658179 28.997694,18.1615456 C28.7740738,17.2406827 28.4097488,16.3750967 27.9285885,15.5886572 C27.8733116,15.4982041 27.7589889,15.4680531 27.6597418,15.5095107 C26.9172725,15.8135337 26.036611,15.6715726 25.4335903,15.0685518 C24.8305696,14.4655311 24.6886085,13.5861259 24.9926314,12.8436567 C25.0328328,12.7456658 25.0039381,12.6313432 24.913485,12.57481 C24.1257892,12.0936497 23.2602032,11.7293247 22.3393403,11.5057045 C22.235068,11.4805786 22.1333082,11.5408807 22.0918506,11.6388716 C21.7828025,12.3800845 21.0579213,12.9039588 20.2048983,12.9039588 C19.3531315,12.9039588 18.6295067,12.3813408 18.3192023,11.6413842 C18.2777446,11.5433933 18.1759849,11.4830912 18.0717125,11.5082171 C17.1508497,11.7330936 16.2840074,12.0986749 15.4975679,12.5810914 C15.4071148,12.6363683 15.3794763,12.7494347 15.4184214,12.8461693 C15.7211881,13.5886385 15.5792269,14.4680437 14.9762062,15.0710644 C14.3744418,15.6728288 13.4962929,15.8160463 12.75508,15.5145359 C12.6570891,15.4743345 12.545279,15.5032293 12.4900021,15.5936824 C12.0088418,16.3813782 11.6445168,17.2482204 11.4221529,18.1690833 C11.3970271,18.2720994 11.4573292,18.3751154 11.55532,18.4165731 C12.2927641,18.7268775 12.8141257,19.4505023 12.8141257,20.3010128 C12.8141257,21.1515232 12.2952767,21.8726355 11.5590889,22.1841962 C11.461098,22.2256539 11.400796,22.3274136 11.4259218,22.4316859 C11.649542,23.3525488 12.0163796,24.2181348 12.4987962,25.0058306 C12.5540731,25.0950274 12.6658831,25.1239221 12.763874,25.084977 C13.505087,24.784723 14.3819796,24.9291967 14.9824877,25.5297048 C15.5829958,26.1289566 15.7262132,27.0058493 15.4272155,27.7458059 C15.3882704,27.8437968 15.4171651,27.9556069 15.5063619,28.0108838 C16.2940577,28.4933003 17.1609,28.8576253 18.0817629,29.0812455 C18.1847789,29.1063714 18.2877949,29.0460693 18.3292526,28.9480784 C18.6408133,28.2118907 19.3631819,27.6930416 20.212436,27.6930416 C21.0629465,27.6930416 21.7840588,28.2118907 22.0956194,28.9480784 C22.1370771,29.0460693 22.2388369,29.1063714 22.3431092,29.0812455 C23.2639721,28.8576253 24.1308143,28.4933003 24.9185101,28.0108838 C25.0089632,27.9556069 25.0366017,27.8437968 24.9976566,27.7458059 C24.6961462,27.004593 24.8393637,26.1264441 25.4411281,25.5246796 C26.0428925,24.9229152 26.9222977,24.7809541 27.6635106,25.0824645 C27.7615015,25.1226658 27.8733116,25.0937711 27.9285885,25.003318 C28.4110051,24.2156222 28.7765864,23.3500362 29.0002065,22.4279171 C29.0228198,22.3236447 28.9625177,22.221885 28.8632706,22.1804273 L28.8632706,22.1804273 Z M20.2099234,24.690501 C17.7852777,24.690501 15.8128975,22.7181208 15.8128975,20.293475 C15.8128975,17.8688293 17.7852777,15.896449 20.2099234,15.896449 C22.6345692,15.896449 24.6069494,17.8688293 24.6069494,20.293475 C24.6069494,22.7181208 22.6345692,24.690501 20.2099234,24.690501 Z M36.7339471,30.7006074 C36.7289219,30.7671909 36.6749013,30.8174426 36.6095741,30.8224678 C36.1108257,30.8714632 35.6648416,31.2068935 35.507805,31.7169485 C35.3507684,32.2257472 35.5304183,32.7546467 35.914844,33.0762577 C35.966352,33.1189717 35.9826838,33.1905804 35.9487639,33.2483699 C35.6459972,33.7584249 35.267853,34.2081778 34.8344319,34.5900909 C34.7841801,34.6340612 34.7125714,34.6302923 34.6610634,34.5888346 C34.2728688,34.2722488 33.7213562,34.1956149 33.2515025,34.4443609 C32.7816489,34.693107 32.5354154,35.190599 32.5781294,35.6893474 C32.5844109,35.755931 32.5467221,35.8174893 32.4826511,35.8338211 C31.9236007,35.9757823 31.3394244,36.034828 30.7477103,35.9983955 C30.6811268,35.9946267 30.630875,35.9406061 30.6245936,35.8740225 C30.5730855,35.3765304 30.2376553,34.9343152 29.7301129,34.7772786 C29.2213141,34.620242 28.6949273,34.7986356 28.3733163,35.1805487 C28.3306023,35.2320567 28.2589936,35.2483885 28.2012041,35.2144686 C27.6911491,34.9104457 27.2413961,34.5335577 26.859483,34.1001366 C26.8155128,34.0498849 26.8192816,33.9782762 26.8607393,33.9267682 C27.1748126,33.5398299 27.2514465,32.9895735 27.0027004,32.5209761 C26.7539544,32.0511225 26.2564623,31.8036327 25.7589702,31.8463467 C25.693643,31.8526282 25.6320846,31.8149394 25.6157528,31.7508684 C25.4725354,31.1905617 25.4134896,30.6063854 25.4486658,30.0146713 C25.4524347,29.9480878 25.5064553,29.8978361 25.5730389,29.8915546 C26.0705309,29.8400466 26.5127461,29.5046163 26.6697828,28.9970739 C26.8268194,28.4882752 26.6484258,27.960632 26.2652564,27.639021 C26.2150047,27.596307 26.1974165,27.5246983 26.2313365,27.4669088 C26.5328468,26.9581101 26.910991,26.5071009 27.3431559,26.1251878 C27.3934076,26.0812175 27.4650163,26.0849864 27.5165243,26.1264441 C27.9034626,26.4430299 28.4549753,26.5196638 28.924829,26.2709178 C29.3959389,26.0221717 29.6421723,25.5221671 29.5982021,25.0234187 C29.5919206,24.9580914 29.6296094,24.8952768 29.6936804,24.878945 C30.2527308,24.7357275 30.8381634,24.6766818 31.4298775,24.711858 C31.496461,24.7156269 31.5467127,24.7709038 31.5529942,24.8374873 C31.6019896,25.337492 31.9386762,25.7822197 32.4474749,25.9392564 C32.9575299,26.096293 33.4864293,25.9166431 33.8080404,25.5309611 C33.8507543,25.4807094 33.9223631,25.4631213 33.9801525,25.4970412 C34.4902076,25.7998078 34.9399605,26.1779521 35.3218736,26.6101169 C35.3658439,26.6591123 35.3633313,26.7332336 35.3206173,26.7847417 C35.0027752,27.1729362 34.9261413,27.7244489 35.1748873,28.1955589 C35.4236334,28.6666688 35.923638,28.9141585 36.4236427,28.868932 C36.4902262,28.8626505 36.5530409,28.9015956 36.5693727,28.9656665 C36.7113338,29.524717 36.7703796,30.1088933 36.7339471,30.7006074 Z M30.2803692,32.983292 C31.7288752,33.4292761 33.2716032,32.6139418 33.7175873,31.1654358 C34.1635713,29.7169298 33.3482371,28.1742019 31.8997311,27.7282178 C30.4512251,27.2822337 28.9084971,28.097568 28.4625131,29.546074 C28.016529,30.99458 28.8318633,32.5373079 30.2803692,32.983292 Z" id="Combined-Shape" fill="#FFFFFF"></path>
    </g>
</svg>