<svg xmlns="http://www.w3.org/2000/svg" width="20" height="20" viewBox="0 0 20 20">
  <path fill-rule="evenodd" d="M331.5,1311.78754 C332.939974,1313.15978 334.875793,1314 337.00451,1314 C339.128785,1314 341.060967,1313.16328 342.5,1311.79612 L340.799332,1311.39242 C340.352742,1311.2864 339.965588,1311.00479 339.722538,1310.60917 L339.482528,1310.21849 L338.243519,1309.58824 L339.07111,1309.30759 C339.480589,1309.16872 339.789524,1308.82307 339.88658,1308.3952 L340.102033,1307.44538 C341.01064,1307.61345 341.464943,1307.06723 341.464943,1305.80672 C341.464943,1304.96639 341.175841,1304.54622 340.597637,1304.54622 C340.597637,1303.91597 340.845438,1303.28571 340.845438,1302.02521 C340.845438,1300.13445 339.606429,1299 336.385005,1299 C335.311197,1299 334.691693,1299.58824 334.526491,1300.76471 C333.617885,1300.76471 333.163581,1301.18487 333.163581,1302.02521 C333.163581,1303.28571 333.411383,1303.91597 333.411383,1304.54622 C332.833179,1304.54622 332.544077,1304.96639 332.544077,1305.80672 C332.544077,1307.06723 332.99838,1307.61345 333.906987,1307.44538 L334.122439,1308.3952 C334.219495,1308.82307 334.528431,1309.16872 334.93791,1309.30759 L335.765501,1309.58824 L334.526491,1310.21849 L334.157372,1310.71919 C333.915433,1311.04737 333.568666,1311.27955 333.176692,1311.3758 L331.5,1311.78754 Z M337,1316 C331.477153,1316 327,1311.52285 327,1306 C327,1300.47715 331.477153,1296 337,1296 C342.522847,1296 347,1300.47715 347,1306 C347,1311.52285 342.522847,1316 337,1316 Z" transform="translate(-327 -1296)"/>
</svg>
