<svg xmlns="http://www.w3.org/2000/svg" width="20" height="20" viewBox="0 0 20 20">
  <path fill="#2CA7F8" fill-rule="evenodd" d="M358.5,1311.78754 C359.939974,1313.15978 361.875793,1314 364.00451,1314 C366.128785,1314 368.060967,1313.16328 369.5,1311.79612 L367.799332,1311.39242 C367.352742,1311.2864 366.965588,1311.00479 366.722538,1310.60917 L366.482528,1310.21849 L365.243519,1309.58824 L366.07111,1309.30759 C366.480589,1309.16872 366.789524,1308.82307 366.88658,1308.3952 L367.102033,1307.44538 C368.01064,1307.61345 368.464943,1307.06723 368.464943,1305.80672 C368.464943,1304.96639 368.175841,1304.54622 367.597637,1304.54622 C367.597637,1303.91597 367.845438,1303.28571 367.845438,1302.02521 C367.845438,1300.13445 366.606429,1299 363.385005,1299 C362.311197,1299 361.691693,1299.58824 361.526491,1300.76471 C360.617885,1300.76471 360.163581,1301.18487 360.163581,1302.02521 C360.163581,1303.28571 360.411383,1303.91597 360.411383,1304.54622 C359.833179,1304.54622 359.544077,1304.96639 359.544077,1305.80672 C359.544077,1307.06723 359.99838,1307.61345 360.906987,1307.44538 L361.122439,1308.3952 C361.219495,1308.82307 361.528431,1309.16872 361.93791,1309.30759 L362.765501,1309.58824 L361.526491,1310.21849 L361.157372,1310.71919 C360.915433,1311.04737 360.568666,1311.27955 360.176692,1311.3758 L358.5,1311.78754 Z M364,1316 C358.477153,1316 354,1311.52285 354,1306 C354,1300.47715 358.477153,1296 364,1296 C369.522847,1296 374,1300.47715 374,1306 C374,1311.52285 369.522847,1316 364,1316 Z" transform="translate(-354 -1296)"/>
</svg>
