<?xml version="1.0" encoding="iso-8859-1"?>
<!-- Generator: Adobe Illustrator 18.0.0, SVG Export Plug-In . SVG Version: 6.00 Build 0)  -->
<!DOCTYPE svg PUBLIC "-//W3C//DTD SVG 1.1//EN" "http://www.w3.org/Graphics/SVG/1.1/DTD/svg11.dtd">
<svg version="1.1" id="&#x56FE;&#x5C42;_1" xmlns="http://www.w3.org/2000/svg" xmlns:xlink="http://www.w3.org/1999/xlink" x="0px"
	 y="0px" viewBox="0 0 24 24" style="enable-background:new 0 0 24 24;" xml:space="preserve">
<rect x="11" y="3" style="fill:#B5B5B6;" width="4" height="1"/>
<path style="fill:#B5B5B6;" d="M20.579,4H15v10.546l-1.974-2.455L11,14.546V4H4.5C4.224,4,4,3.776,4,3.5v-1C4,2.224,4.224,2,4.5,2
	h16.091C20.817,2,21,1.726,21,1.5C21,1.274,20.817,1,20.591,1H4.5C3.672,1,3,1.672,3,2.5v18C3,21.328,3.672,22,4.5,22h15
	c0.828,0,1.5-0.672,1.5-1.5V4.421C21,4.189,20.811,4,20.579,4z"/>
</svg>
