<?xml version="1.0" encoding="UTF-8"?>
<svg width="24px" height="24px" viewBox="0 0 24 24" version="1.1" xmlns="http://www.w3.org/2000/svg" xmlns:xlink="http://www.w3.org/1999/xlink">
    <!-- Generator: Sketch 49.3 (51167) - http://www.bohemiancoding.com/sketch -->
    <title>internet_active</title>
    <desc>Created with Sketch.</desc>
    <defs></defs>
    <g id="internet_active" stroke="none" stroke-width="1" fill="none" fill-rule="evenodd">
        <path d="M11.9529,8.2052 C11.5809,8.2052 11.2449,8.0632 10.9849,7.8372 C10.0319,8.5172 9.2249,9.2512 8.5479,10.0062 C8.7229,10.2492 8.8279,10.5462 8.8279,10.8682 C8.8279,11.0242 8.7979,11.1702 8.7539,11.3112 C10.3149,12.4172 12.3629,13.3622 14.9669,13.7132 C15.0989,13.4732 15.2939,13.2762 15.5319,13.1412 C14.8849,11.0002 13.8329,9.3092 12.7059,7.9942 C12.4839,8.1252 12.2289,8.2052 11.9529,8.2052" id="Fill-63" fill="#2CA7F8"></path>
        <path d="M17.658,14.903 C17.554,15.209 17.357,15.472 17.095,15.652 C17.183,16.408 17.203,17.221 17.19,18.061 C16.864,18.341 16.514,18.592 16.146,18.817 C16.202,17.782 16.189,16.8 16.089,15.892 C15.89,15.869 15.706,15.808 15.54,15.715 C14.17,16.575 12.075,18.047 10.489,19.857 C10.106,19.785 9.735,19.684 9.373,19.56 C11.046,17.507 13.335,15.859 14.86,14.895 C14.845,14.852 14.83,14.81 14.819,14.765 C11.996,14.387 9.781,13.35 8.094,12.142 C7.873,12.272 7.62,12.352 7.345,12.352 C7.181,12.352 7.027,12.319 6.88,12.27 C5.944,13.834 5.457,15.289 5.208,16.278 C4.936,15.853 4.704,15.401 4.515,14.926 C4.835,13.966 5.319,12.809 6.06,11.596 C5.938,11.381 5.862,11.134 5.862,10.868 C5.862,10.669 5.903,10.479 5.974,10.304 C5.426,9.73 4.995,9.189 4.646,8.706 C4.807,8.346 4.995,8.002 5.205,7.672 C5.558,8.199 6.048,8.849 6.702,9.538 C6.897,9.443 7.114,9.385 7.345,9.385 C7.453,9.385 7.558,9.398 7.659,9.42 C8.432,8.539 9.366,7.681 10.488,6.898 C10.48,6.839 10.47,6.782 10.47,6.722 C10.47,6.464 10.541,6.225 10.658,6.013 C9.904,5.41 9.209,4.965 8.675,4.661 C9.074,4.48 9.49,4.335 9.92,4.22 C10.383,4.519 10.898,4.882 11.449,5.333 C11.607,5.275 11.775,5.238 11.953,5.238 C12.285,5.238 12.589,5.352 12.836,5.536 C13.548,5.19 14.337,4.888 15.164,4.61 C15.604,4.801 16.024,5.03 16.419,5.294 C15.312,5.607 14.313,5.99 13.406,6.423 C13.426,6.52 13.436,6.62 13.436,6.722 C13.436,6.879 13.406,7.027 13.361,7.168 C14.643,8.623 15.841,10.535 16.553,12.972 C17.039,13.07 17.439,13.612 17.627,14.059 C18.169,14.044 19.07,13.949 19.769,13.853 C19.694,14.162 19.601,14.463 19.492,14.757 C18.863,14.831 18.245,14.886 17.658,14.903 M11.972,3 C7.025,3 3,7.025 3,11.972 C3,16.92 7.025,20.945 11.972,20.945 C16.92,20.945 20.945,16.92 20.945,11.972 C20.945,7.025 16.92,3 11.972,3" id="Fill-64" fill="#2CA7F8"></path>
    </g>
</svg>