<?xml version="1.0" encoding="UTF-8"?>
<svg width="24px" height="24px" viewBox="0 0 24 24" version="1.1" xmlns="http://www.w3.org/2000/svg" xmlns:xlink="http://www.w3.org/1999/xlink">
    <!-- Generator: Sketch 49.3 (51167) - http://www.bohemiancoding.com/sketch -->
    <title>ranking</title>
    <desc>Created with Sketch.</desc>
    <defs></defs>
    <g id="ranking" stroke="none" stroke-width="1" fill="none" fill-rule="evenodd">
        <path d="M17.07,19 L6.872,19 L5.293,11.896 L8.659,14.875 C8.783,14.983 8.953,15.025 9.112,14.985 C9.272,14.945 9.402,14.829 9.46,14.674 L11.972,7.93 L14.495,14.675 C14.552,14.83 14.683,14.945 14.842,14.985 C15.004,15.024 15.172,14.983 15.295,14.874 L18.648,11.899 L17.07,19 Z M21.005,10.023 C21.005,9.333 20.445,8.773 19.755,8.773 C19.064,8.773 18.505,9.333 18.505,10.023 C18.505,10.221 18.56,10.401 18.642,10.567 L15.176,13.643 L12.466,6.396 C12.909,6.204 13.221,5.764 13.221,5.25 C13.221,4.56 12.661,4 11.971,4 C11.28,4 10.721,4.56 10.721,5.25 C10.721,5.764 11.032,6.204 11.476,6.396 L8.777,13.643 L5.34,10.601 C5.433,10.426 5.5,10.235 5.5,10.023 C5.5,9.333 4.94,8.773 4.25,8.773 C3.559,8.773 3,9.333 3,10.023 C3,10.669 3.496,11.182 4.125,11.248 L5.983,19.608 C6.033,19.837 6.237,20 6.471,20 L17.471,20 C17.705,20 17.908,19.837 17.959,19.608 L19.814,11.261 C20.475,11.228 21.005,10.692 21.005,10.023 Z" id="Fill-37" fill="#303030"></path>
    </g>
</svg>