<?xml version="1.0" encoding="UTF-8" standalone="no"?>
<svg width="8px" height="9px" viewBox="0 0 8 9" version="1.1" xmlns="http://www.w3.org/2000/svg" xmlns:xlink="http://www.w3.org/1999/xlink" xmlns:sketch="http://www.bohemiancoding.com/sketch/ns">
    <!-- Generator: Sketch 3.3.3 (12072) - http://www.bohemiancoding.com/sketch -->
    <title>pause copy</title>
    <desc>Created with Sketch.</desc>
    <defs></defs>
    <g id="窗口" stroke="none" stroke-width="1" fill="none" fill-rule="evenodd" sketch:type="MSPage">
        <g id="7-进程管理" sketch:type="MSArtboardGroup" transform="translate(-1293.000000, -95.000000)" fill="#000000">
            <path d="M1293.50468,95 C1293.22595,95 1293,95.2224731 1293,95.5096658 L1293,103.490334 C1293,103.771815 1293.21404,104 1293.50468,104 L1294.49532,104 C1294.77405,104 1295,103.777527 1295,103.490334 L1295,95.5096658 C1295,95.2281852 1294.78596,95 1294.49532,95 L1293.50468,95 Z M1299.50468,95 C1299.22595,95 1299,95.2224731 1299,95.5096658 L1299,103.490334 C1299,103.771815 1299.21404,104 1299.50468,104 L1300.49532,104 C1300.77405,104 1301,103.777527 1301,103.490334 L1301,95.5096658 C1301,95.2281852 1300.78596,95 1300.49532,95 L1299.50468,95 Z" id="pause-copy" sketch:type="MSShapeGroup"></path>
        </g>
    </g>
</svg>