<?xml version="1.0" encoding="UTF-8"?>
<svg width="16px" height="16px" viewBox="0 0 16 16" version="1.1" xmlns="http://www.w3.org/2000/svg" xmlns:xlink="http://www.w3.org/1999/xlink">
    <!-- Generator: Sketch 50.2 (55047) - http://www.bohemiancoding.com/sketch -->
    <title>office</title>
    <desc>Created with Sketch.</desc>
    <defs></defs>
    <g id="office" stroke="none" stroke-width="1" fill="none" fill-rule="evenodd">
        <g id="Group-4" transform="translate(0.000000, 0.500000)">
            <path d="M15.125,2.9839 L0.875,2.9839 C0.668,2.9839 0.5,2.7599 0.5,2.4839 L0.5,1.4839 C0.5,1.2079 0.668,0.9839 0.875,0.9839 L15.125,0.9839 C15.332,0.9839 15.5,1.2079 15.5,1.4839 L15.5,2.4839 C15.5,2.7599 15.332,2.9839 15.125,2.9839 Z" id="Stroke-86" stroke="#303030" stroke-linecap="round" stroke-linejoin="round"></path>
            <path d="M12.8125,10.9839 L3.1875,10.9839 C2.808,10.9839 2.5,10.6859 2.5,10.3172333 L2.5,2.9839 L13.5,2.9839 L13.5,10.3172333 C13.5,10.6859 13.192,10.9839 12.8125,10.9839 Z" id="Stroke-87" stroke="#303030" stroke-linecap="round" stroke-linejoin="round"></path>
            <path d="M8.5,11 L8.5,15" id="Stroke-88" stroke="#303030" stroke-linecap="round" stroke-linejoin="round"></path>
            <path d="M7.9141,11.0699 L5.0861,13.8979" id="Stroke-89" stroke="#303030" stroke-linecap="round" stroke-linejoin="round"></path>
            <path d="M9.0859,11.0699 L11.9139,13.8979" id="Stroke-90" stroke="#303030" stroke-linecap="round" stroke-linejoin="round"></path>
            <path d="M8,5.5 L8,7.5 L10,7.5 C10,8.6045695 9.1045695,9.5 8,9.5 C6.8954305,9.5 6,8.6045695 6,7.5 C6,6.3954305 6.8954305,5.5 8,5.5 Z" id="Combined-Shape" fill="#303030"></path>
            <path d="M9,4.5 L9,4.5 C10.1045695,4.5 11,5.3954305 11,6.5 L9,6.5 L9,4.5 Z" id="Rectangle-2" fill="#303030"></path>
        </g>
    </g>
</svg>