<?xml version="1.0" encoding="UTF-8"?>
<svg width="16px" height="16px" viewBox="0 0 16 16" version="1.1" xmlns="http://www.w3.org/2000/svg" xmlns:xlink="http://www.w3.org/1999/xlink">
    <!-- Generator: Sketch 50.2 (55047) - http://www.bohemiancoding.com/sketch -->
    <title>others</title>
    <desc>Created with Sketch.</desc>
    <defs></defs>
    <g id="others" stroke="none" stroke-width="1" fill="none" fill-rule="evenodd">
        <g id="Group">
            <path d="M8.00036727,0.5 C3.86458381,0.5 0.500078707,3.86371808 0.500078707,7.99950155 C0.500078707,12.135285 3.86458381,15.4990031 8.00036727,15.4990031 C12.1353637,15.4990031 15.4998688,12.135285 15.4998688,7.99950155 C15.4998688,3.86371808 12.1353637,0.5 8.00036727,0.5" id="Fill-84" stroke="#303030" stroke-linecap="round" stroke-linejoin="round"></path>
            <path d="M12.5,9.5 C11.671,9.5 11,8.828 11,8 C11,7.171 11.671,6.5 12.5,6.5 C13.329,6.5 14,7.171 14,8 C14,8.828 13.329,9.5 12.5,9.5" id="Path" fill="#303030"></path>
            <path d="M8,9.5 C7.172,9.5 6.5,8.828 6.5,8 C6.5,7.171 7.172,6.5 8,6.5 C8.829,6.5 9.5,7.171 9.5,8 C9.5,8.828 8.829,9.5 8,9.5" id="Path" fill="#303030"></path>
            <path d="M3.5,9.5 C2.672,9.5 2,8.828 2,8 C2,7.171 2.672,6.5 3.5,6.5 C4.329,6.5 5,7.171 5,8 C5,8.828 4.329,9.5 3.5,9.5" id="Path" fill="#303030"></path>
        </g>
    </g>
</svg>