<?xml version="1.0" encoding="UTF-8"?>
<svg width="16px" height="16px" viewBox="0 0 16 16" version="1.1" xmlns="http://www.w3.org/2000/svg" xmlns:xlink="http://www.w3.org/1999/xlink">
    <!-- Generator: Sketch 50.2 (55047) - http://www.bohemiancoding.com/sketch -->
    <title>system</title>
    <desc>Created with Sketch.</desc>
    <defs>
        <path d="M13.9,15 L2.1,15 C1.49285763,15 1,14.5071424 1,13.9 L1,2.1 C1,1.49285763 1.49285763,1 2.1,1 L13.9,1 C14.5079261,1 15,1.4926408 15,2.1 L15,13.9 C15,14.5073592 14.5079261,15 13.9,15 Z" id="path-1"></path>
    </defs>
    <g id="system" stroke="none" stroke-width="1" fill="none" fill-rule="evenodd">
        <mask id="mask-2" fill="white">
            <use xlink:href="#path-1"></use>
        </mask>
        <path stroke="#303030" d="M13.9,14.5 C14.2315481,14.5 14.5,14.2314525 14.5,13.9 L14.5,2.1 C14.5,1.76854749 14.2315481,1.5 13.9,1.5 L2.1,1.5 C1.769,1.5 1.5,1.769 1.5,2.1 L1.5,13.9 C1.5,14.231 1.769,14.5 2.1,14.5 L13.9,14.5 Z"></path>
        <polygon id="Stroke-66" fill="#303030" fill-rule="nonzero" mask="url(#mask-2)" points="2 6 2 5 15 5 15 6"></polygon>
        <polygon id="Fill-67" fill="#303030" mask="url(#mask-2)" points="12 4 13 4 13 3 12 3"></polygon>
        <polygon id="Fill-68" fill="#303030" mask="url(#mask-2)" points="8 4 9 4 9 3 8 3"></polygon>
        <polygon id="Fill-69" fill="#303030" mask="url(#mask-2)" points="10 4 11 4 11 3 10 3"></polygon>
        <path d="M16.1999998,12.2389998 C16.1999998,12.4505463 16.0668676,12.6391997 15.8675525,12.7100901 L15.2856302,12.9170625 C15.1968136,12.9486684 15.1260084,13.0159757 15.0894129,13.104608 C15.0530979,13.1916044 15.0554555,13.2907286 15.0953403,13.3748447 L15.3613403,13.9328447 C15.4524622,14.123995 15.4132891,14.3518173 15.2635532,14.5015532 L14.5015532,15.2635532 C14.3518984,15.413208 14.1242305,15.4524278 13.9331267,15.3614747 L13.3719504,15.0943907 C13.2884245,15.0545977 13.1933025,15.0523131 13.1061139,15.0890338 C13.0169717,15.1259063 12.9476947,15.1988521 12.9151472,15.2903919 L12.7101472,15.8673919 C12.6393039,16.06679 12.4506089,16.1999998 12.2389998,16.1999998 L11.1609998,16.1999998 C10.9494533,16.1999998 10.7607999,16.0668676 10.6899095,15.8675525 L10.4829371,15.2856302 C10.4513312,15.1968136 10.3840239,15.1260084 10.2953916,15.0894129 C10.2089796,15.0533419 10.1087385,15.0558317 10.0244696,15.0951902 L9.46746956,15.3611902 C9.2762673,15.4525005 9.04827275,15.4133795 8.89844642,15.2635532 L8.13644642,14.5015532 C7.98662009,14.3517269 7.94749917,14.1237323 8.0388094,13.9325301 L8.30383017,13.3775926 C8.34459502,13.2912196 8.34695846,13.1917404 8.30983658,13.1028011 C8.27399122,13.0159757 8.20318605,12.9486684 8.11444707,12.9170901 L7.53244707,12.7100901 C7.33313205,12.6391997 7.19999981,12.4505463 7.19999981,12.2389998 L7.19999981,11.1609998 C7.19999981,10.9491733 7.33347927,10.7603339 7.53316619,10.6896543 L8.11249002,10.4846101 C8.20258302,10.4521442 8.27390085,10.3842428 8.31058669,10.2953916 C8.34695846,10.2082592 8.34459502,10.10878 8.3048094,10.0244696 L8.0388094,9.46746956 C7.94749917,9.2762673 7.98662009,9.04827275 8.13644642,8.89844642 L8.89844642,8.13644642 C9.04827275,7.98662009 9.2762673,7.94749917 9.46746956,8.0388094 L10.022407,8.30383017 C10.10878,8.34459502 10.2082592,8.34695846 10.2971985,8.30983658 C10.3842159,8.27391194 10.4518724,8.202745 10.4837447,8.11391109 L10.6897447,7.53291109 C10.7604992,7.33335606 10.9492726,7.19999981 11.1609998,7.19999981 L12.2389998,7.19999981 C12.450727,7.19999981 12.6395004,7.33335606 12.7102549,7.53291109 L12.9156316,8.11216331 C12.9481272,8.202745 13.0157837,8.27391194 13.104608,8.31058669 C13.1917404,8.34695846 13.2912196,8.34459502 13.3755301,8.3048094 L13.9325301,8.0388094 C14.1237323,7.94749917 14.3517269,7.98662009 14.5015532,8.13644642 L15.2635532,8.89844642 C15.4133795,9.04827275 15.4525005,9.2762673 15.3611902,9.46746956 L15.0961694,10.022407 C15.0554046,10.10878 15.0530412,10.2082592 15.090163,10.2971985 C15.1260988,10.3842428 15.1974166,10.4521442 15.2848334,10.4836543 L15.8668334,10.6896543 C16.0665204,10.7603339 16.1999998,10.9491733 16.1999998,11.1609998 L16.1999998,12.2389998 Z M15.1999998,11.5144155 L14.94849,11.4253895 C14.5937836,11.2975673 14.3095791,11.0269774 14.1665867,10.680608 C14.0210831,10.332039 14.0304563,9.93751355 14.1928094,9.59353006 L14.3064537,9.35556052 L14.0444369,9.09354365 L13.804407,9.20816945 C13.4624861,9.36954333 13.0679606,9.37891651 12.7211985,9.23416304 C12.3725776,9.090237 12.1020056,8.80562583 11.9737447,8.44808853 L11.8857821,8.19999981 L11.5142154,8.19999981 L11.4256316,8.44983631 C11.2979941,8.80562583 11.027422,9.090237 10.680608,9.23341293 C10.332039,9.37891651 9.93751355,9.36954333 9.59353006,9.20719022 L9.35556052,9.09354588 L9.09354365,9.35556275 L9.20816945,9.59559264 C9.36954333,9.93751355 9.37891651,10.332039 9.23416304,10.6788011 C9.09042055,11.0269774 8.80621603,11.2975673 8.44883343,11.4263453 L8.19999981,11.5144204 L8.19999981,11.8861511 L8.44963022,11.9749371 C8.80516092,12.1014548 9.09014878,12.3723639 9.23341293,12.7193916 C9.37891651,13.0679606 9.36954333,13.4624861 9.20719022,13.8064696 L9.09354588,14.0444391 L9.35556804,14.3064613 L9.59732534,14.1910165 C9.93921617,14.0312544 10.3329759,14.0214742 10.6788011,14.1658366 C11.0276357,14.3098508 11.2985448,14.5948387 11.4250901,14.9504471 L11.5138486,15.1999998 L11.8860233,15.1999998 L11.9728925,14.955495 C12.100273,14.5972372 12.3729402,14.3101296 12.7208759,14.1662223 C13.0683834,14.0198187 13.4612663,14.0292548 13.8018729,14.1915249 L14.0440887,14.3068041 L14.306639,14.0442538 L14.1922173,13.8042253 C14.0304121,13.4629926 14.0210203,13.068111 14.1658366,12.7211985 C14.3098508,12.3723639 14.5948387,12.1014548 14.9504471,11.9749095 L15.1999998,11.8861511 L15.1999998,11.5144155 Z M11.6999998,10.1999998 C12.5269998,10.1999998 13.1999998,10.8729998 13.1999998,11.6999998 C13.1999998,12.5269998 12.5269998,13.1999998 11.6999998,13.1999998 C10.8729998,13.1999998 10.1999998,12.5269998 10.1999998,11.6999998 C10.1999998,10.8729998 10.8729998,10.1999998 11.6999998,10.1999998 Z" id="Combined-Shape" fill="#303030" fill-rule="nonzero" mask="url(#mask-2)"></path>
    </g>
</svg>