<svg xmlns="http://www.w3.org/2000/svg" width="10" height="10" viewBox="0 0 10 10">
  <path fill="#2CA7F8" d="M6.83324902,10.9059738 C6.27762619,11.300312 5.62725659,11.4980189 4.96220075,11.4889744 C4.87429843,11.4880455 4.786885,11.4833522 4.70047869,11.4757744 C4.66530798,11.4724011 4.63017639,11.4664855 4.59448746,11.4621344 C4.52662961,11.4528944 4.45877176,11.4436055 4.39284991,11.4306499 C4.35183208,11.4227788 4.31177248,11.4123165 4.271752,11.4028321 C4.20680793,11.3874321 4.1423723,11.3717876 4.07886556,11.3527209 C4.04860331,11.3432365 4.01882994,11.3322365 3.98854813,11.3219698 C3.91580138,11.2973298 3.84303508,11.2717608 3.77224389,11.2416941 C3.75613988,11.2350941 3.74051497,11.2275652 3.72487051,11.220183 C3.64188642,11.1833207 3.56033966,11.1447963 3.48120802,11.1012851 C3.47732624,11.0993784 3.47438312,11.0976673 3.47047201,11.0957118 C3.20288327,10.9469916 2.95826256,10.7612625 2.74342499,10.5441956 C2.74002232,10.5407245 2.73658054,10.5368623 2.73317787,10.5329511 C2.66627824,10.4653377 2.60282039,10.3943021 2.54226655,10.3205287 C2.52957498,10.3046887 2.51736252,10.2878709 2.50467095,10.2717864 C2.06763314,9.71826581 1.80397508,9.01783393 1.80397508,8.25597799 L2.54518033,8.25597799 C2.56424702,8.25597799 2.58277593,8.24574064 2.59258305,8.22767129 C2.6023315,8.20980727 2.60089417,8.18858947 2.59010927,8.17272012 L1.3445168,6.28094294 C1.33476834,6.26627626 1.3182341,6.25649847 1.29944119,6.25649847 C1.28091228,6.25649847 1.26431937,6.26627626 1.25456114,6.28094294 L0.0089100021,8.17245612 C-0.0016011205,8.18856014 -0.00331223348,8.20956282 0.00646555498,8.22765173 C0.0162140101,8.24569175 0.0347918082,8.25595843 0.0538389401,8.25595843 L0.795063751,8.25595843 C0.795063751,9.15165274 1.07091472,9.98198254 1.53931968,10.6684713 C1.54518635,10.6779557 1.54906813,10.6882224 1.55543347,10.6977558 C1.60424419,10.768107 1.65795358,10.8327381 1.71021586,10.8991782 C1.72925322,10.9243071 1.74781146,10.9501205 1.76782659,10.9748583 C1.84448445,11.0690673 1.92603121,11.1574585 2.00953352,11.2441386 C2.01781531,11.2526453 2.02514865,11.2612008 2.03295133,11.2687786 C2.31422897,11.5538989 2.63210487,11.7941392 2.97828747,11.9859794 C2.98708748,11.9916994 2.99585816,11.9970283 3.00561639,12.0021616 C3.1052325,12.0563795 3.20777217,12.1054151 3.3117785,12.1517618 C3.33764075,12.1630063 3.36254478,12.1754729 3.38889592,12.1866685 C3.47777602,12.2238241 3.56907123,12.2565308 3.66088466,12.287722 C3.70432738,12.302682 3.74732031,12.3178375 3.79127147,12.3314776 C3.87181111,12.3556776 3.95387609,12.3756243 4.03635174,12.3957176 C4.09154735,12.4086732 4.14576519,12.4225577 4.20190925,12.4333132 C4.22480883,12.4381532 4.2467893,12.4452421 4.26973777,12.4489088 C4.34788186,12.462891 4.42600639,12.4706644 4.50413092,12.4803933 C4.53243761,12.4835711 4.56027498,12.4884111 4.58809279,12.4916377 C4.72874627,12.5055222 4.86837309,12.51486 5.00801947,12.51486 C5.86305774,12.51486 6.69700531,12.2501264 7.41239721,11.7426102 C7.64041524,11.5804945 7.69605085,11.2624719 7.53633068,11.0312272 C7.37630739,10.799787 7.06126705,10.743858 6.83324902,10.9059738 Z M9.20538939,8.25597799 C9.20494939,7.36292368 8.93097576,6.53435388 8.46467303,5.84930247 C8.45777968,5.83756912 8.45298857,5.82562066 8.44560634,5.81488465 C8.38747739,5.73113789 8.32445954,5.65301336 8.26153947,5.57464439 C8.25420613,5.56511104 8.24736168,5.55511814 8.23958833,5.5458488 C7.81278787,5.02171045 7.27711173,4.6166949 6.66971551,4.35202972 C6.65309327,4.34469638 6.63647103,4.33641459 6.61984879,4.32908125 C6.52270646,4.28882609 6.42365746,4.25318605 6.3240218,4.2192278 C6.28789287,4.20726956 6.25220394,4.19407932 6.21558612,4.18309887 C6.12871047,4.15648373 6.04036815,4.13477704 5.95143917,4.11401879 C5.90215911,4.10252989 5.85327017,4.0898481 5.80355012,4.08007031 C5.77856787,4.07518142 5.75568784,4.06787741 5.73124337,4.06349696 C5.66485219,4.05174406 5.59792322,4.04660094 5.53153204,4.03807471 C5.48557643,4.03223737 5.44015861,4.02490403 5.393763,4.02001513 C5.28200288,4.00953334 5.17112276,4.00513334 5.06029153,4.00317778 C5.04029595,4.00317778 5.02025148,4 5.00023635,4 C4.99683368,4 4.9933919,4.00097778 4.98952967,4.00122222 C4.13600696,4.00195556 3.30347716,4.26292473 2.58909238,4.7697564 C2.36058546,4.93135391 2.30493029,5.24994359 2.46462113,5.4811394 C2.62426308,5.71233521 2.93969454,5.7685086 3.1677419,5.60639287 C3.7195025,5.21503688 4.3635361,5.01703667 5.02368349,5.02293267 C5.11891914,5.02363667 5.21219925,5.0282909 5.30445268,5.03706158 C5.33329716,5.04046425 5.36111497,5.04463936 5.38942166,5.04830604 C5.46563952,5.05759493 5.54083072,5.06856561 5.61499524,5.08345718 C5.64775083,5.08978341 5.68040865,5.09836831 5.71213757,5.10567232 C5.78493321,5.12224567 5.85777773,5.14009014 5.92905781,5.16181638 C5.95144894,5.16912039 5.97344897,5.17718706 5.9958401,5.1847453 C6.07738686,5.21163421 6.15702695,5.24064491 6.23559148,5.27362539 C6.24351149,5.27702806 6.25177372,5.28117385 6.25954706,5.28435163 C6.72976091,5.48919629 7.14238358,5.80459842 7.46421949,6.19886818 C7.46607727,6.20134196 7.46808171,6.20449041 7.46998838,6.20669041 C7.92313999,6.76502169 8.19608695,7.47884914 8.19608695,8.25590954 L7.45483281,8.25590954 C7.4358639,8.25590954 7.41723721,8.26615666 7.40750831,8.28421624 C7.39773053,8.30225626 7.3991483,8.32329806 7.41000165,8.33941186 L8.65598523,10.2309641 C8.66537191,10.2455819 8.68199415,10.2550664 8.70096306,10.2550664 C8.71949197,10.2550664 8.73611421,10.2455819 8.745892,10.2309641 L9.99104447,8.33941186 C10.0017512,8.32329806 10.0032178,8.30225626 9.99348892,8.28421624 C9.98366224,8.26615666 9.96518222,8.25590954 9.94606665,8.25590954 L9.20539917,8.25590954 L9.20539917,8.25597799 L9.20538939,8.25597799 Z" transform="translate(0 -3)"/>
</svg>
