<svg xmlns="http://www.w3.org/2000/svg" width="10" height="10" viewBox="0 0 10 10">
  <path fill="#DCDCDC" d="M28.833249,10.9059738 C28.2776262,11.300312 27.6272566,11.4980189 26.9622008,11.4889744 C26.8742984,11.4880455 26.786885,11.4833522 26.7004787,11.4757744 C26.665308,11.4724011 26.6301764,11.4664855 26.5944875,11.4621344 C26.5266296,11.4528944 26.4587718,11.4436055 26.3928499,11.4306499 C26.3518321,11.4227788 26.3117725,11.4123165 26.271752,11.4028321 C26.2068079,11.3874321 26.1423723,11.3717876 26.0788656,11.3527209 C26.0486033,11.3432365 26.0188299,11.3322365 25.9885481,11.3219698 C25.9158014,11.2973298 25.8430351,11.2717608 25.7722439,11.2416941 C25.7561399,11.2350941 25.740515,11.2275652 25.7248705,11.220183 C25.6418864,11.1833207 25.5603397,11.1447963 25.481208,11.1012851 C25.4773262,11.0993784 25.4743831,11.0976673 25.470472,11.0957118 C25.2028833,10.9469916 24.9582626,10.7612625 24.743425,10.5441956 C24.7400223,10.5407245 24.7365805,10.5368623 24.7331779,10.5329511 C24.6662782,10.4653377 24.6028204,10.3943021 24.5422665,10.3205287 C24.529575,10.3046887 24.5173625,10.2878709 24.504671,10.2717864 C24.0676331,9.71826581 23.8039751,9.01783393 23.8039751,8.25597799 L24.5451803,8.25597799 C24.564247,8.25597799 24.5827759,8.24574064 24.592583,8.22767129 C24.6023315,8.20980727 24.6008942,8.18858947 24.5901093,8.17272012 L23.3445168,6.28094294 C23.3347683,6.26627626 23.3182341,6.25649847 23.2994412,6.25649847 C23.2809123,6.25649847 23.2643194,6.26627626 23.2545611,6.28094294 L22.00891,8.17245612 C21.9983989,8.18856014 21.9966878,8.20956282 22.0064656,8.22765173 C22.016214,8.24569175 22.0347918,8.25595843 22.0538389,8.25595843 L22.7950638,8.25595843 C22.7950638,9.15165274 23.0709147,9.98198254 23.5393197,10.6684713 C23.5451863,10.6779557 23.5490681,10.6882224 23.5554335,10.6977558 C23.6042442,10.768107 23.6579536,10.8327381 23.7102159,10.8991782 C23.7292532,10.9243071 23.7478115,10.9501205 23.7678266,10.9748583 C23.8444845,11.0690673 23.9260312,11.1574585 24.0095335,11.2441386 C24.0178153,11.2526453 24.0251487,11.2612008 24.0329513,11.2687786 C24.314229,11.5538989 24.6321049,11.7941392 24.9782875,11.9859794 C24.9870875,11.9916994 24.9958582,11.9970283 25.0056164,12.0021616 C25.1052325,12.0563795 25.2077722,12.1054151 25.3117785,12.1517618 C25.3376408,12.1630063 25.3625448,12.1754729 25.3888959,12.1866685 C25.477776,12.2238241 25.5690712,12.2565308 25.6608847,12.287722 C25.7043274,12.302682 25.7473203,12.3178375 25.7912715,12.3314776 C25.8718111,12.3556776 25.9538761,12.3756243 26.0363517,12.3957176 C26.0915474,12.4086732 26.1457652,12.4225577 26.2019093,12.4333132 C26.2248088,12.4381532 26.2467893,12.4452421 26.2697378,12.4489088 C26.3478819,12.462891 26.4260064,12.4706644 26.5041309,12.4803933 C26.5324376,12.4835711 26.560275,12.4884111 26.5880928,12.4916377 C26.7287463,12.5055222 26.8683731,12.51486 27.0080195,12.51486 C27.8630577,12.51486 28.6970053,12.2501264 29.4123972,11.7426102 C29.6404152,11.5804945 29.6960509,11.2624719 29.5363307,11.0312272 C29.3763074,10.799787 29.061267,10.743858 28.833249,10.9059738 Z M31.2053894,8.25597799 C31.2049494,7.36292368 30.9309758,6.53435388 30.464673,5.84930247 C30.4577797,5.83756912 30.4529886,5.82562066 30.4456063,5.81488465 C30.3874774,5.73113789 30.3244595,5.65301336 30.2615395,5.57464439 C30.2542061,5.56511104 30.2473617,5.55511814 30.2395883,5.5458488 C29.8127879,5.02171045 29.2771117,4.6166949 28.6697155,4.35202972 C28.6530933,4.34469638 28.636471,4.33641459 28.6198488,4.32908125 C28.5227065,4.28882609 28.4236575,4.25318605 28.3240218,4.2192278 C28.2878929,4.20726956 28.2522039,4.19407932 28.2155861,4.18309887 C28.1287105,4.15648373 28.0403682,4.13477704 27.9514392,4.11401879 C27.9021591,4.10252989 27.8532702,4.0898481 27.8035501,4.08007031 C27.7785679,4.07518142 27.7556878,4.06787741 27.7312434,4.06349696 C27.6648522,4.05174406 27.5979232,4.04660094 27.531532,4.03807471 C27.4855764,4.03223737 27.4401586,4.02490403 27.393763,4.02001513 C27.2820029,4.00953334 27.1711228,4.00513334 27.0602915,4.00317778 C27.0402959,4.00317778 27.0202515,4 27.0002363,4 C26.9968337,4 26.9933919,4.00097778 26.9895297,4.00122222 C26.136007,4.00195556 25.3034772,4.26292473 24.5890924,4.7697564 C24.3605855,4.93135391 24.3049303,5.24994359 24.4646211,5.4811394 C24.6242631,5.71233521 24.9396945,5.7685086 25.1677419,5.60639287 C25.7195025,5.21503688 26.3635361,5.01703667 27.0236835,5.02293267 C27.1189191,5.02363667 27.2121992,5.0282909 27.3044527,5.03706158 C27.3332972,5.04046425 27.361115,5.04463936 27.3894217,5.04830604 C27.4656395,5.05759493 27.5408307,5.06856561 27.6149952,5.08345718 C27.6477508,5.08978341 27.6804086,5.09836831 27.7121376,5.10567232 C27.7849332,5.12224567 27.8577777,5.14009014 27.9290578,5.16181638 C27.9514489,5.16912039 27.973449,5.17718706 27.9958401,5.1847453 C28.0773869,5.21163421 28.1570269,5.24064491 28.2355915,5.27362539 C28.2435115,5.27702806 28.2517737,5.28117385 28.2595471,5.28435163 C28.7297609,5.48919629 29.1423836,5.80459842 29.4642195,6.19886818 C29.4660773,6.20134196 29.4680817,6.20449041 29.4699884,6.20669041 C29.92314,6.76502169 30.196087,7.47884914 30.196087,8.25590954 L29.4548328,8.25590954 C29.4358639,8.25590954 29.4172372,8.26615666 29.4075083,8.28421624 C29.3977305,8.30225626 29.3991483,8.32329806 29.4100016,8.33941186 L30.6559852,10.2309641 C30.6653719,10.2455819 30.6819942,10.2550664 30.7009631,10.2550664 C30.719492,10.2550664 30.7361142,10.2455819 30.745892,10.2309641 L31.9910445,8.33941186 C32.0017512,8.32329806 32.0032178,8.30225626 31.9934889,8.28421624 C31.9836622,8.26615666 31.9651822,8.25590954 31.9460666,8.25590954 L31.2053992,8.25590954 L31.2053992,8.25597799 L31.2053894,8.25597799 Z" opacity=".5" transform="translate(-22 -3)"/>
</svg>
