<?xml version="1.0" encoding="UTF-8"?>
<svg width="24px" height="24px" viewBox="0 0 24 24" version="1.1" xmlns="http://www.w3.org/2000/svg" xmlns:xlink="http://www.w3.org/1999/xlink">
    <!-- Generator: Sketch 49.3 (51167) - http://www.bohemiancoding.com/sketch -->
    <title>chat_active</title>
    <desc>Created with Sketch.</desc>
    <defs></defs>
    <g id="chat_active" stroke="none" stroke-width="1" fill="none" fill-rule="evenodd">
        <path d="M16.464,12.364 C15.635,12.364 14.964,11.692 14.964,10.864 C14.964,10.036 15.635,9.364 16.464,9.364 C17.293,9.364 17.964,10.036 17.964,10.864 C17.964,11.692 17.293,12.364 16.464,12.364 M11.948,12.364 C11.12,12.364 10.448,11.692 10.448,10.864 C10.448,10.036 11.12,9.364 11.948,9.364 C12.777,9.364 13.448,10.036 13.448,10.864 C13.448,11.692 12.777,12.364 11.948,12.364 M7.443,12.364 C6.615,12.364 5.943,11.692 5.943,10.864 C5.943,10.036 6.615,9.364 7.443,9.364 C8.272,9.364 8.943,10.036 8.943,10.864 C8.943,11.692 8.272,12.364 7.443,12.364 M11.948,3 C6.738,3 2.5,6.645 2.5,11.127 C2.5,13.43 3.627,15.607 5.605,17.148 L4.59,20.205 C4.531,20.383 4.589,20.578 4.735,20.696 C4.816,20.761 4.916,20.796 5.016,20.796 C5.095,20.796 5.174,20.774 5.245,20.733 L8.625,18.733 C9.689,19.078 10.806,19.253 11.948,19.253 C17.158,19.253 21.397,15.607 21.397,11.127 C21.397,6.645 17.158,3 11.948,3" id="Fill-48" fill="#2CA7F8"></path>
    </g>
</svg>