<?xml version="1.0" encoding="UTF-8"?>
<svg width="24px" height="24px" viewBox="0 0 24 24" version="1.1" xmlns="http://www.w3.org/2000/svg" xmlns:xlink="http://www.w3.org/1999/xlink">
    <!-- Generator: Sketch 49.3 (51167) - http://www.bohemiancoding.com/sketch -->
    <title>development_active</title>
    <desc>Created with Sketch.</desc>
    <defs></defs>
    <g id="development_active" stroke="none" stroke-width="1" fill="none" fill-rule="evenodd">
        <path d="M9,16 L16,16 L16,15 L9,15 L9,16 Z M6.182,13.055 L9.29,10.006 L6.156,7.078 L7.016,6.125 L10.989,10.006 L7.016,13.922 L6.182,13.055 Z M19.5,4 L4.5,4 C3.673,4 3,4.673 3,5.5 L3,18.5 C3,19.327 3.673,20 4.5,20 L19.5,20 C20.327,20 21,19.327 21,18.5 L21,5.5 C21,4.673 20.327,4 19.5,4 Z" id="Fill-35" fill="#2CA7F8"></path>
    </g>
</svg>