<?xml version="1.0" encoding="UTF-8"?>
<svg width="24px" height="24px" viewBox="0 0 24 24" version="1.1" xmlns="http://www.w3.org/2000/svg" xmlns:xlink="http://www.w3.org/1999/xlink">
    <!-- Generator: Sketch 49.3 (51167) - http://www.bohemiancoding.com/sketch -->
    <title>homepage</title>
    <desc>Created with Sketch.</desc>
    <defs></defs>
    <g id="homepage" stroke="none" stroke-width="1" fill="none" fill-rule="evenodd">
        <path d="M15.910862,14.29625 L16.835862,19.96725 L11.999862,17.29525 L7.16386199,19.96725 L8.08986199,14.29625 L4.11686199,10.22425 L9.60086199,9.38625 L11.999862,4.27525 L14.398862,9.38625 L19.883862,10.22425 L15.910862,14.29625 Z M21.137862,9.40425 L15.077862,8.47925 L12.386862,2.74525 C12.232862,2.41825 11.766862,2.41825 11.613862,2.74525 L8.92286199,8.47925 L2.86286199,9.40425 C2.51986199,9.45725 2.37886199,9.87625 2.62186199,10.12425 L7.02086199,14.63325 L5.98786199,20.97125 C5.92986199,21.32225 6.30286199,21.58625 6.61486199,21.41325 L11.999862,18.43725 L17.385862,21.41325 C17.697862,21.58625 18.070862,21.32225 18.012862,20.97125 L16.978862,14.63325 L21.378862,10.12425 C21.620862,9.87625 21.480862,9.45725 21.137862,9.40425 Z" id="Fill-36" fill="#303030"></path>
    </g>
</svg>