<?xml version="1.0" encoding="UTF-8"?>
<svg width="24px" height="24px" viewBox="0 0 24 24" version="1.1" xmlns="http://www.w3.org/2000/svg" xmlns:xlink="http://www.w3.org/1999/xlink">
    <!-- Generator: Sketch 49.3 (51167) - http://www.bohemiancoding.com/sketch -->
    <title>office</title>
    <desc>Created with Sketch.</desc>
    <defs></defs>
    <g id="office" stroke="none" stroke-width="1" fill="none" fill-rule="evenodd" stroke-linecap="round" stroke-linejoin="round">
        <g id="Group-4" transform="translate(2.000000, 2.500000)" stroke="#303030">
            <path d="M20,2.9839 L1,2.9839 C0.724,2.9839 0.5,2.7599 0.5,2.4839 L0.5,1.4839 C0.5,1.2079 0.724,0.9839 1,0.9839 L20,0.9839 C20.276,0.9839 20.5,1.2079 20.5,1.4839 L20.5,2.4839 C20.5,2.7599 20.276,2.9839 20,2.9839 Z" id="Stroke-86"></path>
            <path d="M17.5,14.9839 L3.5,14.9839 C2.948,14.9839 2.5,14.5369 2.5,13.9839 L2.5,2.9839 L18.5,2.9839 L18.5,13.9839 C18.5,14.5369 18.052,14.9839 17.5,14.9839 Z" id="Stroke-87"></path>
            <path d="M10.5,15.4839 L10.5,19.4839" id="Stroke-88"></path>
            <path d="M9.9141,15.0699 L7.0861,17.8979" id="Stroke-89"></path>
            <path d="M11.0859,15.0699 L13.9139,17.8979" id="Stroke-90"></path>
            <path d="M14.5391,7.9839 C14.3531,5.9839 13.5001,5.1619 11.5001,4.9989 L11.5001,7.9839 L14.5391,7.9839 Z" id="Stroke-91"></path>
            <path d="M9.5,6.9839 C7.843,6.9839 6.5,8.3269 6.5,9.9839 C6.5,11.6409 7.843,12.9839 9.5,12.9839 C11.157,12.9839 12.5,11.6409 12.5,9.9839 L9.5,9.9839 L9.5,6.9839 Z" id="Stroke-92"></path>
        </g>
    </g>
</svg>