<?xml version="1.0" encoding="UTF-8"?>
<svg width="24px" height="24px" viewBox="0 0 24 24" version="1.1" xmlns="http://www.w3.org/2000/svg" xmlns:xlink="http://www.w3.org/1999/xlink">
    <!-- Generator: Sketch 49.3 (51167) - http://www.bohemiancoding.com/sketch -->
    <title>system</title>
    <desc>Created with Sketch.</desc>
    <defs></defs>
    <g id="system" stroke="none" stroke-width="1" fill="none" fill-rule="evenodd">
        <path d="M19.9,20 C19.9553834,20 20,19.955332 20,19.9 L20,5.1 C20,5.04466796 19.9553834,5 19.9,5 L4.1,5 C4.04514237,5 4,5.04514237 4,5.1 L4,19.9 C4,19.9548576 4.04514237,20 4.1,20 L19.9,20 Z M19.9,21 L4.1,21 C3.49285763,21 3,20.5071424 3,19.9 L3,5.1 C3,4.49285763 3.49285763,4 4.1,4 L19.9,4 C20.5079261,4 21,4.4926408 21,5.1 L21,19.9 C21,20.5073592 20.5079261,21 19.9,21 Z" id="Stroke-65" fill="#303030" fill-rule="nonzero"></path>
        <polygon id="Stroke-66" fill="#303030" fill-rule="nonzero" points="4 9 4 8 21 8 21 9"></polygon>
        <polygon id="Fill-67" fill="#303030" points="14 7 15 7 15 6 14 6"></polygon>
        <polygon id="Fill-68" fill="#303030" points="16 7 17 7 17 6 16 6"></polygon>
        <polygon id="Fill-69" fill="#303030" points="18 7 19 7 19 6 18 6"></polygon>
        <path d="M16.5,15.039 C16.5,15.2505465 16.3668678,15.4391999 16.1675527,15.5100903 L15.5856304,15.7170627 C15.4968138,15.7486686 15.4260086,15.8159759 15.3894131,15.9046082 C15.3530981,15.9916046 15.3554557,16.0907288 15.3953405,16.1748448 L15.6613405,16.7328448 C15.7524624,16.9239952 15.7132893,17.1518175 15.5635534,17.3015534 L14.8015534,18.0635534 C14.6518986,18.2132082 14.4242307,18.252428 14.2331269,18.1614749 L13.6719506,17.8943909 C13.5884247,17.8545979 13.4933027,17.8523133 13.4061141,17.889034 C13.3169719,17.9259065 13.2476949,17.9988523 13.2151474,18.0903921 L13.0101474,18.6673921 C12.9393041,18.8667902 12.7506091,19 12.539,19 L11.461,19 C11.2494535,19 11.0608001,18.8668678 10.9899097,18.6675527 L10.7829373,18.0856304 C10.7513314,17.9968138 10.6840241,17.9260086 10.5953918,17.8894131 C10.5089798,17.8533421 10.4087387,17.8558319 10.3244697,17.8951904 L9.76746975,18.1611904 C9.5762675,18.2525006 9.34827294,18.2133797 9.19844661,18.0635534 L8.43644661,17.3015534 C8.28662028,17.1517271 8.24749936,16.9237325 8.33880959,16.7325303 L8.60383036,16.1775928 C8.64459521,16.0912198 8.64695865,15.9917406 8.60983677,15.9028013 C8.57399141,15.8159759 8.50318624,15.7486686 8.41444726,15.7170903 L7.83244726,15.5100903 C7.63313224,15.4391999 7.5,15.2505465 7.5,15.039 L7.5,13.961 C7.5,13.7491735 7.63347946,13.5603341 7.83316638,13.4896545 L8.41249021,13.2846103 C8.50258321,13.2521444 8.57390104,13.184243 8.61058688,13.0953918 C8.64695865,13.0082594 8.64459521,12.9087802 8.60480959,12.8244697 L8.33880959,12.2674697 C8.24749936,12.0762675 8.28662028,11.8482729 8.43644661,11.6984466 L9.19844661,10.9364466 C9.34827294,10.7866203 9.5762675,10.7474994 9.76746975,10.8388096 L10.3224072,11.1038304 C10.4087802,11.1445952 10.5082594,11.1469586 10.5971987,11.1098368 C10.6842161,11.0739121 10.7518726,11.0027452 10.7837449,10.9139113 L10.9897449,10.3329113 C11.0604994,10.1333562 11.2492728,10 11.461,10 L12.539,10 C12.7507272,10 12.9395006,10.1333562 13.0102551,10.3329113 L13.2156317,10.9121635 C13.2481274,11.0027452 13.3157839,11.0739121 13.4046082,11.1105869 C13.4917406,11.1469586 13.5912198,11.1445952 13.6755303,11.1048096 L14.2325303,10.8388096 C14.4237325,10.7474994 14.6517271,10.7866203 14.8015534,10.9364466 L15.5635534,11.6984466 C15.7133797,11.8482729 15.7525006,12.0762675 15.6611904,12.2674697 L15.3961696,12.8224072 C15.3554048,12.9087802 15.3530414,13.0082594 15.3901632,13.0971987 C15.426099,13.184243 15.4974168,13.2521444 15.5848336,13.2836545 L16.1668336,13.4896545 C16.3665205,13.5603341 16.5,13.7491735 16.5,13.961 L16.5,15.039 Z M15.5,14.3144157 L15.2484902,14.2253897 C14.8937838,14.0975675 14.6095793,13.8269776 14.4665869,13.4806082 C14.3210833,13.1320392 14.3304565,12.7375137 14.4928096,12.3935303 L14.6064539,12.1555607 L14.3444371,11.8935438 L14.1044072,12.0081696 C13.7624863,12.1695435 13.3679608,12.1789167 13.0211987,12.0341632 C12.6725778,11.8902372 12.4020058,11.605626 12.2737449,11.2480887 L12.1857823,11 L11.8142156,11 L11.7256317,11.2498365 C11.5979942,11.605626 11.3274222,11.8902372 10.9806082,12.0334131 C10.6320392,12.1789167 10.2375137,12.1695435 9.89353025,12.0071904 L9.65556071,11.8935461 L9.39354384,12.1555629 L9.50816964,12.3955928 C9.66954352,12.7375137 9.6789167,13.1320392 9.53416323,13.4788013 C9.39042074,13.8269776 9.10621622,14.0975675 8.74883362,14.2263455 L8.5,14.3144206 L8.5,14.6861512 L8.74963041,14.7749373 C9.10516111,14.901455 9.39014897,15.1723641 9.53341312,15.5193918 C9.6789167,15.8679608 9.66954352,16.2624863 9.50719041,16.6064697 L9.39354607,16.8444393 L9.65556823,17.1064614 L9.89732553,16.9910166 C10.2392164,16.8312546 10.6329761,16.8214744 10.9788013,16.9658368 C11.3276359,17.109851 11.598545,17.3948389 11.7250903,17.7504473 L11.8138488,18 L12.1860235,18 L12.2728927,17.7554952 C12.4002732,17.3972374 12.6729404,17.1101298 13.0208761,16.9662225 C13.3683835,16.8198189 13.7612665,16.8292549 14.1018731,16.9915251 L14.3440889,17.1068043 L14.6066392,16.844254 L14.4922175,16.6042255 C14.3304123,16.2629928 14.3210205,15.8681112 14.4658368,15.5211987 C14.609851,15.1723641 14.8948389,14.901455 15.2504473,14.7749097 L15.5,14.6861512 L15.5,14.3144157 Z M12,13 C12.827,13 13.5,13.673 13.5,14.5 C13.5,15.327 12.827,16 12,16 C11.173,16 10.5,15.327 10.5,14.5 C10.5,13.673 11.173,13 12,13 Z" id="Combined-Shape" fill="#303030" fill-rule="nonzero"></path>
    </g>
</svg>