<svg xmlns="http://www.w3.org/2000/svg" width="20" height="20" viewBox="0 0 20 20">
  <path fill="#303030" fill-rule="evenodd" d="M304.5,1311.78754 C305.939974,1313.15978 307.875793,1314 310.00451,1314 C312.128785,1314 314.060967,1313.16328 315.5,1311.79612 L313.799332,1311.39242 C313.352742,1311.2864 312.965588,1311.00479 312.722538,1310.60917 L312.482528,1310.21849 L311.243519,1309.58824 L312.07111,1309.30759 C312.480589,1309.16872 312.789524,1308.82307 312.88658,1308.3952 L313.102033,1307.44538 C314.01064,1307.61345 314.464943,1307.06723 314.464943,1305.80672 C314.464943,1304.96639 314.175841,1304.54622 313.597637,1304.54622 C313.597637,1303.91597 313.845438,1303.28571 313.845438,1302.02521 C313.845438,1300.13445 312.606429,1299 309.385005,1299 C308.311197,1299 307.691693,1299.58824 307.526491,1300.76471 C306.617885,1300.76471 306.163581,1301.18487 306.163581,1302.02521 C306.163581,1303.28571 306.411383,1303.91597 306.411383,1304.54622 C305.833179,1304.54622 305.544077,1304.96639 305.544077,1305.80672 C305.544077,1307.06723 305.99838,1307.61345 306.906987,1307.44538 L307.122439,1308.3952 C307.219495,1308.82307 307.528431,1309.16872 307.93791,1309.30759 L308.765501,1309.58824 L307.526491,1310.21849 L307.157372,1310.71919 C306.915433,1311.04737 306.568666,1311.27955 306.176692,1311.3758 L304.5,1311.78754 Z M310,1316 C304.477153,1316 300,1311.52285 300,1306 C300,1300.47715 304.477153,1296 310,1296 C315.522847,1296 320,1300.47715 320,1306 C320,1311.52285 315.522847,1316 310,1316 Z" transform="translate(-300 -1296)"/>
</svg>
