<?xml version="1.0" encoding="UTF-8"?>
<svg width="16px" height="16px" viewBox="0 0 16 16" version="1.1" xmlns="http://www.w3.org/2000/svg" xmlns:xlink="http://www.w3.org/1999/xlink">
    <!-- Generator: Sketch 50.2 (55047) - http://www.bohemiancoding.com/sketch -->
    <title>chat_active</title>
    <desc>Created with Sketch.</desc>
    <defs></defs>
    <g id="chat_active" stroke="none" stroke-width="1" fill="none" fill-rule="evenodd">
        <g id="Group" transform="translate(0.000000, 1.000000)" fill="#2CA7F8" fill-rule="nonzero">
            <path d="M0.09791679,6.81479943 C0.09791679,3.03173257 3.65198565,0 8,0 C12.3485596,0 15.9020832,3.03150012 15.9020832,6.81479943 C15.9020832,10.5972813 12.3485704,13.627954 8,13.627954 C7.06316558,13.627954 6.1471898,13.4862478 5.28311727,13.2134084 L2.55321759,14.827403 C2.15529088,15.0626687 1.67860204,14.6782665 1.82419813,14.2395213 L2.62951677,11.8127412 C1.03368368,10.5385392 0.09791679,8.74513974 0.09791679,6.81479943 Z M4.7455,6.4148 C4.7455,5.7248 4.1855,5.1648 3.4955,5.1648 C2.8055,5.1648 2.2455,5.7248 2.2455,6.4148 C2.2455,7.1048 2.8055,7.6648 3.4955,7.6648 C4.1855,7.6648 4.7455,7.1048 4.7455,6.4148 Z M9.2504,6.4148 C9.2504,5.7248 8.6904,5.1648 8.0004,5.1648 C7.3104,5.1648 6.7504,5.7248 6.7504,6.4148 C6.7504,7.1048 7.3104,7.6648 8.0004,7.6648 C8.6904,7.6648 9.2504,7.1048 9.2504,6.4148 Z M13.766,6.4148 C13.766,5.7248 13.206,5.1648 12.516,5.1648 C11.826,5.1648 11.266,5.7248 11.266,6.4148 C11.266,7.1048 11.826,7.6648 12.516,7.6648 C13.206,7.6648 13.766,7.1048 13.766,6.4148 Z" id="Combined-Shape"></path>
        </g>
    </g>
</svg>