<?xml version="1.0" encoding="UTF-8"?>
<svg width="24px" height="24px" viewBox="0 0 24 24" version="1.1" xmlns="http://www.w3.org/2000/svg" xmlns:xlink="http://www.w3.org/1999/xlink">
    <!-- Generator: Sketch 49.3 (51167) - http://www.bohemiancoding.com/sketch -->
    <title>downloads</title>
    <desc>Created with Sketch.</desc>
    <defs></defs>
    <g id="downloads" stroke="none" stroke-width="1" fill="none" fill-rule="evenodd">
        <path d="M15.5009777,6 L8.50097768,6 C8.2248353,6 8.00097768,5.77614237 8.00097768,5.5 C8.00097768,5.22385763 8.2248353,5 8.50097768,5 L15.5009777,5 C15.7771201,5 16.0009777,5.22385763 16.0009777,5.5 C16.0009777,5.77614237 15.7771201,6 15.5009777,6 Z M8.00097768,7.5 C8.00097768,7.22385763 8.2248353,7 8.50097768,7 L15.5009777,7 C15.7771201,7 16.0009777,7.22385763 16.0009777,7.5 L16.0009777,9.5 C16.0009777,9.77614237 15.7771201,10 15.5009777,10 L8.50097768,10 C8.2248353,10 8.00097768,9.77614237 8.00097768,9.5 L8.00097768,7.5 Z M15.5009777,8 L8.50097768,8 L9.00097768,7.5 L9.00097768,9.5 L8.50097768,9 L15.5009777,9 L15.0009777,9.5 L15.0009777,7.5 L15.5009777,8 Z M8.00097768,13.5 L8.00097768,11.5 C8.00097768,11.2238576 8.2248353,11 8.50097768,11 L15.5009777,11 C15.7771201,11 16.0009777,11.2238576 16.0009777,11.5 L16.0009777,13.5 L15.5009777,13 L18.5009777,13 C18.9784023,13 19.1842513,13.605221 18.8058331,13.896312 L12.3058331,18.896312 C12.1261072,19.0345627 11.8758482,19.0345627 11.6961223,18.896312 L5.1961223,13.896312 C4.81770406,13.605221 5.02355302,13 5.50097768,13 L8.50097768,13 L8.00097768,13.5 Z M8.50097768,12 L9.00097768,11.5 L9.00097768,13.5 C9.00097768,13.7761424 8.77712005,14 8.50097768,14 L5.50097768,14 L5.80583306,13.103688 L12.3058331,18.103688 L11.6961223,18.103688 L18.1961223,13.103688 L18.5009777,14 L15.5009777,14 C15.2248353,14 15.0009777,13.7761424 15.0009777,13.5 L15.0009777,11.5 L15.5009777,12 L8.50097768,12 Z" id="Combined-Shape" fill="#303030" fill-rule="nonzero"></path>
    </g>
</svg>