<?xml version="1.0" encoding="UTF-8"?>
<svg width="24px" height="24px" viewBox="0 0 24 24" version="1.1" xmlns="http://www.w3.org/2000/svg" xmlns:xlink="http://www.w3.org/1999/xlink">
    <!-- Generator: Sketch 49.3 (51167) - http://www.bohemiancoding.com/sketch -->
    <title>game_active</title>
    <desc>Created with Sketch.</desc>
    <defs></defs>
    <g id="game_active" stroke="none" stroke-width="1" fill="none" fill-rule="evenodd">
        <path d="M18.7391475,12.185 C18.0531475,12.185 17.4931475,11.622 17.4931475,10.932 C17.4931475,10.233 18.0531475,9.671 18.7391475,9.671 C19.4341475,9.671 19.9931475,10.233 19.9931475,10.932 C19.9931475,11.622 19.4341475,12.185 18.7391475,12.185 M16.5081475,14.434 C15.8161475,14.434 15.2561475,13.872 15.2561475,13.176 C15.2561475,12.481 15.8161475,11.918 16.5081475,11.918 C17.1971475,11.918 17.7561475,12.481 17.7561475,13.176 C17.7561475,13.872 17.1971475,14.434 16.5081475,14.434 M14.2351475,12.187 C13.5431475,12.187 12.9841475,11.623 12.9841475,10.934 C12.9841475,10.235 13.5431475,9.673 14.2351475,9.673 C14.9241475,9.673 15.4841475,10.235 15.4841475,10.934 C15.4841475,11.623 14.9241475,12.187 14.2351475,12.187 M16.5061475,7.412 C17.1971475,7.412 17.7561475,7.975 17.7561475,8.67 C17.7561475,9.367 17.1971475,9.93 16.5061475,9.93 C15.8131475,9.93 15.2561475,9.367 15.2561475,8.67 C15.2561475,7.975 15.8131475,7.412 16.5061475,7.412 M8.01814746,14.397 C6.08814746,14.397 4.51814746,12.827 4.51814746,10.897 C4.51814746,8.967 6.08814746,7.397 8.01814746,7.397 C9.94814746,7.397 11.5181475,8.967 11.5181475,10.897 C11.5181475,12.827 9.94814746,14.397 8.01814746,14.397 M16.4061475,5 C14.9741475,5 13.9251475,6.694 12.0141475,6.694 C10.0511475,6.694 9.01614746,5 7.62514746,5 C2.48014746,5 0.0431474634,18.492 3.87314746,18.836 C6.93314746,19.112 7.54814746,14.898 11.9951475,14.898 C15.5921475,14.898 17.3981475,18.786 20.1061475,18.786 C23.9521475,18.786 21.5491475,5 16.4061475,5" id="Fill-19" fill="#2CA7F8"></path>
        <path d="M8,9 C6.897,9 6,9.896 6,11 C6,12.104 6.897,13 8,13 C9.103,13 10,12.104 10,11 C10,9.896 9.103,9 8,9" id="Fill-17" fill="#2CA7F8"></path>
    </g>
</svg>