<?xml version="1.0" encoding="UTF-8"?>
<svg width="24px" height="24px" viewBox="0 0 24 24" version="1.1" xmlns="http://www.w3.org/2000/svg" xmlns:xlink="http://www.w3.org/1999/xlink">
    <!-- Generator: Sketch 49.3 (51167) - http://www.bohemiancoding.com/sketch -->
    <title>graphics_active</title>
    <desc>Created with Sketch.</desc>
    <defs></defs>
    <g id="graphics_active" stroke="none" stroke-width="1" fill="none" fill-rule="evenodd">
        <path d="M18.501,17 L18.481,17 L5.452,17 C5.267,17 4.781,16.672 5.231,16.061 L8.958,11.255 C9.042,11.146 9.177,11.076 9.326,11.065 C9.477,11.056 9.622,11.104 9.726,11.198 L11.051,12.919 L13.871,9.181 C13.975,9.062 14.141,9.003 14.308,9.011 C14.477,9.024 14.626,9.111 14.705,9.245 L18.865,16.252 C19.109,16.703 18.906,17 18.501,17 M7.022,6.021 C8.125,6.021 9.022,6.917 9.022,8.019 C9.022,9.122 8.125,10.021 7.022,10.021 C5.919,10.021 5.022,9.122 5.022,8.019 C5.022,6.917 5.919,6.021 7.022,6.021 M19.5,4 L4.5,4 C3.672,4 3,4.673 3,5.5 L3,18.5 C3,19.327 3.672,20 4.5,20 L19.5,20 C20.327,20 21,19.327 21,18.5 L21,5.5 C21,4.673 20.327,4 19.5,4" id="Fill-27" fill="#2CA7F8"></path>
    </g>
</svg>