<?xml version="1.0" encoding="UTF-8"?>
<svg width="24px" height="24px" viewBox="0 0 24 24" version="1.1" xmlns="http://www.w3.org/2000/svg" xmlns:xlink="http://www.w3.org/1999/xlink">
    <!-- Generator: Sketch 49.3 (51167) - http://www.bohemiancoding.com/sketch -->
    <title>graphics</title>
    <desc>Created with Sketch.</desc>
    <defs></defs>
    <g id="graphics" stroke="none" stroke-width="1" fill="none" fill-rule="evenodd">
        <g id="Group-3" transform="translate(3.000000, 4.000000)">
            <path d="M4.5225,7.0171 C5.6265,7.0171 6.5225,6.1211 6.5225,5.0151 C6.5225,3.9131 5.6265,3.0171 4.5225,3.0171 C3.4175,3.0171 2.5225,3.9131 2.5225,5.0151 C2.5225,6.1211 3.4175,7.0171 4.5225,7.0171 Z" id="Stroke-21" stroke="#303030" stroke-linecap="round" stroke-linejoin="round"></path>
            <polygon id="Stroke-23" stroke="#303030" stroke-linecap="round" stroke-linejoin="round" points="8.1284 10.0513 6.3934 8.2453 2.4554 13.9843 15.5614 13.9843 11.3194 5.9103"></polygon>
            <path d="M17,14.9839 C17,15.2589 16.776,15.4839 16.5,15.4839 L1.5,15.4839 C1.224,15.4839 1,15.2589 1,14.9839 L1,1.9839 C1,1.7089 1.224,1.4839 1.5,1.4839 L16.5,1.4839 C16.776,1.4839 17,1.7089 17,1.9839 L17,14.9839 Z M16.5,0.4839 L1.5,0.4839 C0.673,0.4839 0,1.1569 0,1.9839 L0,14.9839 C0,15.8109 0.673,16.4839 1.5,16.4839 L16.5,16.4839 C17.327,16.4839 18,15.8109 18,14.9839 L18,1.9839 C18,1.1569 17.327,0.4839 16.5,0.4839 Z" id="Fill-25" fill="#303030"></path>
        </g>
    </g>
</svg>