<?xml version="1.0" encoding="UTF-8"?>
<svg width="24px" height="24px" viewBox="0 0 24 24" version="1.1" xmlns="http://www.w3.org/2000/svg" xmlns:xlink="http://www.w3.org/1999/xlink">
    <!-- Generator: Sketch 49.3 (51167) - http://www.bohemiancoding.com/sketch -->
    <title>internet</title>
    <desc>Created with Sketch.</desc>
    <defs></defs>
    <g id="internet" stroke="none" stroke-width="1" fill="none" fill-rule="evenodd">
        <g id="Group" transform="translate(4.000000, 3.500000)">
            <path d="M16.5,8.5 C16.5,13.194 12.694,17 8,17 C3.306,17 -0.5,13.194 -0.5,8.5 C-0.5,3.806 3.306,0 8,0 C12.694,0 16.5,3.806 16.5,8.5 Z" id="Stroke-53" stroke="#303030" stroke-linecap="round" stroke-linejoin="round"></path>
            <path d="M16.2529,10.6343 C6.2279,12.4763 1.7279,6.1133 0.6479,4.2613" id="Stroke-54" stroke="#303030" stroke-linecap="round" stroke-linejoin="round"></path>
            <path d="M0.8667,13.0606 C1.2787,10.9076 3.3417,3.6486 12.6777,1.3686" id="Stroke-55" stroke="#303030" stroke-linecap="round" stroke-linejoin="round"></path>
            <path d="M12.5923,15.6548 C13.3803,5.9348 6.6553,1.7198 4.6483,0.6848" id="Stroke-56" stroke="#303030" stroke-linecap="round" stroke-linejoin="round"></path>
            <path d="M12.3647,10.9595 C12.3647,10.9595 7.8877,13.2915 5.4387,16.5805" id="Stroke-57" stroke="#303030" stroke-linecap="round" stroke-linejoin="round"></path>
            <path d="M9.5093,3.1744 C9.5093,4.0034 8.8373,4.6744 8.0093,4.6744 C7.1803,4.6744 6.5093,4.0034 6.5093,3.1744 C6.5093,2.3464 7.1803,1.6744 8.0093,1.6744 C8.8373,1.6744 9.5093,2.3464 9.5093,3.1744" id="Fill-58" fill="#303030"></path>
            <path d="M4.8496,7.3677 C4.8496,8.1967 4.1786,8.8677 3.3496,8.8677 C2.5206,8.8677 1.8496,8.1967 1.8496,7.3677 C1.8496,6.5387 2.5206,5.8677 3.3496,5.8677 C4.1786,5.8677 4.8496,6.5387 4.8496,7.3677" id="Fill-59" fill="#303030"></path>
            <path d="M13.8647,10.9649 C13.8647,11.7939 13.1927,12.4649 12.3647,12.4649 C11.5357,12.4649 10.8647,11.7939 10.8647,10.9649 C10.8647,10.1369 11.5357,9.4649 12.3647,9.4649 C13.1927,9.4649 13.8647,10.1369 13.8647,10.9649" id="Fill-60" fill="#303030"></path>
        </g>
    </g>
</svg>