<?xml version="1.0" encoding="UTF-8"?>
<svg width="16px" height="16px" viewBox="0 0 16 16" version="1.1" xmlns="http://www.w3.org/2000/svg" xmlns:xlink="http://www.w3.org/1999/xlink">
    <!-- Generator: Sketch 50.2 (55047) - http://www.bohemiancoding.com/sketch -->
    <title>office_active</title>
    <desc>Created with Sketch.</desc>
    <defs></defs>
    <g id="office_active" stroke="none" stroke-width="1" fill="none" fill-rule="evenodd">
        <g id="Group-4" transform="translate(0.000000, 0.500000)">
            <path d="M15.125,3.5 L0.875,3.5 C0.3555,3.5 0,3.026 0,2.5 L0,1.5 C0,0.974 0.3555,0.5 0.875,0.5 L15.125,0.5 C15.6445,0.5 16,0.974 16,1.5 L16,2.5 C16,3.026 15.6445,3.5 15.125,3.5 Z" id="Stroke-86" fill="#2CA7F8" fill-rule="nonzero"></path>
            <path d="M3,3.4839 L3,10.3172333 C3,10.4059459 3.08044577,10.4839 3.1875,10.4839 L12.8125,10.4839 C12.9195542,10.4839 13,10.4059459 13,10.3172333 L13,3.4839 L3,3.4839 Z M12.8125,11.4839 L3.1875,11.4839 C2.53507911,11.4839 2,10.9653937 2,10.3172333 L2,2.9839 C2,2.70775763 2.22385763,2.4839 2.5,2.4839 L13.5,2.4839 C13.7761424,2.4839 14,2.70775763 14,2.9839 L14,10.3172333 C14,10.9653937 13.4649209,11.4839 12.8125,11.4839 Z" id="Stroke-87" fill="#2CA7F8" fill-rule="nonzero"></path>
            <path d="M8.5,11 L8.5,15" id="Stroke-88" stroke="#2CA7F8" stroke-linecap="round" stroke-linejoin="round"></path>
            <path d="M7.9141,11.0699 L5.0861,13.8979" id="Stroke-89" stroke="#2CA7F8" stroke-linecap="round" stroke-linejoin="round"></path>
            <path d="M9.0859,11.0699 L11.9139,13.8979" id="Stroke-90" stroke="#2CA7F8" stroke-linecap="round" stroke-linejoin="round"></path>
            <path d="M8,5.5 L8,7.5 L10,7.5 C10,8.6045695 9.1045695,9.5 8,9.5 C6.8954305,9.5 6,8.6045695 6,7.5 C6,6.3954305 6.8954305,5.5 8,5.5 Z M9,4.5 C10.1045695,4.5 11,5.3954305 11,6.5 L9,6.5 L9,4.5 Z" id="Combined-Shape" fill="#2CA7F8"></path>
        </g>
    </g>
</svg>