<?xml version="1.0" encoding="UTF-8"?>
<svg width="24px" height="24px" viewBox="0 0 24 24" version="1.1" xmlns="http://www.w3.org/2000/svg" xmlns:xlink="http://www.w3.org/1999/xlink">
    <!-- Generator: Sketch 49.3 (51167) - http://www.bohemiancoding.com/sketch -->
    <title>office_active</title>
    <desc>Created with Sketch.</desc>
    <defs></defs>
    <g id="office_active" stroke="none" stroke-width="1" fill="none" fill-rule="evenodd">
        <path d="M20,16.5 C20,16.775 19.776,17 19.5,17 L5.5,17 C5.224,17 5,16.775 5,16.5 L5,6 L20,6 L20,16.5 Z M22,3 L3,3 C2.449,3 2,3.448 2,4 L2,5 C2,5.552 2.449,6 3,6 L4,6 L4,16.5 C4,17.327 4.673,18 5.5,18 L10.793,18 L8.732,20.061 C8.537,20.256 8.537,20.572 8.732,20.768 C8.83,20.865 8.958,20.914 9.086,20.914 C9.214,20.914 9.342,20.865 9.439,20.768 L12,18.207 L12,22 C12,22.276 12.224,22.5 12.5,22.5 C12.776,22.5 13,22.276 13,22 L13,18.207 L15.561,20.768 C15.658,20.865 15.786,20.914 15.914,20.914 C16.042,20.914 16.17,20.865 16.268,20.768 C16.463,20.572 16.463,20.256 16.268,20.061 L14.207,18 L19.5,18 C20.327,18 21,17.327 21,16.5 L21,6 L22,6 C22.551,6 23,5.552 23,5 L23,4 C23,3.448 22.551,3 22,3 Z" id="Fill-93" fill="#2CA7F8"></path>
        <path d="M17.0879,11 L16.5389,11 L12.9999,11 L12.9999,7.515 L12.9999,6.973 L13.5409,7.017 C15.7839,7.199 16.8299,8.228 17.0369,10.454 L17.0879,11 Z M11.5,16 C9.57,16 8,14.43 8,12.5 C8,10.57 9.57,9 11.5,9 L12,9 L12,12 L15,12 L15,12.5 C15,14.43 13.43,16 11.5,16 Z" id="Combined-Shape" fill="#2CA7F8"></path>
    </g>
</svg>