<?xml version="1.0" encoding="UTF-8"?>
<svg width="24px" height="24px" viewBox="0 0 24 24" version="1.1" xmlns="http://www.w3.org/2000/svg" xmlns:xlink="http://www.w3.org/1999/xlink">
    <!-- Generator: Sketch 49.3 (51167) - http://www.bohemiancoding.com/sketch -->
    <title>others_active</title>
    <desc>Created with Sketch.</desc>
    <defs></defs>
    <g id="others_active" stroke="none" stroke-width="1" fill="none" fill-rule="evenodd">
        <path d="M16.54,13.529 C15.711,13.529 15.04,12.857 15.04,12.029 C15.04,11.2 15.711,10.529 16.54,10.529 C17.369,10.529 18.04,11.2 18.04,12.029 C18.04,12.857 17.369,13.529 16.54,13.529 M12.024,13.529 C11.196,13.529 10.524,12.857 10.524,12.029 C10.524,11.2 11.196,10.529 12.024,10.529 C12.853,10.529 13.524,11.2 13.524,12.029 C13.524,12.857 12.853,13.529 12.024,13.529 M7.519,13.529 C6.691,13.529 6.019,12.857 6.019,12.029 C6.019,11.2 6.691,10.529 7.519,10.529 C8.348,10.529 9.019,11.2 9.019,12.029 C9.019,12.857 8.348,13.529 7.519,13.529 M12.0004985,2.5 C6.76176609,2.5 2.5,6.76076919 2.5,11.9995015 C2.5,17.2382339 6.76176609,21.4990031 12.0004985,21.4990031 C17.2382339,21.4990031 21.5,17.2382339 21.5,11.9995015 C21.5,6.76076919 17.2382339,2.5 12.0004985,2.5" id="Fill-84" fill="#2CA7F8"></path>
    </g>
</svg>