<?xml version="1.0" encoding="UTF-8"?>
<svg width="24px" height="24px" viewBox="0 0 24 24" version="1.1" xmlns="http://www.w3.org/2000/svg" xmlns:xlink="http://www.w3.org/1999/xlink">
    <!-- Generator: Sketch 49.3 (51167) - http://www.bohemiancoding.com/sketch -->
    <title>ranking_active</title>
    <desc>Created with Sketch.</desc>
    <defs></defs>
    <g id="ranking_active" stroke="none" stroke-width="1" fill="none" fill-rule="evenodd">
        <path d="M21.005,10.023 C21.005,9.333 20.445,8.773 19.755,8.773 C19.065,8.773 18.505,9.333 18.505,10.023 C18.505,10.221 18.56,10.401 18.642,10.567 L15.176,13.643 L12.466,6.396 C12.91,6.204 13.221,5.764 13.221,5.25 C13.221,4.56 12.662,4 11.971,4 C11.281,4 10.721,4.56 10.721,5.25 C10.721,5.764 11.033,6.204 11.476,6.396 L8.777,13.643 L5.34,10.601 C5.434,10.426 5.5,10.235 5.5,10.023 C5.5,9.333 4.941,8.773 4.25,8.773 C3.56,8.773 3,9.333 3,10.023 C3,10.669 3.497,11.182 4.125,11.248 L5.983,19.608 C6.034,19.837 6.237,20 6.471,20 L17.471,20 C17.706,20 17.909,19.837 17.96,19.608 L19.815,11.261 C20.476,11.228 21.005,10.692 21.005,10.023" id="Fill-40" fill="#2CA7F8"></path>
    </g>
</svg>