<?xml version="1.0" encoding="UTF-8"?>
<svg width="24px" height="24px" viewBox="0 0 24 24" version="1.1" xmlns="http://www.w3.org/2000/svg" xmlns:xlink="http://www.w3.org/1999/xlink">
    <!-- Generator: Sketch 49.3 (51167) - http://www.bohemiancoding.com/sketch -->
    <title>reading_active</title>
    <desc>Created with Sketch.</desc>
    <defs></defs>
    <g id="reading_active" stroke="none" stroke-width="1" fill="none" fill-rule="evenodd">
        <path d="M21.5,7 C21.776,7 22,7.224 22,7.5 L22,18.5 C22,18.776 21.776,19 21.5,19 L15,19 L15,19.531 C15,19.664 14.962,19.776 14.868,19.87 C14.774,19.964 14.663,20 14.531,20 L14.528,20 L10.497,19.984 C10.222,19.982 10,19.775 10,19.5 L10,19 L3.5,19 C3.224,19 3,18.776 3,18.5 L3,7.5 C3,7.224 3.224,7 3.5,7 C3.776,7 4,7.224 4,7.5 L4,18 L10.5,18 C10.776,18 11,18.224 11,18.5 L11,19.003 L14,19.028 L14,18.5 C14,18.224 14.255,18 14.531,18 L21,18 L21,7.5 C21,7.224 21.224,7 21.5,7 Z M12,3.885 L12,16.818 C11.53,16.574 10.387,16.069 8.995,16.069 C7.125,16.069 5.788,16.933 5.774,16.942 C5.691,16.996 5.596,17.024 5.5,17.024 C5.418,17.024 5.337,17.004 5.263,16.964 C5.101,16.876 5,16.707 5,16.524 L5,4.797 C5,4.653 5.062,4.516 5.171,4.421 C5.237,4.363 6.819,3 9,3 C10.241,3 11.308,3.476 12,3.885 Z M19.84,4.471 C19.942,4.566 20,4.699 20,4.838 L20,16.524 C20,16.706 19.9,16.874 19.739,16.962 C19.578,17.049 19.382,17.042 19.229,16.944 C19.215,16.935 17.844,16.069 15.995,16.069 C14.599,16.069 13.465,16.575 13,16.817 L13,3.875 C13.689,3.47 14.753,3 16,3 C18.227,3 19.775,4.411 19.84,4.471 Z" id="Combined-Shape" fill="#2CA7F8"></path>
    </g>
</svg>