<?xml version="1.0" encoding="UTF-8"?>
<svg width="24px" height="24px" viewBox="0 0 24 24" version="1.1" xmlns="http://www.w3.org/2000/svg" xmlns:xlink="http://www.w3.org/1999/xlink">
    <!-- Generator: Sketch 49.3 (51167) - http://www.bohemiancoding.com/sketch -->
    <title>uninstall_active</title>
    <desc>Created with Sketch.</desc>
    <defs></defs>
    <g id="uninstall_active" stroke="none" stroke-width="1" fill="none" fill-rule="evenodd">
        <path d="M7,8 L5,8 L5,7 L19,7 L19,8 L17,8 L17,18.4987692 C17,18.7755913 16.7723472,19 16.4903505,19 L7.50964952,19 C7.22817786,19 7,18.7702494 7,18.4987692 L7,8 Z M11,9 L10,9 L10,17 L11,17 L11,9 Z M14,9 L13,9 L13,17 L14,17 L14,9 Z M15,6 L9,6 L9,5 L15,5 L15,6 Z" id="Combined-Shape" fill="#2CA7F8"></path>
    </g>
</svg>