<?xml version="1.0" encoding="UTF-8"?>
<svg width="24px" height="24px" viewBox="0 0 24 24" version="1.1" xmlns="http://www.w3.org/2000/svg" xmlns:xlink="http://www.w3.org/1999/xlink">
    <!-- Generator: Sketch 49.3 (51167) - http://www.bohemiancoding.com/sketch -->
    <title>video_active</title>
    <desc>Created with Sketch.</desc>
    <defs></defs>
    <g id="video_active" stroke="none" stroke-width="1" fill="none" fill-rule="evenodd">
        <path d="M19,9 L16,9 L16,12 L19,12 L19,13 L16,13 L16,16 L19,16 L19,17 L16,17 L16,20 L15,20 L15,13 L9,13 L9,20 L8,20 L8,17 L5,17 L5,16 L8,16 L8,13 L5,13 L5,12 L8,12 L8,9 L5,9 L5,8 L8,8 L8,5 L9,5 L9,12 L15,12 L15,5 L16,5 L16,8 L19,8 L19,9 Z M19.966,5 C19.884,4 19.493,4 19,4 L17.823,4 L15,4 L9,4 L5.817,4 L5,4 C4.448,4 4,4.448 4,5 L4,20 C4,20.553 4.448,21 5,21 L19,21 C19.552,21 20,20.553 20,20 L20,5 L19.966,5 Z" id="Fill-61" fill="#2CA7F8"></path>
    </g>
</svg>