<?xml version="1.0" encoding="UTF-8"?>
<svg width="16px" height="16px" viewBox="0 0 16 16" version="1.1" xmlns="http://www.w3.org/2000/svg" xmlns:xlink="http://www.w3.org/1999/xlink">
    <!-- Generator: Sketch 50.2 (55047) - http://www.bohemiancoding.com/sketch -->
    <title>game_active</title>
    <desc>Created with Sketch.</desc>
    <defs></defs>
    <g id="game_active" stroke="none" stroke-width="1" fill="none" fill-rule="evenodd">
        <g id="Group" transform="translate(-1.000000, 2.000000)" fill="#2CA7F8" fill-rule="nonzero">
            <path d="M12.304163,0.5 C14.3502325,0.5 15.9994478,2.67017281 16.7060503,5.55794777 C17.4013837,8.39966783 16.9078178,10.8535714 15.0799743,10.8535714 C14.3557216,10.8535714 13.7068561,10.5969142 12.916714,10.0819693 C12.7759837,9.99025363 12.6310125,9.89092244 12.4540785,9.76601649 C12.3613386,9.70054704 12.0445007,9.47432614 11.9990239,9.4420563 C10.7592279,8.56231073 10.0038139,8.215 8.99703167,8.215 C7.76411517,8.215 6.99194863,8.57627293 5.9593474,9.43972377 C5.92333244,9.46983911 5.47844373,9.84839639 5.34617023,9.95637171 C4.48281218,10.6611339 3.79874878,10.9628505 2.8639642,10.8869162 C1.07636707,10.741098 0.60165458,8.28516933 1.30266691,5.48500253 C2.01667286,2.63293317 3.67261736,0.5 5.71911111,0.5 C6.06854206,0.5 6.39652189,0.591223261 6.76215359,0.765090583 C6.87114526,0.816918936 6.98203379,0.875148751 7.1149256,0.949098415 C7.18901175,0.990324779 7.4423639,1.1346061 7.45000357,1.13892075 C8.09550219,1.50347855 8.49455825,1.64857143 9.0112423,1.64857143 C9.50861753,1.64857143 9.89393756,1.50650828 10.5474007,1.13859493 C10.6925942,1.05637602 10.7749798,1.00972827 10.8410879,0.972957235 C10.9568549,0.908564732 11.0537058,0.856966747 11.1484044,0.810010609 C11.5602385,0.605803224 11.9174486,0.5 12.304163,0.5 Z M6.06631129,7.607 C7.55846056,7.607 8.7768376,6.4267355 8.7768376,4.96414286 C8.7768376,3.50155021 7.55846056,2.32128571 6.06631129,2.32128571 C4.57264045,2.32128571 3.35578497,3.50089051 3.35578497,4.96414286 C3.35578497,6.4273952 4.57264045,7.607 6.06631129,7.607 Z M6.06631129,6.607 C5.11808739,6.607 4.35578497,5.86803337 4.35578497,4.96414286 C4.35578497,4.06025235 5.11808739,3.32128571 6.06631129,3.32128571 C7.01316266,3.32128571 7.7768376,4.06107184 7.7768376,4.96414286 C7.7768376,5.86721388 7.01316266,6.607 6.06631129,6.607 Z M6.03256392,5.87864286 C6.54024813,5.87864286 6.95287971,5.47792857 6.95287971,4.98935714 C6.95287971,4.49292857 6.54024813,4.09364286 6.03256392,4.09364286 C5.52340603,4.09364286 5.11077445,4.49292857 5.11077445,4.98935714 C5.11077445,5.47792857 5.52340603,5.87864286 6.03256392,5.87864286 Z M10.6468166,5.88564286 C11.1545008,5.88564286 11.5671323,5.4835 11.5671323,4.99135714 C11.5671323,4.49135714 11.1545008,4.08992857 10.6468166,4.08992857 C10.1376587,4.08992857 9.72502708,4.49135714 9.72502708,4.99135714 C9.72502708,5.4835 10.1376587,5.88564286 10.6468166,5.88564286 Z M12.321585,7.49071429 C12.8292692,7.49071429 13.2419008,7.08928571 13.2419008,6.59214286 C13.2419008,6.09571429 12.8292692,5.69357143 12.321585,5.69357143 C11.8124271,5.69357143 11.3997955,6.09571429 11.3997955,6.59214286 C11.3997955,7.08928571 11.8124271,7.49071429 12.321585,7.49071429 Z M12.3208481,4.27357143 C12.830006,4.27357143 13.2419008,3.87142857 13.2419008,3.37357143 C13.2419008,2.87714286 12.830006,2.47428571 12.3208481,2.47428571 C11.8102166,2.47428571 11.3997955,2.87714286 11.3997955,3.37357143 C11.3997955,3.87142857 11.8102166,4.27357143 12.3208481,4.27357143 Z M13.9658481,5.88421429 C14.4779534,5.88421429 14.8898481,5.48135714 14.8898481,4.98921429 C14.8898481,4.48992857 14.4779534,4.0885 13.9658481,4.0885 C13.4603744,4.0885 13.0477429,4.48992857 13.0477429,4.98921429 C13.0477429,5.48135714 13.4603744,5.88421429 13.9658481,5.88421429 Z" id="Combined-Shape"></path>
        </g>
    </g>
</svg>