<?xml version="1.0" encoding="UTF-8"?>
<svg width="24px" height="24px" viewBox="0 0 24 24" version="1.1" xmlns="http://www.w3.org/2000/svg" xmlns:xlink="http://www.w3.org/1999/xlink">
    <!-- Generator: Sketch 49.3 (51167) - http://www.bohemiancoding.com/sketch -->
    <title>game</title>
    <desc>Created with Sketch.</desc>
    <defs></defs>
    <g id="game" stroke="none" stroke-width="1" fill="none" fill-rule="evenodd">
        <g id="Group" transform="translate(2.500000, 5.000000)">
            <path d="M13.6851653,0 C12.3261653,0 11.3291653,1.608 9.51416532,1.608 C7.64816532,1.608 6.66616532,0 5.34416532,0 C0.45616532,0 -1.85883468,12.816 1.77916532,13.144 C4.68616532,13.405 5.27116532,9.401 9.49616532,9.401 C12.9131653,9.401 14.6281653,13.095 17.2011653,13.095 C20.8541653,13.095 18.5721653,0 13.6851653,0 Z" id="Stroke-3" stroke="#303030" stroke-linecap="round" stroke-linejoin="round"></path>
            <path d="M5.51856532,8.5498 C3.86156532,8.5498 2.51856532,7.2068 2.51856532,5.5498 C2.51856532,3.8928 3.86156532,2.5498 5.51856532,2.5498 C7.17256532,2.5498 8.51856532,3.8928 8.51856532,5.5498 C8.51856532,7.2068 7.17256532,8.5498 5.51856532,8.5498 Z" id="Stroke-5" stroke="#303030" stroke-linecap="round" stroke-linejoin="round"></path>
            <path d="M11.7349653,6.8399 C11.0439653,6.8399 10.4839653,6.2769 10.4839653,5.5879 C10.4839653,4.8879 11.0439653,4.3259 11.7349653,4.3259 C12.4239653,4.3259 12.9839653,4.8879 12.9839653,5.5879 C12.9839653,6.2769 12.4239653,6.8399 11.7349653,6.8399" id="Fill-7" fill="#303030"></path>
            <path d="M5.47276532,6.8301 C4.78176532,6.8301 4.22176532,6.2691 4.22176532,5.5851 C4.22176532,4.8901 4.78176532,4.3311 5.47276532,4.3311 C6.16176532,4.3311 6.72176532,4.8901 6.72176532,5.5851 C6.72176532,6.2691 6.16176532,6.8301 5.47276532,6.8301" id="Fill-9" fill="#303030"></path>
            <path d="M14.0078653,9.087 C13.3168653,9.087 12.7568653,8.525 12.7568653,7.829 C12.7568653,7.134 13.3168653,6.571 14.0078653,6.571 C14.6968653,6.571 15.2568653,7.134 15.2568653,7.829 C15.2568653,8.525 14.6968653,9.087 14.0078653,9.087" id="Fill-11" fill="#303030"></path>
            <path d="M14.0068653,4.583 C13.3138653,4.583 12.7568653,4.02 12.7568653,3.323 C12.7568653,2.628 13.3138653,2.064 14.0068653,2.064 C14.6978653,2.064 15.2568653,2.628 15.2568653,3.323 C15.2568653,4.02 14.6978653,4.583 14.0068653,4.583" id="Fill-13" fill="#303030"></path>
            <path d="M16.2393653,6.8379 C15.5533653,6.8379 14.9933653,6.2739 14.9933653,5.5849 C14.9933653,4.8859 15.5533653,4.3239 16.2393653,4.3239 C16.9343653,4.3239 17.4933653,4.8859 17.4933653,5.5849 C17.4933653,6.2739 16.9343653,6.8379 16.2393653,6.8379" id="Fill-15" fill="#303030"></path>
        </g>
    </g>
</svg>