<?xml version="1.0" encoding="UTF-8"?>
<svg width="16px" height="16px" viewBox="0 0 16 16" version="1.1" xmlns="http://www.w3.org/2000/svg" xmlns:xlink="http://www.w3.org/1999/xlink">
    <!-- Generator: Sketch 50.2 (55047) - http://www.bohemiancoding.com/sketch -->
    <title>others_active</title>
    <desc>Created with Sketch.</desc>
    <defs></defs>
    <g id="others_active" stroke="none" stroke-width="1" fill="none" fill-rule="evenodd">
        <g id="Group" fill="#2CA7F8" fill-rule="nonzero">
            <path d="M8.00036727,0 C12.4117696,0 15.9998688,3.58783924 15.9998688,7.99950155 C15.9998688,12.4111639 12.4117696,15.9990031 8.00036727,15.9990031 C3.58830784,15.9990031 7.87071046e-05,12.4112938 7.87071046e-05,7.99950155 C7.87071046e-05,3.58770928 3.58830784,0 8.00036727,0 Z M12.5,9.5 C13.329,9.5 14,8.828 14,8 C14,7.171 13.329,6.5 12.5,6.5 C11.671,6.5 11,7.171 11,8 C11,8.828 11.671,9.5 12.5,9.5 Z M8,9.5 C8.829,9.5 9.5,8.828 9.5,8 C9.5,7.171 8.829,6.5 8,6.5 C7.172,6.5 6.5,7.171 6.5,8 C6.5,8.828 7.172,9.5 8,9.5 Z M3.5,9.5 C4.329,9.5 5,8.828 5,8 C5,7.171 4.329,6.5 3.5,6.5 C2.672,6.5 2,7.171 2,8 C2,8.828 2.672,9.5 3.5,9.5 Z" id="Combined-Shape"></path>
        </g>
    </g>
</svg>