<?xml version="1.0" encoding="UTF-8"?>
<svg width="100px" height="28px" viewBox="0 0 100 28" version="1.1" xmlns="http://www.w3.org/2000/svg" xmlns:xlink="http://www.w3.org/1999/xlink">
    <!-- Generator: Sketch 50.2 (55047) - http://www.bohemiancoding.com/sketch -->
    <title>paypal</title>
    <desc>Created with Sketch.</desc>
    <defs>
        <polygon id="path-1" points="0 0.157061224 18.1851174 0.157061224 18.1851174 21.3226122 0 21.3226122"></polygon>
        <polygon id="path-3" points="0.0713645237 0.162041441 12.463085 0.162041441 12.463085 13.7142857 0.0713645237 13.7142857"></polygon>
    </defs>
    <g id="paypal" stroke="none" stroke-width="1" fill="none" fill-rule="evenodd">
        <g id="Group-3" transform="translate(2.000000, 1.842939)">
            <mask id="mask-2" fill="white">
                <use xlink:href="#path-1"></use>
            </mask>
            <g id="Clip-2"></g>
            <path d="M0.498155102,21.3226122 C-0.112946939,21.1235918 -0.0207020408,20.6566531 0.0539102041,20.1843265 C0.6864,16.1857959 1.31480816,12.1866122 1.94419592,8.1877551 C2.30321633,5.90710204 2.66942041,3.62742857 3.01586939,1.34481633 C3.1188898,0.66644898 3.42599184,0.198367347 4.15186939,0.203428571 C7.24901224,0.224326531 10.352849,0.018122449 13.4410122,0.337469388 C15.3257469,0.532408163 16.9841959,1.21012245 17.8555429,3.08734694 C18.0506449,3.50742857 18.216849,3.93697959 18.179951,4.41469388 C17.9427265,6.1162449 17.9526857,6.00587755 16.2344816,5.84995918 C14.1561143,5.66138776 12.0602776,5.59363265 9.96754286,5.69567347 C9.80493061,5.7035102 9.64329796,5.73012245 9.47986939,5.73012245 C8.00721633,5.72930612 7.8779102,5.87167347 7.55937959,7.32391837 C7.17537959,9.07510204 7.2341551,10.8930612 6.72346122,12.6230204 C6.61146122,13.0026122 6.85195102,13.3671837 6.82076735,13.7502041 C6.3179102,14.9178776 6.22893061,16.1740408 6.05293061,17.4075102 C5.9146449,18.3768163 5.73684898,19.3379592 5.55121633,20.2974694 C5.36362449,21.2659592 5.29195102,21.3004082 4.32868571,21.3062857 C3.05178776,21.3139592 1.7748898,21.2829388 0.498155102,21.3226122" id="Fill-1" fill="#013086" mask="url(#mask-2)"></path>
        </g>
        <path d="M70.9510367,7.57275102 C71.8489959,7.57275102 72.7472816,7.55283265 73.6445878,7.57634286 C76.7516898,7.65748571 78.2640163,9.53062857 77.6969959,12.5761796 C77.0876898,15.8486694 75.1418939,17.4826286 71.8181388,17.5113633 C71.3556082,17.5152816 70.8930776,17.5133224 70.4305469,17.5169143 C69.4140571,17.5245878 69.2486694,17.6640163 69.097649,18.6344653 C68.9387918,19.6542204 68.7657306,20.6720163 68.6269551,21.6943837 C68.5479347,22.276098 68.2956898,22.5717714 67.6679347,22.5355265 C67.0169959,22.4979755 66.3598531,22.4893224 65.7100571,22.5345469 C64.9255673,22.5889143 64.7766694,22.2119347 64.8868735,21.5387918 C65.1107102,20.1724245 65.2994449,18.8003429 65.5172408,17.4328327 C65.9874449,14.4818122 66.4852408,11.5350367 66.9298122,8.58009796 C67.0401796,7.8467102 67.3432,7.52736327 68.0943837,7.55773061 C69.0452408,7.59593469 69.9987102,7.56687347 70.9510367,7.56687347 L70.9510367,7.57275102 Z" id="Fill-4" fill="#029BDD"></path>
        <path d="M32.8426939,7.56917551 C33.9339592,7.63954286 35.2139592,7.44378776 36.4810612,7.70909388 C38.6317551,8.15954286 39.6830204,9.53358367 39.5377143,11.7299918 C39.2905306,15.4663184 37.1189388,17.4991347 33.3574694,17.5201959 C30.6684898,17.5353796 31.1083265,17.2323592 30.6542857,19.7864816 C30.5497959,20.3739102 30.4564082,20.9642776 30.3858776,21.5567673 C30.3088163,22.2046041 29.9945306,22.5272163 29.3150204,22.5001143 C28.6642449,22.4741551 28.0103673,22.4795429 27.3595918,22.5076245 C26.6962449,22.5363592 26.5034286,22.259298 26.6079184,21.616849 C27.0954286,18.6171755 27.5566531,15.6134204 28.0278367,12.6109714 C28.2423673,11.2434612 28.4720816,9.87823673 28.6683265,8.50795102 C28.7667755,7.82158367 29.0902041,7.52117551 29.8097143,7.55742041 C30.7582857,7.60525714 31.7109388,7.56917551 32.8426939,7.56917551" id="Fill-6" fill="#013087"></path>
        <path d="M2.4981551,23.165551 C3.76835918,23.1451429 5.03986939,23.0817959 6.30795102,23.122449 C6.96297143,23.1435102 7.21309388,22.9214694 7.3061551,22.2950204 C7.58778776,20.3998367 7.93178776,18.5137959 8.21309388,16.618449 C8.28460408,16.1373061 8.46860408,15.749551 8.77407347,15.3967347 C9.00803265,14.9245714 9.45733878,15.0311837 9.8464,15.0158367 C10.9562776,14.9717551 12.0712163,15.0896327 13.1776653,14.9472653 C16.7430531,14.4888163 18.8937469,12.456 19.7644408,9.0037551 C19.8411755,8.6997551 19.8410122,8.33861224 20.2109714,8.18906122 C21.1797878,8.58008163 21.6850939,9.3802449 21.9474612,10.3178776 C22.632849,12.7670204 21.4477061,16.2790204 19.4292571,17.819102 C18.0266449,18.8891429 16.3794612,19.1820408 14.6622367,19.2132245 C13.1699918,19.2403265 13.0862367,19.3247347 12.8581551,20.8004898 C12.6545633,22.1165714 12.4207673,23.4280816 12.2307265,24.7461224 C12.1234612,25.4899592 11.7541551,25.8520816 10.9864816,25.8380408 C9.89897143,25.8181224 8.81080816,25.8238367 7.72313469,25.8390204 C7.0501551,25.8484898 6.79529796,25.5774694 6.89456327,24.8871837 C7.13603265,23.2099592 7.1184,23.2122449 5.42729796,23.2053878 C4.45080816,23.2014694 3.47448163,23.1794286 2.4981551,23.165551" id="Fill-8" fill="#019BDD"></path>
        <path d="M86.0398367,13.4574857 C86.0328163,12.6431184 86.4386939,12.4643429 87.0470204,12.4917714 C87.6703673,12.5201796 88.2961633,12.5023837 88.9208163,12.5038531 C89.3789388,12.5048327 89.6512653,12.6676082 89.5686531,13.1900571 C89.1152653,16.0560163 88.6680816,18.9226286 88.2171429,21.788751 C88.1348571,22.3118531 87.7872653,22.5149551 87.2961633,22.5211592 C86.7258776,22.5285061 86.154449,22.5036898 85.5853061,22.529649 C84.923102,22.5598531 84.5923265,22.3108735 84.7500408,21.5281796 C83.898449,21.8829551 83.2452245,22.4651592 82.3673469,22.6158531 C78.6901224,23.2465469 76.3361633,20.8119347 77.1028571,17.1255673 C77.8207347,13.6728327 80.9751837,11.6569959 84.3727347,12.4632 C84.9764898,12.6065469 85.4706939,12.9102204 86.0398367,13.4574857" id="Fill-10" fill="#029BDD"></path>
        <path d="M47.8111347,13.4589224 C47.7446857,12.5972082 48.1812571,12.4729633 48.7838694,12.5034939 C49.3804408,12.533698 49.9802776,12.5286367 50.5773388,12.5067592 C51.211298,12.4837388 51.3925224,12.7895347 51.3002776,13.3692898 C50.8563592,16.1585143 50.4207673,18.9490449 49.9794612,21.7387592 C49.899298,22.2461878 49.5904,22.4923918 49.0787265,22.4915755 C48.5077878,22.4905959 47.9355429,22.4670857 47.3664,22.4989224 C46.648849,22.5390857 46.2068898,22.3627592 46.5649306,21.3528 C45.4666449,22.1890449 44.4449306,22.7007184 43.2354612,22.7299429 C40.3845224,22.7986776 38.6948898,21.1359837 38.7234612,18.2806367 C38.7629714,14.3542694 42.2633796,11.550351 46.0160327,12.4390041 C46.7388082,12.6101061 46.9151347,12.7069224 47.8111347,13.4589224" id="Fill-12" fill="#023087"></path>
        <g id="Group-16" transform="translate(52.530612, 12.291918)">
            <mask id="mask-4" fill="white">
                <use xlink:href="#path-3"></use>
            </mask>
            <g id="Clip-15"></g>
            <path d="M5.27709388,5.74377143 C6.29717551,4.25054694 7.2944,2.93528163 8.12721633,1.52287347 C8.72770612,0.50475102 9.44835918,-0.00512653061 10.6269714,0.217240816 C11.2207673,0.329404082 12.0491755,-0.118595918 12.3745633,0.487771429 C12.7280327,1.14589388 11.9317878,1.62997551 11.5868082,2.13609796 C9.16852245,5.68417959 6.69570612,9.19503673 4.27921633,12.7444245 C3.81831837,13.4213224 3.33244082,13.8028735 2.48313469,13.696751 C1.94746122,13.6298122 1.39627755,13.696751 0.852930612,13.6787918 C0.140930612,13.6552816 -0.0264163265,13.3468735 0.370808163,12.7661388 C1.06125714,11.7565061 1.74093061,10.7365878 2.49129796,9.77250612 C2.84476735,9.31862857 2.84476735,8.93266939 2.67072653,8.43454694 C1.83742041,6.05005714 1.02452245,3.65822041 0.211787755,1.26654694 C-0.0783346939,0.412832653 0.0455836735,0.233077551 0.920032653,0.218383673 C1.54550204,0.207934694 2.17211429,0.241404082 2.79644082,0.21397551 C3.38582857,0.188179592 3.6901551,0.45364898 3.85031837,1.00532245 C4.29374694,2.5316898 4.76476735,4.04989388 5.27709388,5.74377143" id="Fill-14" fill="#013087" mask="url(#mask-4)"></path>
        </g>
        <path d="M20.2109224,8.18897959 C19.8870041,9.22065306 19.6724735,10.2900408 19.1665143,11.2591837 C17.7954122,13.8859592 15.4848816,14.9909388 12.662351,15.2105306 C11.6888,15.2862857 10.7056163,15.2376327 9.72684082,15.2459592 C9.40177959,15.2487347 9.07198367,15.2217959 8.77418776,15.3966531 C8.25271837,15.2167347 8.41386122,14.7125714 8.49288163,14.4572245 C9.0723102,12.5826122 8.98039184,10.6069388 9.42022857,8.71306122 C9.6850449,7.5724898 10.0982694,7.24302041 11.2808,7.37118367 C11.6496163,7.41118367 12.0305143,7.32253061 12.4055347,7.32612245 C14.2102694,7.34342857 16.0150041,7.3635102 17.8194122,7.40432653 C18.1660245,7.41216327 18.5327184,7.46146939 18.8514122,7.58881633 C19.539902,7.86391837 19.8571265,7.6562449 19.9635755,6.93755102 C19.9962286,6.71681633 19.9665143,6.43681633 20.1800653,6.25771429 C20.190351,6.90146939 20.2006367,7.54522449 20.2109224,8.18897959" id="Fill-17" fill="#012268"></path>
        <path d="M91.512898,22.5246041 C89.8632653,22.5265633 89.8686531,22.5273796 90.1218776,20.9228082 C90.7863673,16.7162776 91.4549388,12.5104 92.095102,8.30011429 C92.1770612,7.76182857 92.3734694,7.53309388 92.9244898,7.5621551 C93.5475102,7.59513469 94.175102,7.59676735 94.7982857,7.56493061 C95.4456327,7.53195102 95.608898,7.83644082 95.5153469,8.41505306 C95.1257959,10.8245224 94.7445714,13.2354612 94.361551,15.6460735 C94.0848163,17.3877878 93.7894694,19.1268898 93.5404898,20.8726857 C93.3062041,22.5143184 93.2712653,22.5539918 91.512898,22.5246041" id="Fill-19" fill="#019BDD"></path>
        <path d="M70.9614857,14.5280327 C69.7975673,14.5600327 69.7854857,14.5585633 69.9067918,13.5943184 C70.0117714,12.7593796 70.1525061,11.9291755 70.2685878,11.0955429 C70.3069551,10.8196245 70.4414857,10.6132571 70.7131592,10.5877878 C71.5005878,10.5143184 72.2958531,10.4868898 73.0356082,10.8292571 C73.6839347,11.129502 73.7828735,11.7237878 73.7214857,12.3508898 C73.6383837,13.2000327 73.3758531,13.9518694 72.476751,14.283298 C71.9317714,14.4842776 71.3583837,14.4960327 70.9614857,14.5280327" id="Fill-21" fill="#FAFDFC"></path>
        <path d="M33.1261878,10.5666122 C33.3797388,10.5666122 33.5436571,10.5532245 33.7048,10.5687347 C34.9168816,10.6846531 35.4308408,11.0903673 35.4780245,11.9592653 C35.5470857,13.2330612 34.9802286,14.1507755 33.8976163,14.3736327 C33.2927184,14.4982041 32.6581061,14.4730612 32.0393306,14.5388571 C31.5581878,14.5899592 31.4964735,14.3543673 31.5642286,13.9581224 C31.6968,13.1835918 31.8507592,12.4092245 31.917698,11.6278367 C31.9900245,10.7853878 32.3168816,10.3486531 33.1261878,10.5666122" id="Fill-23" fill="#FAFCFB"></path>
        <path d="M82.5822531,19.9584327 C81.2389061,19.9388408 80.5210286,19.2033306 80.5435592,17.8692898 C80.570498,16.2666776 81.8157224,15.0508408 83.4165388,15.0640653 C84.7829061,15.0753306 85.5894367,15.8642286 85.5669061,17.1674122 C85.5394776,18.7661061 84.2387429,19.9825959 82.5822531,19.9584327" id="Fill-25" fill="#FBFCFC"></path>
        <path d="M45.1768816,15.0572082 C46.4740245,15.0645551 47.3321469,15.8859429 47.3176163,17.105698 C47.2981878,18.7210449 46.017698,19.9643102 44.3790041,19.9589224 C43.0864327,19.9548408 42.2666776,19.2000653 42.2570449,18.0051265 C42.2433306,16.3332898 43.5168,15.0477388 45.1768816,15.0572082" id="Fill-27" fill="#FCFDFC"></path>
    </g>
</svg>