<?xml version="1.0" encoding="UTF-8"?>
<svg width="16px" height="16px" viewBox="0 0 16 16" version="1.1" xmlns="http://www.w3.org/2000/svg" xmlns:xlink="http://www.w3.org/1999/xlink">
    <!-- Generator: Sketch 50.2 (55047) - http://www.bohemiancoding.com/sketch -->
    <title>ranking_active</title>
    <desc>Created with Sketch.</desc>
    <defs></defs>
    <g id="ranking_active" stroke="none" stroke-width="1" fill="none" fill-rule="evenodd">
        <path d="M12.5821041,14.07 L3.41879446,14.07 L2,7.60773442 L5.02448521,10.3176287 C5.13590416,10.4158726 5.28865593,10.4540786 5.43152377,10.417692 C5.57529015,10.3813053 5.69210034,10.2757841 5.74421565,10.1347859 L8.00134781,4 L10.2683639,10.1356956 C10.3195807,10.2766938 10.4372894,10.3813053 10.5801572,10.417692 C10.7257207,10.4531689 10.8766754,10.4158726 10.9871958,10.3167191 L14,7.61046341 L12.5821041,14.07 Z" id="Fill-37" stroke="#2CA7F8" fill="#2CA7F8"></path>
        <path d="M8,5 C7.17157288,5 6.5,4.32842712 6.5,3.5 C6.5,2.67157288 7.17157288,2 8,2 C8.82842712,2 9.5,2.67157288 9.5,3.5 C9.5,4.32842712 8.82842712,5 8,5 Z M1.5,8 C0.671572875,8 0,7.32842712 0,6.5 C0,5.67157288 0.671572875,5 1.5,5 C2.32842712,5 3,5.67157288 3,6.5 C3,7.32842712 2.32842712,8 1.5,8 Z M14.5,8 C13.6715729,8 13,7.32842712 13,6.5 C13,5.67157288 13.6715729,5 14.5,5 C15.3284271,5 16,5.67157288 16,6.5 C16,7.32842712 15.3284271,8 14.5,8 Z" id="Combined-Shape" fill="#2CA7F8" fill-rule="nonzero"></path>
    </g>
</svg>