<?xml version="1.0" encoding="UTF-8"?>
<svg width="16px" height="16px" viewBox="0 0 16 16" version="1.1" xmlns="http://www.w3.org/2000/svg" xmlns:xlink="http://www.w3.org/1999/xlink">
    <!-- Generator: Sketch 50.2 (55047) - http://www.bohemiancoding.com/sketch -->
    <title>reading_active</title>
    <desc>Created with Sketch.</desc>
    <defs></defs>
    <g id="reading_active" stroke="none" stroke-width="1" fill="none" fill-rule="evenodd">
        <path d="M8,0.494407003 C8.61138016,0.164802334 9.24773668,0 9.90906955,0 C10.9393808,0 11.969692,0.4 13.0000032,1.2 L13.0000223,10.3500439 C13.0000223,10.9023409 12.6162576,11.3500661 12.1428599,11.3500661 C12.0304736,11.3500661 11.9191844,11.3242815 11.8153265,11.2741798 C11.1600283,10.9580599 10.5268856,10.8 9.91589846,10.8 C9.33987194,10.8 8.76384542,10.9404891 8.1878189,11.2214673 C8.12615434,11.2515532 8.06318699,11.2725996 8,11.2851254 L8,0.494407003 Z M7,11.3360792 C6.93679651,11.3236153 6.87484135,11.3028902 6.81532649,11.2741798 C6.16002826,10.9580599 5.52688558,10.8 4.91589846,10.8 C4.33987194,10.8 3.76384542,10.9404891 3.1878189,11.2214673 C2.75106459,11.4345575 2.24895537,11.1941861 2.06634093,10.684623 C2.02255,10.5624297 2,10.4313053 2,10.2988617 L2,1.2 C2.90906849,0.4 3.87875834,0 4.90906955,0 C5.60604636,0 6.30302318,0.183045816 7,0.549137448 L7,11.3360808 Z" id="Combined-Shape" fill="#2CA7F8" fill-rule="nonzero"></path>
        <polyline id="Path-5" stroke="#2CA7F8" points="0.5 3.34782499 0.5 13.5 5.44010222 13.5 5.44010222 14.5 9.57762896 14.5 9.57762896 13.5 14.5 13.5 14.5 3.34782499"></polyline>
    </g>
</svg>