<?xml version="1.0" encoding="UTF-8"?>
<svg width="24px" height="24px" viewBox="0 0 24 24" version="1.1" xmlns="http://www.w3.org/2000/svg" xmlns:xlink="http://www.w3.org/1999/xlink">
    <!-- Generator: Sketch 49.3 (51167) - http://www.bohemiancoding.com/sketch -->
    <title>reading</title>
    <desc>Created with Sketch.</desc>
    <defs></defs>
    <g id="reading" stroke="none" stroke-width="1" fill="none" fill-rule="evenodd">
        <path d="M13,16.2069686 C13.0986214,16.1645141 13.2040324,16.1215088 13.3159192,16.0786222 C14.1481761,15.7596155 15.0507754,15.568 15.995,15.568 C16.9504098,15.568 17.8575176,15.759593 18.6890188,16.0786944 C18.7991206,16.1209476 18.9028745,16.1633235 19,16.2051838 L19,5.56980887 C18.8317318,5.43841001 18.5891208,5.27424475 18.2833337,5.1087003 C17.5792507,4.72752969 16.8091698,4.5 16,4.5 C15.2226921,4.5 14.4573896,4.7262767 13.7403148,5.1058961 C13.4870439,5.23997774 13.2586591,5.38359014 13.0598495,5.52649629 C13.0386251,5.5417526 13.0186663,5.55631249 13,5.57011282 L13,16.2069686 Z M12,16.2096039 L12,5.58037595 C11.9806141,5.56604612 11.9598477,5.55090246 11.9377317,5.5350146 C11.7369089,5.39074563 11.5067661,5.2458028 11.2522183,5.11051584 C10.5323702,4.72793123 9.76876652,4.5 9,4.5 C8.20536177,4.5 7.43619483,4.72124851 6.72416177,5.09198591 C6.41791163,5.25144253 6.17249745,5.40968599 6,5.53724647 L6,16.2025019 C6.09448358,16.1616178 6.19526522,16.1202649 6.30209872,16.079034 C7.12955008,15.7596903 8.03591384,15.568 8.995,15.568 C9.9355513,15.568 10.8388933,15.7595177 11.675208,16.0782886 C11.7903638,16.1221816 11.8987459,16.1661934 12,16.2096039 Z M13.2724352,4.2221039 C14.1231729,3.7717233 15.0421829,3.5 16,3.5 C16.9907052,3.5 17.9188118,3.77422031 18.7594163,4.2292997 C19.2632875,4.5020813 19.6308916,4.77750133 19.8399623,4.97135901 C19.9420053,5.06597686 20,5.19884069 20,5.338 L20,17.023 C20,17.4195249 19.560516,17.6582714 19.2278665,17.442456 C19.07143,17.3409636 18.7622486,17.1779071 18.3307312,17.0123056 C17.6069199,16.734532 16.8184652,16.568 15.995,16.568 C15.1830996,16.568 14.3987614,16.7345095 13.6738308,17.0123778 C13.2410589,17.1782606 12.9290422,17.3417591 12.7700643,17.4437913 C12.6063393,17.5488701 12.3965293,17.5494421 12.2322339,17.4452574 C12.0706083,17.3427657 11.7549839,17.1788756 11.319042,17.0127114 C10.5894192,16.7346073 9.8035737,16.568 8.995,16.568 C8.16821116,16.568 7.38126242,16.7344347 6.66215128,17.011966 C6.23382505,17.1772728 5.92826936,17.3399141 5.77449143,17.4409168 C5.44199963,17.6593003 5,17.4207967 5,17.023 L5,5.297 C5,5.15283538 5.06222588,5.01568654 5.17071175,4.92074311 C5.38392834,4.73414262 5.75649822,4.46839204 6.26233823,4.20501409 C7.10718017,3.76512649 8.02888823,3.5 9,3.5 C9.95060848,3.5 10.8679423,3.77381877 11.7215317,4.22748416 C12.0278627,4.39029285 12.287186,4.55378119 12.4927855,4.69969462 C12.6989752,4.55251077 12.9610986,4.3869255 13.2724352,4.2221039 Z M21.5,7.0156 C21.776,7.0156 22,7.2396 22,7.5156 L22,18.5156 C22,18.7916 21.776,19.0156 21.5,19.0156 L15,19.0156 L15,19.5466 C15,19.6796 14.962,19.7916 14.868,19.8856 C14.774,19.9796 14.663,20.0156 14.531,20.0156 L14.528,20.0156 L10.497,19.9996 C10.222,19.9976 10,19.7906 10,19.5156 L10,19.0156 L3.5,19.0156 C3.224,19.0156 3,18.7916 3,18.5156 L3,7.5156 C3,7.2396 3.224,7.0156 3.5,7.0156 C3.776,7.0156 4,7.2396 4,7.5156 L4,18.0156 L10.5,18.0156 C10.776,18.0156 11,18.2396 11,18.5156 L11,19.0186 L14,19.0436 L14,18.5156 C14,18.2396 14.255,18.0156 14.531,18.0156 L21,18.0156 L21,7.5156 C21,7.2396 21.224,7.0156 21.5,7.0156 Z" id="Combined-Shape" fill="#303030" fill-rule="nonzero"></path>
    </g>
</svg>