<?xml version="1.0" encoding="UTF-8"?>
<svg width="24px" height="24px" viewBox="0 0 24 24" version="1.1" xmlns="http://www.w3.org/2000/svg" xmlns:xlink="http://www.w3.org/1999/xlink">
    <!-- Generator: Sketch 49.3 (51167) - http://www.bohemiancoding.com/sketch -->
    <title>system_active</title>
    <desc>Created with Sketch.</desc>
    <defs></defs>
    <g id="system_active" stroke="none" stroke-width="1" fill="none" fill-rule="evenodd">
        <path d="M4,20 L20,20 L20,8 L4,8 L4,20 Z M14,6.5 L15,6.5 L15,5.5 L14,5.5 L14,6.5 Z M16,6.5 L17,6.5 L17,5.5 L16,5.5 L16,6.5 Z M18,6.5 L19,6.5 L19,5.5 L18,5.5 L18,6.5 Z M20,4 L4,4 C3.448,4 3,4.447 3,5 L3,20 C3,20.553 3.448,21 4,21 L20,21 C20.552,21 21,20.553 21,20 L21,5 C21,4.447 20.552,4 20,4 Z" id="Fill-78" fill="#2CA7F8"></path>
        <path d="M12,16.021 C10.896,16.021 10,15.125 10,14.021 C10,12.917 10.896,12.021 12,12.021 C13.104,12.021 14,12.917 14,14.021 C14,15.125 13.104,16.021 12,16.021 Z M15.845,13.182 C15.596,13.092 15.395,12.903 15.293,12.657 C15.191,12.412 15.199,12.134 15.312,11.894 L15.611,11.266 L14.754,10.408 L14.127,10.706 C13.887,10.82 13.608,10.825 13.363,10.722 C13.118,10.621 12.928,10.415 12.838,10.165 L12.606,9.5 L11.394,9.5 L11.162,10.165 C11.072,10.415 10.882,10.625 10.637,10.727 C10.391,10.83 10.113,10.822 9.873,10.708 L9.246,10.41 L8.389,11.266 L8.688,11.894 C8.801,12.133 8.809,12.413 8.707,12.658 C8.605,12.903 8.404,13.092 8.155,13.182 L7.5,13.415 L7.5,14.627 L8.155,14.859 C8.404,14.949 8.605,15.138 8.707,15.384 C8.809,15.629 8.801,15.907 8.688,16.147 L8.389,16.774 L9.246,17.63 L9.873,17.331 C10.113,17.216 10.392,17.207 10.637,17.309 C10.882,17.411 11.072,17.606 11.161,17.856 L11.394,18.5 L12.606,18.5 L12.837,17.861 C12.927,17.609 13.12,17.416 13.367,17.313 C13.61,17.211 13.884,17.218 14.123,17.332 L14.754,17.632 L15.611,16.775 L15.312,16.147 C15.199,15.907 15.191,15.629 15.293,15.384 C15.395,15.139 15.596,14.949 15.846,14.859 L16.5,14.627 L16.5,13.415 L15.845,13.182 Z" id="Fill-77" fill="#2CA7F8"></path>
    </g>
</svg>