<?xml version="1.0" encoding="utf-8"?>
<!-- Generator: Adobe Illustrator 18.1.1, SVG Export Plug-In . SVG Version: 6.00 Build 0)  -->
<!DOCTYPE svg PUBLIC "-//W3C//DTD SVG 1.1//EN" "http://www.w3.org/Graphics/SVG/1.1/DTD/svg11.dtd" [
	<!ENTITY ns_extend "http://ns.adobe.com/Extensibility/1.0/">
	<!ENTITY ns_ai "http://ns.adobe.com/AdobeIllustrator/10.0/">
	<!ENTITY ns_graphs "http://ns.adobe.com/Graphs/1.0/">
	<!ENTITY ns_vars "http://ns.adobe.com/Variables/1.0/">
	<!ENTITY ns_imrep "http://ns.adobe.com/ImageReplacement/1.0/">
	<!ENTITY ns_sfw "http://ns.adobe.com/SaveForWeb/1.0/">
	<!ENTITY ns_custom "http://ns.adobe.com/GenericCustomNamespace/1.0/">
	<!ENTITY ns_adobe_xpath "http://ns.adobe.com/XPath/1.0/">
]>
<svg version="1.1" id="图层_1" xmlns:x="&ns_extend;" xmlns:i="&ns_ai;" xmlns:graph="&ns_graphs;"
	 xmlns="http://www.w3.org/2000/svg" xmlns:xlink="http://www.w3.org/1999/xlink" x="0px" y="0px"
	 viewBox="-168.167 62.167 128 128" enable-background="new -168.167 62.167 128 128" xml:space="preserve">
<metadata>
	<sfw  xmlns="&ns_sfw;">
		<slices></slices>
		<sliceSourceBounds  width="16383" height="1000" x="-8174" y="-403.008" bottomLeftOrigin="true"></sliceSourceBounds>
	</sfw>
</metadata>
<g>
	<g>
		<rect x="-150" y="94" fill="#EDEDED" width="92" height="86"/>
		<path fill="#EDEDED" d="M-81.111,109.261c-1.116,0-2.022-0.906-2.022-2.024c0-16.841-9.877-32.178-20.874-32.178
			c-10.849,0-20.874,15.337-20.874,32.178c0,1.118-0.905,2.024-2.022,2.024c-1.116,0-2.022-0.906-2.022-2.024
			c0-17.134,10.315-36.226,24.918-36.226c14.77,0,24.918,19.092,24.918,36.226C-79.089,108.355-79.995,109.261-81.111,109.261z"/>
	</g>
	
		<linearGradient id="SVGID_1_" gradientUnits="userSpaceOnUse" x1="-138.6667" y1="-122.6667" x2="-138.6667" y2="-204" gradientTransform="matrix(0.75 0 0 -0.75 -5.086264e-006 27)">
		<stop  offset="0" style="stop-color:#CCCCCC"/>
		<stop  offset="1" style="stop-color:#CCCCCC"/>
	</linearGradient>
	<rect x="-150" y="119" fill="url(#SVGID_1_)" width="92" height="61"/>
	<path fill="#5F5F5F" d="M-140.975,178.053"/>
	<line fill="none" x1="-150" y1="177" x2="-150" y2="170"/>
	<rect x="-150" y="119" opacity="0.3" fill="#FFFFFF" enable-background="new    " width="13" height="61"/>
	<rect x="-124" y="119" opacity="0.3" fill="#FFFFFF" enable-background="new    " width="13" height="61"/>
	<rect x="-98" y="119" opacity="0.3" fill="#FFFFFF" enable-background="new    " width="13" height="61"/>
	<g opacity="0.3">
		<rect x="-72" y="119" fill="#FFFFFF" width="14" height="61"/>
	</g>
</g>
</svg>
