<?xml version="1.0" encoding="UTF-8"?>
<svg width="16px" height="16px" viewBox="0 0 16 16" version="1.1" xmlns="http://www.w3.org/2000/svg" xmlns:xlink="http://www.w3.org/1999/xlink">
    <!-- Generator: Sketch 50.2 (55047) - http://www.bohemiancoding.com/sketch -->
    <title>uninstall_active</title>
    <desc>Created with Sketch.</desc>
    <defs></defs>
    <g id="uninstall_active" stroke="none" stroke-width="1" fill="none" fill-rule="evenodd">
        <path d="M3,4 L1,4 L1,3 L15,3 L15,4 L13,4 L13,14.4987692 C13,14.7755913 12.7723472,15 12.4903505,15 L3.50964952,15 C3.22817786,15 3,14.7702494 3,14.4987692 L3,4 Z M7,5 L6,5 L6,13 L7,13 L7,5 Z M10,5 L9,5 L9,13 L10,13 L10,5 Z M11,2 L5,2 L5,1 L11,1 L11,2 Z" id="Combined-Shape" fill="#2CA7F8"></path>
    </g>
</svg>