<?xml version="1.0" encoding="UTF-8"?>
<svg width="24px" height="24px" viewBox="0 0 24 24" version="1.1" xmlns="http://www.w3.org/2000/svg" xmlns:xlink="http://www.w3.org/1999/xlink">
    <!-- Generator: Sketch 49.3 (51167) - http://www.bohemiancoding.com/sketch -->
    <title>upgrades</title>
    <desc>Created with Sketch.</desc>
    <defs></defs>
    <g id="upgrades" stroke="none" stroke-width="1" fill="none" fill-rule="evenodd">
        <path d="M12.5,20.55 C7.786,20.55 3.95,16.715 3.95,12 C3.95,7.286 7.786,3.45 12.5,3.45 C17.214,3.45 21.05,7.286 21.05,12 C21.05,16.715 17.214,20.55 12.5,20.55 M12.5,2.5 C7.262,2.5 3,6.762 3,12 C3,17.238 7.262,21.501 12.5,21.501 C17.738,21.501 22,17.238 22,12 C22,6.762 17.738,2.5 12.5,2.5" id="Fill-42" fill="#303030" transform="translate(12.500000, 12.000500) scale(1, -1) translate(-12.500000, -12.000500) "></path>
        <path d="M16.1584035,13.626 L13.0064035,16.88 L13.0064035,6.5 C13.0064035,6.224 12.7844035,6 12.5064035,6 C12.2284035,6 12.0064035,6.224 12.0064035,6.5 L12.0064035,16.883 L8.83940348,13.625 C8.63440348,13.443 8.31640348,13.459 8.12740348,13.665 C7.94340348,13.87 7.96040348,14.187 8.16740348,14.37 L12.1714035,18.373 C12.2664035,18.458 12.3874035,18.5 12.5064035,18.5 C12.6264035,18.5 12.7474035,18.457 12.8434035,18.372 L16.8324035,14.369 C17.0384035,14.186 17.0554035,13.869 16.8694035,13.664 C16.6834035,13.458 16.3654035,13.441 16.1584035,13.626" id="Fill-43" fill="#303030" transform="translate(12.499300, 12.250000) scale(1, -1) translate(-12.499300, -12.250000) "></path>
    </g>
</svg>