<?xml version="1.0" encoding="UTF-8"?>
<svg width="380px" height="111px" preserveAspectRatio="none" viewBox="0 0 380 111" version="1.1" xmlns="http://www.w3.org/2000/svg" xmlns:xlink="http://www.w3.org/1999/xlink">
    <!-- Generator: Sketch 46.2 (44496) - http://www.bohemiancoding.com/sketch -->
    <title>water_back</title>
    <desc>Created with Sketch.</desc>
    <defs></defs>
    <g id="对话框" stroke="none" stroke-width="1" fill="none" fill-rule="evenodd">
        <path d="M380,111 L380,5.9627078 C377.291256,5.86620897 372.511194,3.74648473 366.492913,4.86922473 C360.474632,5.99196472 358.422413,13.4452614 353.8665,13.3956432 C343.307893,13.281008 341.549759,4.54773375 331.811962,5.9627078 C322.074165,7.37768186 305.352899,11.8128193 298.618067,8.84199291 C291.883236,5.87116652 284.152474,2.08735564 277.780139,2.16161184 C268.777824,2.26666553 260.73265,19.5215286 245.895583,18.0459206 C231.058516,16.5703125 239.1012,15.0778637 224.996671,11.8128193 C210.892141,8.54777488 210.871984,14.8944141 199.630749,10.4127577 C188.389515,5.93110126 184.605009,-3.14052813 167.641724,3.1567133 C150.678438,9.45395474 152.006834,13.3956432 138.343539,13.3956432 C124.680243,13.3956432 127.286393,-0.3750708 107.154047,0.00783996049 C93.7682968,0.262432632 91.1127404,7.61927114 78.3984634,5.9627078 C65.6841864,4.30614447 52.8832517,0.801388893 43.6553525,0.262432632 C30.8851172,-0.483551272 19.2327357,7.44783172 0,5.9627078 L0,111 L380,111 Z" id="water_back" fill="#009DFF"></path>
    </g>
</svg>