<?xml version="1.0" encoding="UTF-8"?>
<svg width="100px" height="28px" viewBox="0 0 100 28" version="1.1" xmlns="http://www.w3.org/2000/svg" xmlns:xlink="http://www.w3.org/1999/xlink">
    <!-- Generator: Sketch 50.2 (55047) - http://www.bohemiancoding.com/sketch -->
    <title>微信支付</title>
    <desc>Created with Sketch.</desc>
    <defs></defs>
    <g id="微信支付" stroke="none" stroke-width="1" fill="none" fill-rule="evenodd">
        <path d="M29.8374877,7.72779248 L16.7727021,13.6043653 C14.0155408,11.477944 12.5124495,10.5503358 12.2634281,10.8215408 C12.0749419,11.0268179 13.1007055,13.5113248 15.3407188,18.2750616 L30.406255,8.54819746 C33.1105535,12.8389655 32.4896072,18.2905954 28.237624,22.1888225 C25.2455467,24.9314872 21.6168863,26.0504079 17.5665066,25.6396584 C16.2367702,25.5048813 13.6297781,24.9096999 13.6297781,24.9096999 C13.6297781,24.9096999 9.19090539,26.4834513 9.19090539,26.4834513 C9.19090539,26.4834513 10.2900193,22.8218982 9.19090539,22.0089507 C4.44696276,18.5001455 4.37274091,12.0367914 7.97294593,7.43612718 C12.0984684,2.16377273 20.6799027,0.897070028 26.5313221,4.69684036 C27.8762819,5.57023262 28.9804201,6.59903966 29.8374877,7.72779248 Z" id="Combined-Shape" fill="#2DC100"></path>
        <text font-family="SourceHanSansSC-Medium, Source Han Sans SC" font-size="14" font-weight="400" fill="#333333">
            <tspan x="38" y="19">微信支付</tspan>
        </text>
    </g>
</svg>