<?xml version="1.0" encoding="UTF-8"?>
<svg width="24px" height="24px" viewBox="0 0 24 24" version="1.1" xmlns="http://www.w3.org/2000/svg" xmlns:xlink="http://www.w3.org/1999/xlink">
    <!-- Generator: Sketch 49.3 (51167) - http://www.bohemiancoding.com/sketch -->
    <title>chat</title>
    <desc>Created with Sketch.</desc>
    <defs></defs>
    <g id="chat" stroke="none" stroke-width="1" fill="none" fill-rule="evenodd">
        <g id="Group" transform="translate(3.000000, 3.500000)">
            <path d="M3.184,13.534 L2.068,16.897 L5.625,14.794 C6.667,15.154 7.806,15.354 9,15.354 C13.971,15.354 18,11.918 18,7.678 C18,3.437 13.971,0 9,0 C4.03,0 0,3.437 0,7.678 C0,10.025 1.237,12.126 3.184,13.534 Z" id="Stroke-44" stroke="#303030" stroke-linecap="round" stroke-linejoin="round"></path>
            <path d="M5.7455,7.4148 C5.7455,8.1048 5.1855,8.6648 4.4955,8.6648 C3.8055,8.6648 3.2455,8.1048 3.2455,7.4148 C3.2455,6.7248 3.8055,6.1648 4.4955,6.1648 C5.1855,6.1648 5.7455,6.7248 5.7455,7.4148 Z M10.2504,7.4148 C10.2504,8.1048 9.6904,8.6648 9.0004,8.6648 C8.3104,8.6648 7.7504,8.1048 7.7504,7.4148 C7.7504,6.7248 8.3104,6.1648 9.0004,6.1648 C9.6904,6.1648 10.2504,6.7248 10.2504,7.4148 Z M14.766,7.4148 C14.766,8.1048 14.206,8.6648 13.516,8.6648 C12.826,8.6648 12.266,8.1048 12.266,7.4148 C12.266,6.7248 12.826,6.1648 13.516,6.1648 C14.206,6.1648 14.766,6.7248 14.766,7.4148 Z" id="Combined-Shape" fill="#303030"></path>
        </g>
    </g>
</svg>