<?xml version="1.0" encoding="UTF-8"?>
<svg width="16px" height="16px" viewBox="0 0 16 16" version="1.1" xmlns="http://www.w3.org/2000/svg" xmlns:xlink="http://www.w3.org/1999/xlink">
    <!-- Generator: Sketch 50.2 (55047) - http://www.bohemiancoding.com/sketch -->
    <title>development_active</title>
    <desc>Created with Sketch.</desc>
    <defs></defs>
    <g id="development_active" stroke="none" stroke-width="1" fill="none" fill-rule="evenodd">
        <path d="M2.5,2 L13.5,2 C14.327,2 15,2.673 15,3.5 L15,12.5 C15,13.327 14.327,14 13.5,14 L2.5,14 C1.673,14 1,13.327 1,12.5 L1,3.5 C1,2.673 1.673,2 2.5,2 Z M3.76776695,5.35355339 L6.03553391,7.62132034 L3.76776695,9.8890873 L4.47487373,10.5961941 L7.44974747,7.62132034 L4.47487373,4.64644661 L3.76776695,5.35355339 Z M5.91666667,12 L11.0833333,12 L11.0833333,11 L5.91666667,11 L5.91666667,12 Z" id="Combined-Shape" fill="#2CA7F8"></path>
    </g>
</svg>