<?xml version="1.0" encoding="UTF-8"?>
<svg width="16px" height="16px" viewBox="0 0 16 16" version="1.1" xmlns="http://www.w3.org/2000/svg" xmlns:xlink="http://www.w3.org/1999/xlink">
    <!-- Generator: Sketch 50.2 (55047) - http://www.bohemiancoding.com/sketch -->
    <title>game</title>
    <desc>Created with Sketch.</desc>
    <defs></defs>
    <g id="game" stroke="none" stroke-width="1" fill="none" fill-rule="evenodd">
        <g id="Group" transform="translate(0.000000, 3.000000)">
            <path d="M11.304163,0 C10.2312598,0 9.44414833,1.14857143 8.0112423,1.14857143 C6.53807281,1.14857143 5.76280354,0 4.71911111,0 C0.860133352,0 -0.967512621,9.15428571 1.90461526,9.38857143 C4.19963334,9.575 4.66147908,6.715 7.99703167,6.715 C10.6946845,6.715 12.0486425,9.35357143 14.0799743,9.35357143 C16.9639444,9.35357143 15.1623513,0 11.304163,0 Z" id="Stroke-3" stroke="#303030" stroke-linecap="round" stroke-linejoin="round"></path>
            <path d="M5.06631129,6.107 C3.84536392,6.107 2.85578497,5.14771429 2.85578497,3.96414286 C2.85578497,2.78057143 3.84536392,1.82128571 5.06631129,1.82128571 C6.28504813,1.82128571 7.2768376,2.78057143 7.2768376,3.96414286 C7.2768376,5.14771429 6.28504813,6.107 5.06631129,6.107 Z" id="Stroke-5" stroke="#303030" stroke-linecap="round" stroke-linejoin="round"></path>
            <path d="M9.64681655,4.88564286 C9.13765866,4.88564286 8.72502708,4.4835 8.72502708,3.99135714 C8.72502708,3.49135714 9.13765866,3.08992857 9.64681655,3.08992857 C10.1545008,3.08992857 10.5671323,3.49135714 10.5671323,3.99135714 C10.5671323,4.4835 10.1545008,4.88564286 9.64681655,4.88564286" id="Fill-7" fill="#303030"></path>
            <path d="M5.03256392,4.87864286 C4.52340603,4.87864286 4.11077445,4.47792857 4.11077445,3.98935714 C4.11077445,3.49292857 4.52340603,3.09364286 5.03256392,3.09364286 C5.54024813,3.09364286 5.95287971,3.49292857 5.95287971,3.98935714 C5.95287971,4.47792857 5.54024813,4.87864286 5.03256392,4.87864286" id="Fill-9" fill="#303030"></path>
            <path d="M11.321585,6.49071429 C10.8124271,6.49071429 10.3997955,6.08928571 10.3997955,5.59214286 C10.3997955,5.09571429 10.8124271,4.69357143 11.321585,4.69357143 C11.8292692,4.69357143 12.2419008,5.09571429 12.2419008,5.59214286 C12.2419008,6.08928571 11.8292692,6.49071429 11.321585,6.49071429" id="Fill-11" fill="#303030"></path>
            <path d="M11.3208481,3.27357143 C10.8102166,3.27357143 10.3997955,2.87142857 10.3997955,2.37357143 C10.3997955,1.87714286 10.8102166,1.47428571 11.3208481,1.47428571 C11.830006,1.47428571 12.2419008,1.87714286 12.2419008,2.37357143 C12.2419008,2.87142857 11.830006,3.27357143 11.3208481,3.27357143" id="Fill-13" fill="#303030"></path>
            <path d="M12.9658481,4.88421429 C12.4603744,4.88421429 12.0477429,4.48135714 12.0477429,3.98921429 C12.0477429,3.48992857 12.4603744,3.0885 12.9658481,3.0885 C13.4779534,3.0885 13.8898481,3.48992857 13.8898481,3.98921429 C13.8898481,4.48135714 13.4779534,4.88421429 12.9658481,4.88421429" id="Fill-15" fill="#303030"></path>
        </g>
    </g>
</svg>