<?xml version="1.0" encoding="UTF-8"?>
<svg width="14px" height="14px" viewBox="0 0 14 14" version="1.1" xmlns="http://www.w3.org/2000/svg" xmlns:xlink="http://www.w3.org/1999/xlink">
    <!-- Generator: Sketch 50 (54983) - http://www.bohemiancoding.com/sketch -->
    <title>hot</title>
    <desc>Created with Sketch.</desc>
    <defs></defs>
    <g id="hot" stroke="none" stroke-width="1" fill="none" fill-rule="evenodd">
        <g id="热门" transform="translate(2.000000, 1.000000)" fill-rule="nonzero" stroke="#FF3B3B">
            <path d="M8.2034689,3.07365071 C8.20386286,3.07348105 8.20425431,3.07330841 8.2046432,3.0731328 C8.20426399,3.073293 8.20387765,3.07345856 8.20348423,3.07362945 Z M8.01603173,3.20102839 C7.98290293,3.22802967 7.94762232,3.25885585 7.91173132,3.29319141 C7.68844048,3.50680524 7.51050932,3.78966298 7.40557836,4.15986453 C7.34394968,4.37122656 7.29928868,4.60553522 7.267337,4.86721418 L7.08744049,6.34053692 L6.33920407,5.05866917 C6.20938832,4.83627071 6.10869205,4.64875149 6.03383318,4.48447759 C5.92322118,4.24174859 5.83024146,3.98778859 5.75377518,3.72395662 C5.46528178,2.72856643 5.42541841,1.68812071 5.52796046,0.734888735 C5.53455216,0.673612246 5.54123431,0.617785526 5.54781139,0.567409919 C5.50339837,0.586609789 5.45406004,0.609244134 5.400738,0.635415313 C5.14556104,0.760659625 4.88391165,0.92734983 4.63054308,1.1404208 C3.91216155,1.74454566 3.39263084,2.60029305 3.17880882,3.76994261 C3.02123093,4.62810356 3.06992201,5.55719218 3.25641174,6.37188969 L3.54240588,7.62128133 L2.48592459,6.89559585 C2.18911772,6.69172245 1.93519765,6.40984895 1.7003092,6.0317225 C1.59520163,5.86404129 1.49698663,5.66028166 1.40271175,5.42579946 C1.31834103,5.21595108 1.24573971,5.00520158 1.18903926,4.82329656 C0.85475913,5.48683364 0.506018736,6.51670296 0.506018736,7.37768401 C0.506018736,9.83043257 2.28344442,11.5747704 4.81301668,11.5747704 C7.37567619,11.5747704 9.20361596,9.82009791 9.20601855,7.3804079 C9.20601853,6.33915782 9.07494777,5.84134131 8.58544902,5.01713906 C8.15734944,4.29678389 8.0086377,3.67319895 8.01603173,3.20102839 Z" id="Shape"></path>
        </g>
    </g>
</svg>