<?xml version="1.0" encoding="UTF-8"?>
<svg width="24px" height="24px" viewBox="0 0 24 24" version="1.1" xmlns="http://www.w3.org/2000/svg" xmlns:xlink="http://www.w3.org/1999/xlink">
    <!-- Generator: Sketch 49.3 (51167) - http://www.bohemiancoding.com/sketch -->
    <title>music_active</title>
    <desc>Created with Sketch.</desc>
    <defs></defs>
    <g id="music_active" stroke="none" stroke-width="1" fill="none" fill-rule="evenodd">
        <path d="M20.9622642,18.563958 C20.9652642,18.541958 20.9752642,18.521958 20.9752642,18.499958 L20.9752642,5.51395796 C20.9752642,5.28495796 20.8192642,5.08495796 20.5962642,5.02895796 L8.59626425,2.01395796 C8.44726425,1.97895796 8.29026425,2.00995796 8.16726425,2.10495796 C8.04526425,2.19995796 7.97526425,2.34495796 7.97526425,2.49995796 L7.97526425,12.943958 C7.56326425,12.678958 7.06226425,12.519958 6.49926425,12.519958 C5.92326425,12.519958 5.33426425,12.672958 4.79526425,12.960958 C4.08426425,13.342958 3.52826425,13.922958 3.23126425,14.595958 C2.91526425,15.310958 2.92326425,16.045958 3.25426425,16.664958 C3.65926425,17.419958 4.49426425,17.871958 5.48626425,17.871958 C6.06226425,17.871958 6.65026425,17.718958 7.19026425,17.429958 C8.37826425,16.792958 9.04626425,15.630958 8.96226425,14.563958 C8.96526425,14.541958 8.97526425,14.521958 8.97526425,14.499958 L8.97526425,7.15495796 L19.9752642,9.88895796 L19.9752642,16.943958 C19.5632642,16.678958 19.0622642,16.519958 18.4992642,16.519958 C17.9232642,16.519958 17.3342642,16.672958 16.7952642,16.960958 C16.0842642,17.342958 15.5282642,17.922958 15.2312642,18.595958 C14.9152642,19.310958 14.9232642,20.045958 15.2542642,20.664958 C15.6592642,21.419958 16.4942642,21.871958 17.4862642,21.871958 C18.0622642,21.871958 18.6502642,21.718958 19.1902642,21.429958 C20.3782642,20.792958 21.0462642,19.630958 20.9622642,18.563958" id="Fill-62" fill="#2CA7F8"></path>
    </g>
</svg>