<?xml version="1.0" encoding="UTF-8"?>
<svg width="16px" height="16px" viewBox="0 0 16 16" version="1.1" xmlns="http://www.w3.org/2000/svg" xmlns:xlink="http://www.w3.org/1999/xlink">
    <!-- Generator: Sketch 50.2 (55047) - http://www.bohemiancoding.com/sketch -->
    <title>reading</title>
    <desc>Created with Sketch.</desc>
    <defs></defs>
    <g id="reading" stroke="none" stroke-width="1" fill="none" fill-rule="evenodd">
        <path d="M2.5,1.43167415 L2.5,10.2988617 C2.5,10.3741037 2.51273451,10.4481528 2.53702799,10.5159407 C2.62359108,10.7574844 2.81284276,10.8480797 2.96861358,10.7720799 C3.61112995,10.4586688 4.26169609,10.3 4.91589846,10.3 C5.60579013,10.3 6.31228912,10.4763729 7.03257228,10.8238419 C7.06911915,10.8414723 7.10621103,10.8500661 7.14285987,10.8500661 C7.32153914,10.8500661 7.50002227,10.6418359 7.50002227,10.3500449 L7.5000037,1.44979572 C6.61987577,0.811981875 5.75841144,0.5 4.90906955,0.5 C4.06816336,0.5 3.26935445,0.805694276 2.5,1.43167711 Z" id="Rectangle" stroke="#303030" fill-rule="nonzero"></path>
        <path d="M7.5,1.43167415 L7.5,10.2988617 C7.5,10.3741037 7.51273451,10.4481528 7.53702799,10.5159407 C7.62359108,10.7574844 7.81284276,10.8480797 7.96861358,10.7720799 C8.61112995,10.4586688 9.26169609,10.3 9.91589846,10.3 C10.6057901,10.3 11.3122891,10.4763729 12.0325723,10.8238419 C12.0691191,10.8414723 12.106211,10.8500661 12.1428599,10.8500661 C12.3215391,10.8500661 12.5000223,10.6418359 12.5000223,10.3500449 L12.5000037,1.44979572 C11.6198758,0.811981875 10.7584114,0.5 9.90906955,0.5 C9.06816336,0.5 8.26935445,0.805694276 7.5,1.43167711 Z" id="Rectangle" stroke="#303030" fill-rule="nonzero"></path>
        <polyline id="Path-5" stroke="#303030" points="0.5 3.34782499 0.5 13.5 5.44010222 13.5 5.44010222 14.5 9.57762896 14.5 9.57762896 13.5 14.5 13.5 14.5 3.34782499"></polyline>
    </g>
</svg>