<?xml version="1.0" encoding="UTF-8"?>
<svg width="16px" height="16px" viewBox="0 0 16 16" version="1.1" xmlns="http://www.w3.org/2000/svg" xmlns:xlink="http://www.w3.org/1999/xlink">
    <!-- Generator: Sketch 50.2 (55047) - http://www.bohemiancoding.com/sketch -->
    <title>upgrades_active</title>
    <desc>Created with Sketch.</desc>
    <defs></defs>
    <g id="upgrades_active" stroke="none" stroke-width="1" fill="none" fill-rule="evenodd">
        <path d="M8,16 C3.581722,16 0,12.418278 0,8 C0,3.581722 3.581722,0 8,0 C12.418278,0 16,3.581722 16,8 C16,12.418278 12.418278,16 8,16 Z M12.1584035,6.874 C12.3654035,7.059 12.6834035,7.042 12.8694035,6.836 C13.0554035,6.631 13.0384035,6.314 12.8324035,6.131 L8.84340348,2.128 C8.74740348,2.043 8.62640348,2 8.50640348,2 C8.38740348,2 8.26640348,2.042 8.17140348,2.127 L4.16740348,6.13 C3.96040348,6.313 3.94340348,6.63 4.12740348,6.835 C4.31640348,7.041 4.63440348,7.057 4.83940348,6.875 L8.00640348,3.617 L8.00640348,14 C8.00640348,14.276 8.22840348,14.5 8.50640348,14.5 C8.78440348,14.5 9.00640348,14.276 9.00640348,14 L9.00640348,3.62 L12.1584035,6.874 Z" id="Combined-Shape" fill="#2CA7F8"></path>
    </g>
</svg>