<?xml version="1.0" encoding="UTF-8"?>
<svg width="24px" height="24px" viewBox="0 0 24 24" version="1.1" xmlns="http://www.w3.org/2000/svg" xmlns:xlink="http://www.w3.org/1999/xlink">
    <!-- Generator: Sketch 49.3 (51167) - http://www.bohemiancoding.com/sketch -->
    <title>video</title>
    <desc>Created with Sketch.</desc>
    <defs></defs>
    <g id="video" stroke="none" stroke-width="1" fill="none" fill-rule="evenodd">
        <path d="M8,17 L8,20 L5.4,20 C5.179,20 5,19.821 5,19.6 L5,17 L8,17 Z M5,16 L8,16 L8,13 L5,13 L5,16 Z M5,12 L8,12 L8,9 L5,9 L5,12 Z M5,5.4 C5,5.18 5.18,5 5.4,5 L8,5 L8,8 L5,8 L5,5.4 Z M9,12 L15,12 L15,5 L9,5 L9,12 Z M18.6,5 C18.82,5 19,5.18 19,5.4 L19,8 L16,8 L16,5 L18.6,5 Z M16,12 L19,12 L19,9 L16,9 L16,12 Z M16,16 L19,16 L19,13 L16,13 L16,16 Z M19,19.6 C19,19.82 18.82,20 18.6,20 L16,20 L16,17 L19,17 L19,19.6 Z M9,20 L15,20 L15,13 L9,13 L9,20 Z M5,21 L19,21 C19.55,21 20,20.55 20,20 L20,5 C20,4.45 19.55,4 19,4 L5,4 C4.45,4 4,4.45 4,5 L4,20 C4,20.553 4.448,21 5,21 Z" id="Fill-1" fill="#000000"></path>
    </g>
</svg>