<?xml version="1.0" encoding="UTF-8"?>
<svg width="380px" height="100px" preserveAspectRatio="none" viewBox="0 0 380 100" version="1.1" xmlns="http://www.w3.org/2000/svg" xmlns:xlink="http://www.w3.org/1999/xlink">
    <!-- Generator: Sketch 46.2 (44496) - http://www.bohemiancoding.com/sketch -->
    <title>water_front</title>
    <desc>Created with Sketch.</desc>
    <defs></defs>
    <g id="对话框" stroke="none" stroke-width="1" fill="none" fill-rule="evenodd">
        <path d="M380,100 L380,11 C377.291256,10.7598642 374.138944,10.3265064 370,9 C365.808547,8.28261908 359.155056,1.76242943 355,2 C344.040537,1.61604538 344.002853,5.32566123 334,7 C327.54588,7.45707402 325.452078,4.88772894 309,2 C293.500393,-1.45131044 281.012333,11.2539104 272,11 C265.526445,10.5527918 254.556258,5.89106963 247,6 C239.9772,6.37627177 233.124769,13.647955 226,14 C217.218803,13.9449927 213.810067,7.81266528 207,6 C200.109165,3.89506209 189.232045,4.02131834 184,6 C168.809548,11.633594 164.645592,6.5558972 153,3 C150.524613,2.24244714 146.022232,1.98322538 143,2 C136.578075,1.14487171 127.089659,12.4601094 121,14 C113.134845,15.4365851 113.390578,10.2484904 97,3 C81.4795176,-4.12165498 69.2503541,6.80414016 58,7 C49.086952,6.40219395 42.35983,0.505356387 33,0 C20.3616955,-0.639793854 19.2327357,12.1694206 0,11 L0,100 L380,100 Z" id="water_front" fill="#01C4FF"></path>
    </g>
</svg>