<?xml version="1.0" encoding="UTF-8"?>
<svg width="26px" height="26px" viewBox="0 0 26 26" version="1.1" xmlns="http://www.w3.org/2000/svg" xmlns:xlink="http://www.w3.org/1999/xlink">
    <!-- Generator: Sketch 48.2 (47327) - http://www.bohemiancoding.com/sketch -->
    <title>backward_hover</title>
    <desc>Created with Sketch.</desc>
    <defs>
        <linearGradient x1="50%" y1="0%" x2="50%" y2="96.8191964%" id="linearGradient-1">
            <stop stop-color="#8CCFFF" offset="0%"></stop>
            <stop stop-color="#4BB8FF" offset="100%"></stop>
        </linearGradient>
        <path d="M0,4 L0,20 C2.705415e-16,22.209139 1.790861,24 4,24 L25,24 L25,0 L4,0 C1.790861,4.05812251e-16 -2.705415e-16,1.790861 0,4 Z" id="path-2"></path>
        <filter x="-8.0%" y="-4.2%" width="116.0%" height="116.7%" filterUnits="objectBoundingBox" id="filter-3">
            <feOffset dx="0" dy="1" in="SourceAlpha" result="shadowOffsetOuter1"></feOffset>
            <feGaussianBlur stdDeviation="0.5" in="shadowOffsetOuter1" result="shadowBlurOuter1"></feGaussianBlur>
            <feComposite in="shadowBlurOuter1" in2="SourceAlpha" operator="out" result="shadowBlurOuter1"></feComposite>
            <feColorMatrix values="0 0 0 0 0   0 0 0 0 0   0 0 0 0 0  0 0 0 0.05 0" type="matrix" in="shadowBlurOuter1"></feColorMatrix>
        </filter>
    </defs>
    <g id="DUI_浅色" stroke="none" stroke-width="1" fill="none" fill-rule="evenodd" transform="translate(-120.000000, -423.000000)">
        <g id="backward_hover" transform="translate(121.000000, 424.000000)">
            <g id="前进后退">
                <use fill="black" fill-opacity="1" filter="url(#filter-3)" xlink:href="#path-2"></use>
                <use fill="url(#linearGradient-1)" fill-rule="evenodd" xlink:href="#path-2"></use>
                <path stroke-opacity="0.2" stroke="#0076F3" stroke-width="1" d="M24.5,23.5 L24.5,0.5 L4,0.5 C2.06700338,0.5 0.5,2.06700338 0.5,4 L0.5,20 C0.5,21.9329966 2.06700338,23.5 4,23.5 L24.5,23.5 Z"></path>
            </g>
            <polyline id="backward" stroke="#FFFFFF" transform="translate(13.535534, 11.656854) rotate(-45.000000) translate(-13.535534, -11.656854) " points="16.0355339 9.15685425 11.0355339 9.15685425 11.0355339 14.1568542"></polyline>
        </g>
    </g>
</svg>