<?xml version="1.0" encoding="UTF-8"?>
<svg width="26px" height="26px" viewBox="0 0 26 26" version="1.1" xmlns="http://www.w3.org/2000/svg" xmlns:xlink="http://www.w3.org/1999/xlink">
    <!-- Generator: Sketch 48.2 (47327) - http://www.bohemiancoding.com/sketch -->
    <title>forward_normal</title>
    <desc>Created with Sketch.</desc>
    <defs>
        <linearGradient x1="50%" y1="0%" x2="50%" y2="100%" id="linearGradient-1">
            <stop stop-color="#FFFFFF" offset="0%"></stop>
            <stop stop-color="#FDFDFD" offset="100%"></stop>
        </linearGradient>
        <path d="M0,0 L0,24 L21,24 C23.209139,24 25,22.209139 25,20 L25,4 C25,1.790861 23.209139,-4.05812251e-16 21,0 L0,0 Z" id="path-2"></path>
        <filter x="-2.0%" y="-2.1%" width="104.0%" height="108.3%" filterUnits="objectBoundingBox" id="filter-3">
            <feOffset dx="0" dy="1" in="SourceAlpha" result="shadowOffsetOuter1"></feOffset>
            <feComposite in="shadowOffsetOuter1" in2="SourceAlpha" operator="out" result="shadowOffsetOuter1"></feComposite>
            <feColorMatrix values="0 0 0 0 0   0 0 0 0 0   0 0 0 0 0  0 0 0 0.02 0" type="matrix" in="shadowOffsetOuter1"></feColorMatrix>
        </filter>
        <filter x="-2.0%" y="-2.1%" width="104.0%" height="108.3%" filterUnits="objectBoundingBox" id="filter-4">
            <feOffset dx="0" dy="1" in="SourceAlpha" result="shadowOffsetInner1"></feOffset>
            <feComposite in="shadowOffsetInner1" in2="SourceAlpha" operator="arithmetic" k2="-1" k3="1" result="shadowInnerInner1"></feComposite>
            <feColorMatrix values="0 0 0 0 1   0 0 0 0 1   0 0 0 0 1  0 0 0 0.6 0" type="matrix" in="shadowInnerInner1"></feColorMatrix>
        </filter>
    </defs>
    <g id="DUI_浅色" stroke="none" stroke-width="1" fill="none" fill-rule="evenodd" transform="translate(-146.000000, -392.000000)">
        <g id="forward_normal" transform="translate(146.000000, 393.000000)">
            <g id="backward">
                <use fill="black" fill-opacity="1" filter="url(#filter-3)" xlink:href="#path-2"></use>
                <use fill="url(#linearGradient-1)" fill-rule="evenodd" xlink:href="#path-2"></use>
                <use fill="black" fill-opacity="1" filter="url(#filter-4)" xlink:href="#path-2"></use>
                <path stroke-opacity="0.08" stroke="#000000" stroke-width="1" d="M0.5,0.5 L0.5,23.5 L21,23.5 C22.9329966,23.5 24.5,21.9329966 24.5,20 L24.5,4 C24.5,2.06700338 22.9329966,0.5 21,0.5 L0.5,0.5 Z"></path>
            </g>
            <polyline id="forward" stroke="#303030" transform="translate(11.778175, 11.656854) scale(-1, 1) rotate(-45.000000) translate(-11.778175, -11.656854) " points="14.2781746 9.15685425 9.27817459 9.15685425 9.27817459 14.1568542"></polyline>
        </g>
    </g>
</svg>