<svg xmlns="http://www.w3.org/2000/svg" width="20" height="20" viewBox="0 0 20 20">
  <path fill="#E9E9E9" fill-rule="evenodd" d="M329.5,1358.78754 C330.939974,1360.15978 332.875793,1361 335.00451,1361 C337.128785,1361 339.060967,1360.16328 340.5,1358.79612 L338.799332,1358.39242 C338.352742,1358.2864 337.965588,1358.00479 337.722538,1357.60917 L337.482528,1357.21849 L336.243519,1356.58824 L337.07111,1356.30759 C337.480589,1356.16872 337.789524,1355.82307 337.88658,1355.3952 L338.102033,1354.44538 C339.01064,1354.61345 339.464943,1354.06723 339.464943,1352.80672 C339.464943,1351.96639 339.175841,1351.54622 338.597637,1351.54622 C338.597637,1350.91597 338.845438,1350.28571 338.845438,1349.02521 C338.845438,1347.13445 337.606429,1346 334.385005,1346 C333.311197,1346 332.691693,1346.58824 332.526491,1347.76471 C331.617885,1347.76471 331.163581,1348.18487 331.163581,1349.02521 C331.163581,1350.28571 331.411383,1350.91597 331.411383,1351.54622 C330.833179,1351.54622 330.544077,1351.96639 330.544077,1352.80672 C330.544077,1354.06723 330.99838,1354.61345 331.906987,1354.44538 L332.122439,1355.3952 C332.219495,1355.82307 332.528431,1356.16872 332.93791,1356.30759 L333.765501,1356.58824 L332.526491,1357.21849 L332.157372,1357.71919 C331.915433,1358.04737 331.568666,1358.27955 331.176692,1358.3758 L329.5,1358.78754 L329.5,1358.78754 Z M335,1363 C329.477153,1363 325,1358.52285 325,1353 C325,1347.47715 329.477153,1343 335,1343 C340.522847,1343 345,1347.47715 345,1353 C345,1358.52285 340.522847,1363 335,1363 Z" transform="translate(-325 -1343)"/>
</svg>
