<svg xmlns="http://www.w3.org/2000/svg" width="20" height="20" viewBox="0 0 20 20">
  <path fill="#FFF" fill-rule="evenodd" d="M302.5,1358.78754 C303.939974,1360.15978 305.875793,1361 308.00451,1361 C310.128785,1361 312.060967,1360.16328 313.5,1358.79612 L311.799332,1358.39242 C311.352742,1358.2864 310.965588,1358.00479 310.722538,1357.60917 L310.482528,1357.21849 L309.243519,1356.58824 L310.07111,1356.30759 C310.480589,1356.16872 310.789524,1355.82307 310.88658,1355.3952 L311.102033,1354.44538 C312.01064,1354.61345 312.464943,1354.06723 312.464943,1352.80672 C312.464943,1351.96639 312.175841,1351.54622 311.597637,1351.54622 C311.597637,1350.91597 311.845438,1350.28571 311.845438,1349.02521 C311.845438,1347.13445 310.606429,1346 307.385005,1346 C306.311197,1346 305.691693,1346.58824 305.526491,1347.76471 C304.617885,1347.76471 304.163581,1348.18487 304.163581,1349.02521 C304.163581,1350.28571 304.411383,1350.91597 304.411383,1351.54622 C303.833179,1351.54622 303.544077,1351.96639 303.544077,1352.80672 C303.544077,1354.06723 303.99838,1354.61345 304.906987,1354.44538 L305.122439,1355.3952 C305.219495,1355.82307 305.528431,1356.16872 305.93791,1356.30759 L306.765501,1356.58824 L305.526491,1357.21849 L305.157372,1357.71919 C304.915433,1358.04737 304.568666,1358.27955 304.176692,1358.3758 L302.5,1358.78754 L302.5,1358.78754 Z M308,1363 C302.477153,1363 298,1358.52285 298,1353 C298,1347.47715 302.477153,1343 308,1343 C313.522847,1343 318,1347.47715 318,1353 C318,1358.52285 313.522847,1363 308,1363 Z" opacity=".6" transform="translate(-298 -1343)"/>
</svg>
