<svg xmlns="http://www.w3.org/2000/svg" width="20" height="20" viewBox="0 0 20 20">
  <path fill="#2CA7F8" fill-rule="evenodd" d="M356.5,1358.78754 C357.939974,1360.15978 359.875793,1361 362.00451,1361 C364.128785,1361 366.060967,1360.16328 367.5,1358.79612 L365.799332,1358.39242 C365.352742,1358.2864 364.965588,1358.00479 364.722538,1357.60917 L364.482528,1357.21849 L363.243519,1356.58824 L364.07111,1356.30759 C364.480589,1356.16872 364.789524,1355.82307 364.88658,1355.3952 L365.102033,1354.44538 C366.01064,1354.61345 366.464943,1354.06723 366.464943,1352.80672 C366.464943,1351.96639 366.175841,1351.54622 365.597637,1351.54622 C365.597637,1350.91597 365.845438,1350.28571 365.845438,1349.02521 C365.845438,1347.13445 364.606429,1346 361.385005,1346 C360.311197,1346 359.691693,1346.58824 359.526491,1347.76471 C358.617885,1347.76471 358.163581,1348.18487 358.163581,1349.02521 C358.163581,1350.28571 358.411383,1350.91597 358.411383,1351.54622 C357.833179,1351.54622 357.544077,1351.96639 357.544077,1352.80672 C357.544077,1354.06723 357.99838,1354.61345 358.906987,1354.44538 L359.122439,1355.3952 C359.219495,1355.82307 359.528431,1356.16872 359.93791,1356.30759 L360.765501,1356.58824 L359.526491,1357.21849 L359.157372,1357.71919 C358.915433,1358.04737 358.568666,1358.27955 358.176692,1358.3758 L356.5,1358.78754 L356.5,1358.78754 Z M362,1363 C356.477153,1363 352,1358.52285 352,1353 C352,1347.47715 356.477153,1343 362,1343 C367.522847,1343 372,1347.47715 372,1353 C372,1358.52285 367.522847,1363 362,1363 Z" transform="translate(-352 -1343)"/>
</svg>
